<svg width="1793" height="1522" viewBox="0 0 1793 1522" fill="none" xmlns="http://www.w3.org/2000/svg">
<path opacity="0.9" d="M70 798V1426H67.5C38.5051 1426 15 1449.51 15 1478.5C15 1507.49 38.505 1531 67.5 1531H70H85H1689H1704H1724.5C1753.49 1531 1777 1507.49 1777 1478.5C1777 1449.51 1753.49 1426 1724.5 1426H1704V798H1725.5C1754.49 798 1778 774.495 1778 745.5C1778 716.505 1754.49 693 1725.5 693H68.5C39.5051 693 16 716.505 16 745.5C16 774.495 39.505 798 68.5 798H70Z" stroke="black" stroke-width="30"/>
<rect x="85" y="783" width="1604" height="733" fill="#00B98D"/>
<rect x="30" y="1441" width="1732" height="75" rx="37.5" fill="#45DAB6"/>
<path d="M281 783H1513C1513 802.882 1496.88 819 1477 819H317C297.118 819 281 802.882 281 783Z" fill="#073429"/>
<rect x="170" y="863" width="1434" height="493" fill="#07795E"/>
<rect x="31" y="708" width="1732" height="75" rx="37.5" fill="#45DAB6"/>
</svg>
