<svg width="650" height="650" viewBox="0 0 650 650" fill="none" xmlns="http://www.w3.org/2000/svg">
<path d="M271.95 92.8834C243.484 92.8834 199.06 74.7574 161.968 82.0941C161.968 36.3476 87.7846 85.1151 134.365 134.314V341.468V516.686C87.7846 565.885 161.968 614.652 161.968 568.906C199.06 576.243 243.484 558.117 271.95 558.117C300.416 558.117 306.885 603 325 603C343.115 603 349.584 558.117 378.05 558.117C406.516 558.117 450.94 576.243 488.032 568.906C488.032 614.652 562.215 565.885 515.635 516.686V341.468V134.314C562.215 85.1151 488.032 36.3476 488.032 82.0941C450.94 74.7574 406.516 92.8834 378.05 92.8834C349.584 92.8834 343.115 48 325 48C306.885 48 300.416 92.8834 271.95 92.8834Z" fill="#FFB858"/>
<path d="M271.95 77.8834C266.229 77.8834 259.198 76.9553 250.646 75.4061C245.785 74.5254 241.373 73.6353 236.718 72.696C232.502 71.8455 228.086 70.9546 222.955 69.9938C207.92 67.1782 190.841 64.5989 173.883 65.5501C173.192 63.9547 172.372 62.4159 171.408 60.9484C167.131 54.4396 160.761 50.5005 153.697 49.2612C140.757 46.9911 128.289 53.8605 120.134 61.9512C111.416 70.6012 104.602 83.3686 104.038 98.4034C103.521 112.18 108.296 126.51 119.365 139.978V341.468V511.022C108.296 524.49 103.521 538.82 104.038 552.597C104.602 567.631 111.416 580.399 120.134 589.049C128.289 597.14 140.757 604.009 153.697 601.739C160.761 600.5 167.131 596.56 171.408 590.052C172.372 588.584 173.192 587.045 173.883 585.45C190.841 586.401 207.92 583.822 222.955 581.006C228.086 580.045 232.502 579.154 236.718 578.304C241.374 577.365 245.785 576.475 250.646 575.594C259.198 574.045 266.229 573.117 271.95 573.117C277.25 573.117 281.934 576.901 289.855 588.847C290.493 589.81 291.176 590.862 291.896 591.972C294.743 596.36 298.169 601.64 301.672 605.736C306.069 610.877 313.692 618 325 618C336.308 618 343.931 610.877 348.328 605.736C351.831 601.64 355.257 596.36 358.104 591.972C358.824 590.862 359.507 589.81 360.145 588.847C368.066 576.901 372.75 573.117 378.05 573.117C383.771 573.117 390.802 574.045 399.354 575.594C404.215 576.475 408.626 577.365 413.282 578.304C417.498 579.154 421.914 580.045 427.045 581.006C442.08 583.822 459.159 586.401 476.117 585.45C476.808 587.045 477.628 588.584 478.592 590.052C482.869 596.56 489.239 600.5 496.303 601.739C509.243 604.009 521.711 597.14 529.866 589.049C538.584 580.399 545.398 567.631 545.962 552.597C546.479 538.82 541.704 524.49 530.635 511.022V341.468V139.978C541.704 126.51 546.479 112.18 545.962 98.4034C545.398 83.3686 538.584 70.6012 529.866 61.9512C521.711 53.8604 509.243 46.9911 496.303 49.2612C489.239 50.5005 482.869 54.4396 478.592 60.9484C477.628 62.4159 476.808 63.9547 476.117 65.5501C459.159 64.5989 442.08 67.1782 427.045 69.9938C421.914 70.9546 417.498 71.8455 413.282 72.6961C408.627 73.6353 404.215 74.5254 399.354 75.4061C390.802 76.9553 383.771 77.8834 378.05 77.8834C372.75 77.8834 368.066 74.0988 360.145 62.1525C359.507 61.1904 358.824 60.1377 358.104 59.0278C355.257 54.6402 351.831 49.3603 348.328 45.2637C343.931 40.123 336.308 33 325 33C313.692 33 306.069 40.123 301.672 45.2637C298.169 49.3603 294.743 54.6402 291.896 59.0279C291.176 60.1377 290.493 61.1905 289.855 62.1525C281.934 74.0988 277.25 77.8834 271.95 77.8834Z" stroke="black" stroke-opacity="0.9" stroke-width="30" stroke-linejoin="round"/>
<path d="M166 158C166 137.565 182.565 121 203 121H446C466.435 121 483 137.565 483 158V493C483 513.435 466.435 530 446 530H203C182.565 530 166 513.435 166 493V158Z" fill="white"/>
<mask id="mask0_63_1274" style="mask-type:alpha" maskUnits="userSpaceOnUse" x="166" y="121" width="317" height="409">
<path d="M166 158C166 137.565 182.565 121 203 121H446C466.435 121 483 137.565 483 158V493C483 513.435 466.435 530 446 530H203C182.565 530 166 513.435 166 493V158Z" fill="white"/>
</mask>
<g mask="url(#mask0_63_1274)">
<path d="M446 530H203C182.565 530 166 513.435 166 493V406C239 307.5 379.5 335.5 483 442.5V493C483 513.435 466.435 530 446 530Z" fill="#2AAA9E"/>
<path d="M384.649 381C348.649 437.5 343.249 462.4 335.649 532C319.149 452 293.649 375.5 272.149 333" stroke="#0E5B54" stroke-width="20"/>
<path fill-rule="evenodd" clip-rule="evenodd" d="M295.464 259.461C301.338 289.874 309.67 333.02 275.617 342.19C270.944 343.448 266.785 343.272 263.231 341.952C258.456 340.178 254.771 336.341 252.4 331.144C247.047 319.418 248.378 300.773 258.934 283.322C263.73 275.395 270.43 267.713 279.272 261.039C283.657 257.73 288.568 254.668 294.036 251.946C294.475 254.338 294.961 256.852 295.464 259.461Z" fill="#E71D36"/>
<path d="M227.63 274.826C238.621 274.5 249.76 277.522 258.934 283.322C248.378 300.773 247.047 319.418 252.4 331.144C229.777 315.594 224.931 292.844 227.63 274.826Z" fill="#FF6174"/>
<path d="M208.365 279.197C214.423 276.438 221 275.022 227.63 274.826C224.931 292.844 229.777 315.594 252.4 331.144C254.771 336.341 258.456 340.178 263.231 341.952C248.84 339.704 231.017 328.127 208.365 279.197Z" fill="#FF6174"/>
<path fill-rule="evenodd" clip-rule="evenodd" d="M263.231 341.952C266.785 343.272 270.944 343.448 275.617 342.19C271.788 342.45 267.673 342.645 263.231 341.952Z" fill="#FF6174"/>
<path fill-rule="evenodd" clip-rule="evenodd" d="M263.031 341.888C266.586 343.208 270.745 343.384 275.417 342.126C271.589 342.386 267.474 342.581 263.031 341.888Z" fill="#B51B2E"/>
<path d="M242.462 246.985C255.803 241.162 269.947 247.419 279.072 260.975C270.23 267.649 263.531 275.331 258.735 283.258C249.56 277.458 238.421 274.436 227.431 274.762C229.514 260.853 236.094 249.764 242.462 246.985Z" fill="#B51B2E"/>
<path fill-rule="evenodd" clip-rule="evenodd" d="M440.061 365.413C422.047 389.893 396.493 424.62 367.214 406.177C363.197 403.647 360.556 400.531 359.141 397.09C357.241 392.467 357.554 387.257 359.721 382.089C364.611 370.424 378.937 358.972 398.544 354.965C407.451 353.145 417.447 352.861 428.144 354.792C433.449 355.75 438.925 357.252 444.527 359.381C443.095 361.29 441.606 363.314 440.061 365.413Z" fill="#FF9F1C"/>
<path d="M383.83 326.744C391.381 334.449 396.617 344.491 398.543 354.965C378.937 358.972 364.611 370.424 359.721 382.089C355.871 355.43 369.045 336.792 383.83 326.744Z" fill="#FFC576"/>
<path d="M367.854 315.766C373.876 318.297 379.274 322.095 383.83 326.744C369.045 336.792 355.871 355.43 359.721 382.089C357.554 387.257 357.24 392.468 359.141 397.091C351.181 385.221 347.662 364.666 367.854 315.766Z" fill="#FFC576"/>
<path fill-rule="evenodd" clip-rule="evenodd" d="M359.141 397.091C360.556 400.532 363.197 403.647 367.214 406.177C364.478 403.591 361.598 400.754 359.141 397.091Z" fill="#FFC576"/>
<path fill-rule="evenodd" clip-rule="evenodd" d="M359.054 396.904C360.468 400.345 363.11 403.46 367.127 405.991C364.391 403.404 361.51 400.568 359.054 396.904Z" fill="#E48C13"/>
<path d="M413.771 318.902C426.849 324.643 431.754 339.003 428.057 354.606C417.36 352.675 407.363 352.959 398.456 354.779C396.53 344.304 391.294 334.263 383.743 326.557C395.155 318.801 407.528 316.162 413.771 318.902Z" fill="#E48C13"/>
<path d="M383.721 233.064C383.508 233.789 383.231 234.451 382.889 235.048C382.548 235.603 382.185 235.923 381.801 236.008C380.991 236.221 380.372 236.093 379.945 235.624C379.519 235.155 379.348 234.557 379.433 233.832C379.775 231.272 380.329 228.584 381.097 225.768C381.865 222.909 382.761 220.072 383.785 217.256C384.809 214.397 385.919 211.645 387.113 209C388.351 206.312 389.609 203.88 390.889 201.704C391.103 201.363 391.337 201.171 391.593 201.128C391.892 201.043 392.148 201.043 392.361 201.128C392.575 200.957 392.831 200.808 393.129 200.68C393.428 200.552 393.727 200.488 394.025 200.488C394.153 200.488 394.281 200.509 394.409 200.552C394.58 200.595 394.751 200.723 394.921 200.936C395.092 201.149 395.284 201.469 395.497 201.896C395.753 202.28 396.052 202.856 396.393 203.624C396.991 205.8 397.673 208.04 398.441 210.344C399.252 212.648 400.084 214.952 400.937 217.256C401.065 217.213 401.172 217.192 401.257 217.192C401.385 217.149 401.513 217.107 401.641 217.064C402.111 217.021 402.644 217.043 403.241 217.128C403.839 217.213 404.244 217.512 404.457 218.024C404.713 218.664 404.671 219.219 404.329 219.688C403.988 220.157 403.369 220.627 402.473 221.096C403.028 222.461 403.583 223.805 404.137 225.128C404.692 226.408 405.268 227.667 405.865 228.904C405.908 229.117 405.972 229.459 406.057 229.928C406.143 230.355 406.185 230.803 406.185 231.272C406.228 231.699 406.207 232.104 406.121 232.488C406.036 232.872 405.865 233.128 405.609 233.256C405.311 233.384 404.991 233.363 404.649 233.192C404.351 233.021 404.052 232.808 403.753 232.552C403.455 232.253 403.177 231.955 402.921 231.656C402.708 231.315 402.537 231.016 402.409 230.76C401.684 229.352 400.98 227.944 400.297 226.536C399.657 225.085 399.039 223.635 398.441 222.184C396.649 222.525 394.687 222.824 392.553 223.08C390.463 223.336 388.393 223.507 386.345 223.592C385.876 225.213 385.407 226.813 384.937 228.392C384.511 229.928 384.105 231.485 383.721 233.064ZM392.809 206.184C390.847 210.579 389.14 214.973 387.689 219.368C390.548 219.283 393.599 218.92 396.841 218.28C395.305 214.397 393.961 210.365 392.809 206.184Z" fill="#0E5B54"/>
</g>
</svg>
