<svg width="650" height="650" viewBox="0 0 650 650" fill="none" xmlns="http://www.w3.org/2000/svg">
<path d="M271.95 92.8834C243.484 92.8834 199.06 74.7574 161.968 82.0941C161.968 36.3476 87.7846 85.1151 134.365 134.314V341.468V516.686C87.7846 565.885 161.968 614.652 161.968 568.906C199.06 576.243 243.484 558.117 271.95 558.117C300.416 558.117 306.885 603 325 603C343.115 603 349.584 558.117 378.05 558.117C406.516 558.117 450.94 576.243 488.032 568.906C488.032 614.652 562.215 565.885 515.635 516.686V341.468V134.314C562.215 85.1151 488.032 36.3476 488.032 82.0941C450.94 74.7574 406.516 92.8834 378.05 92.8834C349.584 92.8834 343.115 48 325 48C306.885 48 300.416 92.8834 271.95 92.8834Z" fill="#DA4457"/>
<path d="M271.95 77.8834C266.229 77.8834 259.198 76.9553 250.646 75.4061C245.785 74.5254 241.373 73.6353 236.718 72.696C232.502 71.8455 228.086 70.9546 222.955 69.9938C207.92 67.1782 190.841 64.5989 173.883 65.5501C173.192 63.9547 172.372 62.4159 171.408 60.9484C167.131 54.4396 160.761 50.5005 153.697 49.2612C140.757 46.9911 128.289 53.8605 120.134 61.9512C111.416 70.6012 104.602 83.3686 104.038 98.4034C103.521 112.18 108.296 126.51 119.365 139.978V341.468V511.022C108.296 524.49 103.521 538.82 104.038 552.597C104.602 567.631 111.416 580.399 120.134 589.049C128.289 597.14 140.757 604.009 153.697 601.739C160.761 600.5 167.131 596.56 171.408 590.052C172.372 588.584 173.192 587.045 173.883 585.45C190.841 586.401 207.92 583.822 222.955 581.006C228.086 580.045 232.502 579.154 236.718 578.304C241.374 577.365 245.785 576.475 250.646 575.594C259.198 574.045 266.229 573.117 271.95 573.117C277.25 573.117 281.934 576.901 289.855 588.847C290.493 589.81 291.176 590.862 291.896 591.972C294.743 596.36 298.169 601.64 301.672 605.736C306.069 610.877 313.692 618 325 618C336.308 618 343.931 610.877 348.328 605.736C351.831 601.64 355.257 596.36 358.104 591.972C358.824 590.862 359.507 589.81 360.145 588.847C368.066 576.901 372.75 573.117 378.05 573.117C383.771 573.117 390.802 574.045 399.354 575.594C404.215 576.475 408.626 577.365 413.282 578.304C417.498 579.154 421.914 580.045 427.045 581.006C442.08 583.822 459.159 586.401 476.117 585.45C476.808 587.045 477.628 588.584 478.592 590.052C482.869 596.56 489.239 600.5 496.303 601.739C509.243 604.009 521.711 597.14 529.866 589.049C538.584 580.399 545.398 567.631 545.962 552.597C546.479 538.82 541.704 524.49 530.635 511.022V341.468V139.978C541.704 126.51 546.479 112.18 545.962 98.4034C545.398 83.3686 538.584 70.6012 529.866 61.9512C521.711 53.8604 509.243 46.9911 496.303 49.2612C489.239 50.5005 482.869 54.4396 478.592 60.9484C477.628 62.4159 476.808 63.9547 476.117 65.5501C459.159 64.5989 442.08 67.1782 427.045 69.9938C421.914 70.9546 417.498 71.8455 413.282 72.6961C408.627 73.6353 404.215 74.5254 399.354 75.4061C390.802 76.9553 383.771 77.8834 378.05 77.8834C372.75 77.8834 368.066 74.0988 360.145 62.1525C359.507 61.1904 358.824 60.1377 358.104 59.0278C355.257 54.6402 351.831 49.3603 348.328 45.2637C343.931 40.123 336.308 33 325 33C313.692 33 306.069 40.123 301.672 45.2637C298.169 49.3603 294.743 54.6402 291.896 59.0279C291.176 60.1377 290.493 61.1905 289.855 62.1525C281.934 74.0988 277.25 77.8834 271.95 77.8834Z" stroke="black" stroke-opacity="0.9" stroke-width="30" stroke-linejoin="round"/>
<path d="M166 158C166 137.565 182.565 121 203 121H446C466.435 121 483 137.565 483 158V493C483 513.435 466.435 530 446 530H203C182.565 530 166 513.435 166 493V158Z" fill="white"/>
<mask id="mask0_63_1273" style="mask-type:alpha" maskUnits="userSpaceOnUse" x="166" y="121" width="317" height="409">
<path d="M166 158C166 137.565 182.565 121 203 121H446C466.435 121 483 137.565 483 158V493C483 513.435 466.435 530 446 530H203C182.565 530 166 513.435 166 493V158Z" fill="white"/>
</mask>
<g mask="url(#mask0_63_1273)">
<path d="M483 493V406V263.5C303.8 229.1 197 343.333 166 404.75V493C166 513.435 182.565 530 203 530H446C466.435 530 483 513.435 483 493Z" fill="#2AAA9E"/>
<path d="M296.5 293C283 393 296.5 442.5 320 532" stroke="#0E5B54" stroke-width="20"/>
</g>
<path d="M412.384 194C412.555 194.768 412.725 195.685 412.896 196.752C413.067 197.776 413.173 198.864 413.216 200.016C413.301 201.125 413.323 202.277 413.28 203.472C413.237 204.667 413.109 205.819 412.896 206.928C412.64 208.208 412.128 209.381 411.36 210.448C410.592 211.515 409.653 212.475 408.544 213.328C407.477 214.181 406.283 214.885 404.96 215.44C403.68 215.952 402.379 216.336 401.056 216.592C399.776 216.805 398.496 216.848 397.216 216.72C395.979 216.549 394.869 216.187 393.888 215.632C392.779 214.992 391.883 214.16 391.2 213.136C390.517 212.112 390.219 210.853 390.304 209.36C390.389 207.909 390.517 206.587 390.688 205.392C390.859 204.155 391.072 202.981 391.328 201.872C391.627 200.763 391.947 199.653 392.288 198.544C392.629 197.392 392.992 196.197 393.376 194.96C393.589 194.405 393.973 194.085 394.528 194C394.741 193.957 394.997 193.957 395.296 194C395.424 194 395.595 194.085 395.808 194.256C396.064 194.384 396.299 194.576 396.512 194.832C396.725 195.088 396.896 195.387 397.024 195.728C397.195 196.069 397.216 196.453 397.088 196.88C396.704 198.245 396.32 199.632 395.936 201.04C395.552 202.448 395.211 203.792 394.912 205.072C394.656 206.352 394.485 207.504 394.4 208.528C394.357 209.509 394.464 210.277 394.72 210.832C395.275 211.643 396.021 212.176 396.96 212.432C397.941 212.645 398.965 212.667 400.032 212.496C401.099 212.325 402.123 212.048 403.104 211.664C404.128 211.237 405.003 210.789 405.728 210.32C406.88 209.552 407.712 208.592 408.224 207.44C408.779 206.288 409.12 205.029 409.248 203.664C409.376 202.299 409.355 200.869 409.184 199.376C409.056 197.883 408.864 196.411 408.608 194.96C408.523 194.576 408.544 194.085 408.672 193.488C408.8 192.891 409.141 192.421 409.696 192.08C410.293 191.739 410.827 191.781 411.296 192.208C411.808 192.635 412.171 193.232 412.384 194Z" fill="#0E5B54"/>
<path fill-rule="evenodd" clip-rule="evenodd" d="M262.271 235.71C257.876 270.485 251.643 319.817 290.77 327.667C296.139 328.743 300.822 328.238 304.739 326.486C310.001 324.132 313.878 319.527 316.174 313.486C321.356 299.85 318.48 278.894 305.276 259.966C299.277 251.367 291.147 243.187 280.672 236.301C275.477 232.886 269.705 229.79 263.331 227.119C263.011 229.852 262.648 232.727 262.271 235.71Z" fill="#FF9F1C"/>
<path d="M339.999 248.068C327.564 248.509 315.209 252.741 305.276 259.966C318.48 278.895 321.355 299.85 316.174 313.486C340.575 294.262 344.373 268.216 339.999 248.068Z" fill="#FFC576"/>
<path d="M362.075 251.587C355.031 248.917 347.5 247.803 339.999 248.068C344.373 268.216 340.575 294.262 316.174 313.486C313.878 319.528 310 324.132 304.739 326.486C320.823 322.89 340.097 308.505 362.075 251.587Z" fill="#FFC576"/>
<path fill-rule="evenodd" clip-rule="evenodd" d="M304.739 326.486C300.822 328.238 296.139 328.744 290.77 327.667C295.113 327.679 299.774 327.597 304.739 326.486Z" fill="#FFC576"/>
<path fill-rule="evenodd" clip-rule="evenodd" d="M304.96 326.4C301.043 328.152 296.36 328.657 290.991 327.58C295.334 327.592 299.995 327.51 304.96 326.4Z" fill="#E48C13"/>
<path d="M321.203 217.723C305.71 212.13 290.199 220.235 280.893 236.215C291.368 243.1 299.498 251.281 305.497 259.88C315.43 252.655 327.786 248.423 340.22 247.982C336.844 232.43 328.599 220.393 321.203 217.723Z" fill="#E48C13"/>
</svg>
