<svg width="1219" height="2272" viewBox="0 0 1219 2272" fill="none" xmlns="http://www.w3.org/2000/svg">
<path opacity="0.9" d="M41 168.593V738.407C25.9829 742.74 15 756.588 15 773V774C15 790.412 25.9829 804.26 41 808.593V2099C41 2168.53 94.7569 2225.5 162.975 2230.62C164.334 2240.75 167.201 2251.17 172.118 2260.26C179.718 2274.32 193.187 2286.5 213.5 2286.5H252.5C272.813 2286.5 286.282 2274.32 293.882 2260.26C298.739 2251.28 301.595 2241.01 302.974 2231H937.026C938.405 2241.01 941.261 2251.28 946.118 2260.26C953.718 2274.32 967.187 2286.5 987.5 2286.5H1026.5C1046.81 2286.5 1060.28 2274.32 1067.88 2260.26C1072.75 2251.25 1075.61 2240.95 1076.99 2230.91C1147.58 2228.29 1204 2170.23 1204 2099V810V795V789V774V759V752V737V170V155V147V117C1204 110.311 1200.72 104.39 1195.67 100.758C1176.94 50.6643 1128.63 15 1072 15H173C117.794 15 70.5037 48.8901 50.7984 97.0006C31.0089 97.1091 15 113.185 15 133V134C15 150.412 25.9829 164.26 41 168.593Z" stroke="black" stroke-width="30"/>
<path d="M56 774H1189V2099C1189 2163.62 1136.62 2216 1072 2216H173C108.383 2216 56 2163.62 56 2099V774Z" fill="#D89B88"/>
<path d="M1189 147C1189 82.3827 1136.62 30 1072 30H173C108.383 30 56 82.3827 56 147V774H1189V147Z" fill="#D89B88"/>
<path d="M30 773C30 761.402 39.402 752 51 752H1189V795H51C39.4021 795 30 785.598 30 774V773Z" fill="#FFEEE4"/>
<path d="M30 133C30 121.402 39.402 112 51 112H1184C1186.76 112 1189 114.239 1189 117V155H51C39.4021 155 30 145.598 30 134V133Z" fill="#FFEEE4"/>
<path d="M383.555 597.954C354.517 583.978 195.876 570.438 156.14 597.954C156.14 597.954 154 600.575 154 608C154 615.425 156.14 618.046 156.14 618.046C195.876 645.562 354.517 632.022 383.555 618.046C383.555 618.046 386 614.988 386 608C386 601.012 383.555 597.954 383.555 597.954Z" fill="#FFEEE4"/>
<path d="M383.555 918.954C354.517 904.978 195.876 891.438 156.14 918.954C156.14 918.954 154 921.575 154 929C154 936.425 156.14 939.046 156.14 939.046C195.876 966.562 354.517 953.022 383.555 939.046C383.555 939.046 386 935.988 386 929C386 922.012 383.555 918.954 383.555 918.954Z" fill="#FFEEE4"/>
<path d="M213.5 2271.5C187 2271.5 177 2241 177 2216H289C289 2241 279 2271.5 252.5 2271.5H213.5Z" fill="#7E3E30"/>
<path d="M987.5 2271.5C961 2271.5 951 2241 951 2216H1063C1063 2241 1053 2271.5 1026.5 2271.5H987.5Z" fill="#7E3E30"/>
<rect x="722.253" y="905" width="293" height="221" transform="rotate(4.99781 722.253 905)" fill="#FFEEE4"/>
<path opacity="0.8" d="M879.944 1098.44L879.846 1099.56L874.836 1099.83L874.662 1098.51C876.057 1098.36 877.817 1098.34 879.944 1098.44ZM903.86 1092.63L909.511 1093.29C909.798 1093.32 910.162 1093.29 910.604 1093.2C911.063 1093.09 911.364 1093.05 911.507 1093.06C911.651 1093.07 911.758 1093.13 911.83 1093.23C911.918 1093.32 911.957 1093.43 911.946 1093.55C911.917 1093.89 911.74 1094.16 911.416 1094.38C911.094 1094.57 910.682 1094.7 910.179 1094.75C909.236 1094.88 908.407 1094.91 907.689 1094.84C906.658 1095.43 905.541 1097.27 904.338 1100.38C905.916 1100.52 906.894 1100.63 907.273 1100.71L907.127 1101.83C906.886 1101.83 906.527 1101.8 906.049 1101.76L903.879 1101.5C902.748 1104.15 901.355 1106.21 899.7 1107.69C898.045 1109.16 896.373 1109.83 894.683 1109.68C893.647 1109.59 892.838 1109.21 892.254 1108.53C891.671 1107.85 891.424 1107 891.514 1105.98C891.657 1104.34 892.768 1102.94 894.845 1101.77C896.924 1100.58 899.402 1100.08 902.278 1100.25C903.518 1097.27 904.827 1095.43 906.207 1094.71L902.37 1094.23C900.76 1094.09 899.539 1094.2 898.706 1094.54C897.888 1094.89 897.45 1095.4 897.39 1096.09C897.358 1096.45 897.482 1096.78 897.762 1097.06C898.044 1097.33 898.337 1097.47 898.64 1097.5C898.942 1097.52 899.166 1097.54 899.311 1097.53C899.473 1097.51 899.67 1097.48 899.9 1097.42C900.147 1097.34 900.32 1097.29 900.418 1097.27C900.763 1097.19 901.185 1097.05 901.684 1096.85L902.132 1097.51C900.814 1098.62 899.438 1099.11 898.004 1098.98C897.366 1098.93 896.858 1098.68 896.478 1098.25C896.098 1097.81 895.935 1097.29 895.988 1096.69C896.104 1095.37 896.879 1094.31 898.313 1093.52C899.747 1092.73 901.596 1092.43 903.86 1092.63ZM899.344 1105.7C900.321 1104.44 901.138 1103 901.793 1101.39C899.802 1101.37 898.002 1101.85 896.392 1102.82C894.797 1103.79 893.945 1104.9 893.835 1106.16C893.792 1106.65 893.923 1107.08 894.23 1107.42C894.553 1107.77 894.993 1107.97 895.551 1108.02C896.109 1108.07 896.736 1107.88 897.431 1107.46C898.125 1107.06 898.762 1106.47 899.344 1105.7ZM917.007 1106.31L917.522 1106.76C917.257 1107.22 916.803 1107.64 916.159 1108.02C915.532 1108.4 914.971 1108.56 914.477 1108.52C913.537 1108.44 913.11 1107.9 913.196 1106.91C913.237 1106.45 913.404 1105.91 913.699 1105.3L912.735 1106.13C911.798 1106.93 910.997 1107.45 910.333 1107.7C909.685 1107.95 909.058 1108.05 908.452 1107.99C907.846 1107.94 907.399 1107.73 907.109 1107.37C906.837 1106.99 906.727 1106.5 906.78 1105.9C906.878 1104.78 907.405 1103.72 908.36 1102.71C909.317 1101.68 910.495 1100.89 911.894 1100.32C913.292 1099.75 914.662 1099.52 916.002 1099.62L915.981 1100.41L914.958 1100.54C913.48 1100.73 912.141 1101.26 910.942 1102.12C909.758 1102.98 909.125 1103.88 909.041 1104.84C908.959 1105.78 909.3 1106.28 910.065 1106.35C910.782 1106.41 911.711 1105.99 912.851 1105.08C913.991 1104.16 914.97 1103.06 915.79 1101.77L916.742 1102.45C915.58 1104.36 914.975 1105.58 914.927 1106.13C914.908 1106.35 914.963 1106.55 915.092 1106.72C915.239 1106.88 915.384 1106.96 915.528 1106.97C915.687 1106.99 915.791 1106.99 915.841 1106.98C915.89 1106.96 915.939 1106.95 915.988 1106.94C916.039 1106.91 916.098 1106.88 916.166 1106.84C916.25 1106.8 916.318 1106.75 916.37 1106.71C916.438 1106.67 916.54 1106.6 916.676 1106.52C916.812 1106.44 916.922 1106.36 917.007 1106.31ZM923.575 1106.62L924.049 1107.26C923.596 1107.85 923.068 1108.29 922.463 1108.59C921.875 1108.89 921.293 1109.02 920.72 1108.97C920.146 1108.92 919.705 1108.72 919.399 1108.37C919.093 1108.01 918.966 1107.54 919.016 1106.97C919.133 1105.63 919.797 1103.82 921.007 1101.55C920.183 1101.61 919.353 1101.73 918.518 1101.91L918.432 1100.96L918.411 1100.94C919.237 1100.67 920.305 1100.49 921.614 1100.4C921.762 1100.17 922.1 1099.61 922.627 1098.73C923.68 1096.97 924.421 1095.84 924.851 1095.33L925.844 1095.83C925.654 1096.17 925.323 1096.73 924.852 1097.53C924.383 1098.3 923.856 1099.19 923.271 1100.18C923.992 1100.2 924.56 1100.22 924.975 1100.26C925.389 1100.3 925.702 1100.39 925.914 1100.53L925.824 1101.56C925.605 1101.49 925.281 1101.44 924.85 1101.4C924.436 1101.37 923.681 1101.37 922.584 1101.42C921.46 1103.44 920.856 1104.93 920.772 1105.89C920.74 1106.26 920.825 1106.57 921.027 1106.83C921.246 1107.09 921.546 1107.23 921.928 1107.27C922.327 1107.3 922.876 1107.09 923.575 1106.62ZM935.02 1108.56L935.53 1109.06C934.763 1110.12 933.845 1110.6 932.778 1110.51C931.853 1110.42 931.431 1109.93 931.51 1109.02C931.556 1108.5 931.852 1107.68 932.399 1106.57C932.963 1105.45 933.261 1104.7 933.293 1104.34C933.333 1103.87 933.059 1103.62 932.469 1103.56C931.879 1103.51 931.019 1104.08 929.887 1105.27C928.773 1106.44 927.8 1107.83 926.968 1109.44L925.601 1108.82C926.794 1104.73 929.449 1099.35 933.566 1092.67L934.704 1093.16C932.625 1096.54 931.112 1099.25 930.164 1101.27C929.178 1103.36 928.423 1105.11 927.901 1106.49C929.305 1104.57 930.48 1103.26 931.425 1102.56C932.386 1101.85 933.193 1101.53 933.846 1101.59C935.026 1101.69 935.579 1102.17 935.505 1103.01C935.459 1103.54 935.082 1104.45 934.373 1105.75C933.665 1107.06 933.292 1107.93 933.253 1108.38C933.214 1108.83 933.409 1109.07 933.84 1109.1C934.063 1109.12 934.456 1108.94 935.02 1108.56ZM942.923 1108.16L943.435 1108.64C942.881 1109.29 942.153 1109.8 941.252 1110.19C940.353 1110.56 939.496 1110.71 938.683 1110.64C937.87 1110.57 937.238 1110.27 936.786 1109.75C936.333 1109.23 936.141 1108.58 936.21 1107.79C936.338 1106.33 937.237 1104.95 938.907 1103.67C940.593 1102.39 942.233 1101.82 943.827 1101.96C944.879 1102.05 945.369 1102.51 945.296 1103.34C945.221 1104.2 944.587 1105.02 943.395 1105.8C942.218 1106.58 940.595 1107.24 938.524 1107.78C938.635 1108.16 938.833 1108.47 939.118 1108.7C939.403 1108.93 939.704 1109.06 940.023 1109.09C940.708 1109.15 941.675 1108.84 942.923 1108.16ZM938.467 1107.05C939.797 1106.72 940.953 1106.26 941.936 1105.67C942.92 1105.08 943.435 1104.51 943.484 1103.95C943.502 1103.74 943.439 1103.55 943.293 1103.38C943.148 1103.21 942.971 1103.11 942.764 1103.09C942.015 1103.03 941.161 1103.43 940.202 1104.29C939.261 1105.14 938.682 1106.06 938.467 1107.05ZM952.522 1103.32C952.921 1103.35 953.236 1103.52 953.467 1103.81C953.698 1104.1 953.795 1104.47 953.757 1104.9C953.682 1105.76 953.109 1106.62 952.037 1107.49L951.503 1106.99C951.769 1106.51 951.912 1106.16 951.931 1105.94C951.969 1105.51 951.749 1105.27 951.271 1105.23C950.792 1105.19 950.312 1105.45 949.828 1106.02C949.345 1106.59 948.753 1107.49 948.052 1108.71C947.368 1109.92 946.851 1110.77 946.502 1111.27L945.192 1110.56C946.243 1108.64 946.847 1107.51 947.005 1107.17C947.545 1105.97 947.898 1104.41 948.065 1102.49L949.435 1102.25C949.297 1103.29 949.155 1104.08 949.009 1104.65C948.864 1105.2 948.553 1106.1 948.075 1107.34C949.94 1104.56 951.422 1103.22 952.522 1103.32Z" fill="black"/>
<path opacity="0.8" d="M764.734 951.1C764.665 951.897 764.22 952.573 763.401 953.128C762.597 953.684 761.689 954.062 760.675 954.263C759.678 954.464 758.725 954.526 757.816 954.446C757.577 954.425 757.403 954.402 757.293 954.376L757.364 953.563C757.396 953.566 757.864 953.535 758.769 953.47C759.676 953.388 760.449 953.183 761.088 952.853C761.743 952.525 762.091 952.122 762.133 951.644C762.183 951.07 761.778 950.745 760.917 950.67C759.754 950.568 758.619 950.871 757.513 951.577C756.408 952.283 755.816 953.075 755.74 953.951C755.663 954.828 756.155 955.441 757.217 955.791C757.451 955.876 757.604 955.954 757.678 956.024C757.753 956.095 757.783 956.21 757.769 956.369C757.755 956.529 757.663 956.657 757.494 956.755C757.342 956.838 756.987 956.952 756.428 957.095C753.408 957.843 751.805 959.277 751.619 961.397C751.582 961.827 751.629 962.201 751.762 962.518C752.843 961.359 754.191 960.457 755.805 959.811C757.42 959.166 758.944 958.905 760.379 959.031C761.128 959.096 761.711 959.316 762.128 959.69C762.546 960.048 762.731 960.513 762.68 961.087C762.602 961.98 762.11 962.836 761.203 963.656C760.296 964.476 759.157 965.108 757.785 965.55C756.428 966.009 755.096 966.182 753.789 966.068C752.498 965.955 751.498 965.626 750.791 965.083C750.774 965.097 750.692 965.21 750.545 965.422C750.17 966.032 749.86 966.455 749.615 966.69L748.855 966.287C749.006 965.85 749.392 965.201 750.013 964.34C749.352 963.447 749.066 962.491 749.156 961.47C749.246 960.434 749.746 959.49 750.656 958.638C751.583 957.772 752.822 957.101 754.373 956.627C753.679 955.939 753.361 955.261 753.419 954.592C753.499 953.683 754.058 952.801 755.096 951.944C756.136 951.071 757.367 950.4 758.79 949.93C760.228 949.461 761.553 949.28 762.764 949.386C763.402 949.442 763.899 949.63 764.257 949.95C764.616 950.255 764.775 950.638 764.734 951.1ZM758.867 960.344C757.926 960.262 756.795 960.524 755.473 961.132C754.167 961.74 753.08 962.504 752.213 963.424C752.788 964.197 753.657 964.635 754.821 964.736C756 964.84 757.181 964.565 758.362 963.914C759.56 963.248 760.198 962.476 760.275 961.6C760.305 961.249 760.194 960.966 759.939 960.751C759.686 960.52 759.329 960.385 758.867 960.344ZM768.42 962.938L768.886 963.389C768.27 964.186 767.747 964.759 767.315 965.106C766.9 965.439 766.454 965.585 765.975 965.543C765.497 965.501 765.123 965.276 764.854 964.867C764.585 964.458 764.475 963.967 764.525 963.393C764.623 962.277 765.566 959.942 767.354 956.389C769.144 952.819 770.935 949.699 772.726 947.029L773.728 947.695C771.901 950.587 770.227 953.476 768.706 956.362C767.186 959.233 766.369 961.321 766.254 962.628C766.189 963.378 766.435 963.777 766.993 963.825C767.439 963.864 767.915 963.569 768.42 962.938ZM776.744 955.764C775.851 955.686 775.436 955.288 775.499 954.571C775.534 954.173 775.675 953.848 775.922 953.596C776.169 953.345 776.467 953.234 776.818 953.265C777.169 953.296 777.446 953.424 777.651 953.651C777.857 953.878 777.944 954.159 777.915 954.493C777.886 954.828 777.763 955.131 777.547 955.401C777.33 955.671 777.063 955.792 776.744 955.764ZM775.816 962.79L776.259 963.238C775.812 963.938 775.247 964.523 774.564 964.993C773.897 965.449 773.309 965.655 772.799 965.61C771.907 965.532 771.515 964.871 771.623 963.628C771.759 962.082 772.573 960.121 774.065 957.746C774.399 957.23 774.595 956.925 774.651 956.834L775.625 957.545C775.237 958.122 774.738 959.05 774.128 960.33C773.534 961.611 773.221 962.443 773.187 962.825C773.155 963.192 773.212 963.462 773.357 963.635C773.503 963.808 773.687 963.905 773.91 963.924C774.341 963.962 774.976 963.584 775.816 962.79ZM787.846 964.517L788.36 964.971C788.095 965.43 787.641 965.848 786.997 966.225C786.37 966.604 785.809 966.772 785.315 966.729C784.375 966.646 783.948 966.111 784.034 965.123C784.075 964.661 784.242 964.121 784.537 963.505L783.573 964.336C782.636 965.137 781.835 965.661 781.171 965.908C780.523 966.157 779.896 966.255 779.29 966.202C778.685 966.149 778.237 965.941 777.947 965.578C777.675 965.201 777.566 964.71 777.619 964.104C777.716 962.988 778.243 961.926 779.198 960.918C780.155 959.893 781.333 959.097 782.732 958.528C784.131 957.96 785.5 957.726 786.84 957.828L786.819 958.621L785.796 958.748C784.318 958.94 782.979 959.465 781.78 960.324C780.596 961.184 779.963 962.093 779.879 963.049C779.797 963.989 780.138 964.493 780.903 964.56C781.621 964.623 782.549 964.198 783.689 963.286C784.829 962.374 785.809 961.271 786.628 959.977L787.58 960.663C786.418 962.569 785.813 963.793 785.765 964.335C785.746 964.558 785.801 964.755 785.93 964.927C786.077 965.085 786.222 965.17 786.366 965.182C786.525 965.196 786.63 965.197 786.679 965.186C786.728 965.174 786.777 965.162 786.826 965.15C786.877 965.123 786.936 965.088 787.004 965.045C787.088 965.004 787.156 964.962 787.208 964.919C787.276 964.876 787.378 964.813 787.514 964.729C787.65 964.644 787.76 964.573 787.846 964.517ZM797.22 958.35L796.924 959.263C796.656 959.208 796.306 959.161 795.876 959.124C794.282 958.984 793.439 959.441 793.347 960.493C793.328 960.716 793.589 961.397 794.132 962.537C794.691 963.678 794.954 964.432 794.922 964.798C794.847 965.659 794.493 966.31 793.86 966.753C793.244 967.181 792.45 967.353 791.478 967.267C790.139 967.15 789.128 966.315 788.444 964.762L789.409 964.196C789.617 964.39 789.838 964.627 790.07 964.904C790.304 965.165 790.481 965.349 790.6 965.456C790.879 965.754 791.202 965.918 791.569 965.95C791.935 965.982 792.265 965.883 792.559 965.652C792.853 965.404 793.017 965.089 793.051 964.707C793.086 964.308 792.799 963.544 792.191 962.415C791.599 961.287 791.322 960.508 791.36 960.078C791.428 959.297 791.807 958.728 792.497 958.37C793.202 958.015 794.089 957.883 795.157 957.977C796.241 958.071 796.929 958.196 797.22 958.35ZM797.289 963.367C797.129 963.176 797.061 962.945 797.084 962.674C797.108 962.404 797.215 962.188 797.406 962.028C797.614 961.853 797.846 961.777 798.101 961.8C798.372 961.823 798.586 961.939 798.745 962.145C798.921 962.337 798.997 962.569 798.973 962.84C798.951 963.095 798.836 963.309 798.628 963.484C798.437 963.644 798.206 963.712 797.935 963.688C797.664 963.665 797.449 963.558 797.289 963.367ZM796.116 967.408C795.956 967.217 795.888 966.987 795.912 966.716C795.936 966.445 796.051 966.23 796.257 966.071C796.449 965.895 796.673 965.819 796.928 965.841C797.199 965.865 797.414 965.98 797.572 966.186C797.748 966.378 797.824 966.61 797.801 966.881C797.778 967.136 797.663 967.351 797.455 967.525C797.265 967.685 797.034 967.753 796.763 967.73C796.492 967.706 796.276 967.599 796.116 967.408ZM825.795 952.465L826.977 953.002L826.588 953.594C824.549 956.708 822.782 959.742 821.287 962.695C820.298 964.632 819.76 966.103 819.672 967.107C819.65 967.362 819.696 967.575 819.809 967.745C819.924 967.9 820.117 967.989 820.388 968.013C820.675 968.038 821.018 967.883 821.417 967.549L821.811 967.993C821.564 968.437 821.168 968.836 820.623 969.19C820.079 969.528 819.568 969.676 819.09 969.634C818.166 969.553 817.751 968.971 817.846 967.887C817.901 967.249 818.162 966.284 818.629 964.992C816.461 968.111 814.476 969.592 812.675 969.434C812.054 969.38 811.576 969.146 811.243 968.731C810.91 968.316 810.772 967.782 810.829 967.129C810.92 966.093 811.428 965.053 812.354 964.01C813.281 962.967 814.38 962.147 815.653 961.552C816.927 960.941 818.09 960.681 819.142 960.773L819.141 961.616C817.755 961.671 816.419 962.157 815.135 963.072C813.867 963.974 813.188 964.95 813.096 966.002C813.057 966.448 813.145 966.817 813.36 967.109C813.577 967.385 813.877 967.54 814.259 967.573C815.04 967.642 816.134 966.894 817.539 965.331C818.054 964.765 818.658 963.927 819.349 962.815C820.057 961.704 820.616 960.813 821.028 960.143C821.458 959.458 821.869 958.795 822.262 958.155C822.673 957.5 823.205 956.647 823.859 955.596C824.515 954.529 825.16 953.485 825.795 952.465ZM831.556 963.617C831.91 964.339 832.051 965.114 831.979 965.943C831.866 967.234 831.319 968.35 830.337 969.293C829.356 970.219 828.261 970.629 827.049 970.523C826.125 970.442 825.423 970.116 824.943 969.544C824.48 968.957 824.29 968.194 824.372 967.253C824.504 965.739 825.213 964.436 826.497 963.343C827.782 962.235 829.158 961.745 830.624 961.873C830.895 961.897 831.086 961.922 831.196 961.947L831.199 962.743C829.924 962.631 828.832 962.905 827.923 963.564C827.014 964.224 826.509 965.127 826.409 966.275C826.349 966.96 826.468 967.533 826.765 967.992C827.063 968.436 827.531 968.686 828.169 968.742C828.822 968.799 829.365 968.557 829.798 968.017C830.231 967.476 830.481 966.824 830.547 966.059C830.616 965.278 830.526 964.555 830.279 963.891L831.556 963.617ZM841.854 969.023L842.32 969.473C841.991 970.119 841.511 970.647 840.881 971.058C840.266 971.47 839.72 971.655 839.242 971.613C838.78 971.573 838.427 971.381 838.184 971.039C837.942 970.68 837.844 970.238 837.89 969.712C837.936 969.186 838.083 968.516 838.331 967.703C837.479 968.817 836.593 969.671 835.674 970.265C834.755 970.859 834 971.131 833.41 971.079C832.518 971.001 832.127 970.324 832.239 969.049C832.333 967.965 832.821 966.611 833.702 964.985C834.583 963.36 835.203 962.426 835.561 962.185L836.665 962.787C835.92 963.782 835.335 964.775 834.911 965.766C834.487 966.756 834.26 967.427 834.229 967.778C834.2 968.113 834.28 968.393 834.469 968.618C834.674 968.845 834.92 968.971 835.207 968.996C835.844 969.051 836.684 968.539 837.726 967.457C838.786 966.361 839.911 964.693 841.103 962.452L842.274 963.109C842.231 963.234 841.784 964.126 840.932 965.786C840.096 967.448 839.663 968.454 839.632 968.804C839.603 969.139 839.652 969.4 839.78 969.588C839.924 969.778 840.068 969.879 840.212 969.891C840.371 969.905 840.491 969.907 840.572 969.899C840.653 969.89 840.736 969.865 840.82 969.824C840.904 969.783 840.971 969.749 841.022 969.721C841.088 969.695 841.165 969.645 841.251 969.572L841.457 969.422C841.493 969.377 841.555 969.31 841.643 969.221C841.749 969.118 841.819 969.052 841.854 969.023ZM847.349 965.528C848.183 964.814 848.899 964.339 849.498 964.102C850.114 963.851 850.677 963.747 851.187 963.792C851.713 963.838 852.127 964.059 852.43 964.455C852.75 964.836 852.885 965.314 852.835 965.888C852.705 967.37 851.947 968.878 850.56 970.411C849.175 971.928 847.765 972.623 846.33 972.498C845.9 972.46 845.5 972.345 845.132 972.152L845.797 971.15C846.047 971.237 846.243 971.286 846.387 971.298C847.359 971.383 848.291 970.919 849.183 969.905C850.075 968.89 850.566 967.857 850.658 966.805C850.688 966.471 850.6 966.19 850.395 965.963C850.207 965.722 849.946 965.587 849.611 965.557C848.878 965.493 847.966 966.008 846.874 967.101C845.799 968.195 844.812 969.659 843.913 971.492L842.506 970.766C843.198 968.369 844.414 965.48 846.155 962.099C847.897 958.718 849.309 956.344 850.392 954.977L851.574 955.514C850.35 957.383 849.014 959.715 847.565 962.512C846.132 965.309 845.266 967.217 844.968 968.235C845.722 967.145 846.516 966.242 847.349 965.528ZM856.793 970.667L857.26 971.117C856.644 971.914 856.12 972.487 855.688 972.835C855.274 973.168 854.827 973.313 854.349 973.272C853.871 973.23 853.497 973.004 853.228 972.595C852.958 972.186 852.849 971.695 852.899 971.121C852.997 970.005 853.94 967.671 855.728 964.117C857.518 960.547 859.308 957.427 861.1 954.757L862.102 955.423C860.275 958.315 858.601 961.204 857.079 964.09C855.559 966.961 854.742 969.05 854.628 970.357C854.563 971.106 854.809 971.505 855.367 971.554C855.813 971.593 856.289 971.297 856.793 970.667ZM866.295 970.967L866.807 971.446C866.253 972.088 865.526 972.603 864.624 972.99C863.725 973.361 862.868 973.511 862.055 973.44C861.243 973.368 860.61 973.072 860.158 972.551C859.705 972.029 859.513 971.378 859.582 970.597C859.71 969.131 860.609 967.756 862.279 966.473C863.965 965.191 865.605 964.619 867.199 964.759C868.251 964.851 868.741 965.311 868.668 966.14C868.593 967.001 867.959 967.82 866.767 968.6C865.591 969.38 863.967 970.041 861.896 970.583C862.007 970.962 862.205 971.268 862.49 971.502C862.775 971.736 863.076 971.866 863.395 971.894C864.08 971.954 865.047 971.645 866.295 970.967ZM861.839 969.855C863.169 969.522 864.326 969.061 865.309 968.472C866.292 967.883 866.807 967.31 866.856 966.752C866.874 966.545 866.811 966.355 866.665 966.182C866.52 966.008 866.343 965.912 866.136 965.894C865.387 965.829 864.533 966.228 863.574 967.092C862.633 967.941 862.054 968.862 861.839 969.855ZM873.758 967.404L873.66 968.528L868.65 968.788L868.476 967.472C869.871 967.321 871.631 967.298 873.758 967.404ZM880.092 971.596L880.624 972.124C880.165 972.967 879.49 973.615 878.599 974.067C877.708 974.519 876.865 974.71 876.068 974.641C875.287 974.573 874.655 974.268 874.172 973.728C873.705 973.189 873.509 972.49 873.585 971.629C873.66 970.768 874.116 969.869 874.953 968.93C875.79 967.991 876.827 967.247 878.063 966.696C879.316 966.147 880.516 965.923 881.664 966.024C881.823 966.037 882.061 966.074 882.377 966.134L882.223 967.06C880.463 966.987 878.958 967.393 877.708 968.28C876.474 969.167 875.808 970.169 875.711 971.285C875.67 971.747 875.781 972.134 876.043 972.446C876.305 972.758 876.667 972.934 877.129 972.975C877.862 973.039 878.85 972.579 880.092 971.596ZM885.979 973.219L886.445 973.669C885.83 974.467 885.306 975.039 884.874 975.387C884.459 975.72 884.013 975.866 883.535 975.824C883.056 975.782 882.683 975.557 882.413 975.148C882.144 974.739 882.034 974.247 882.084 973.673C882.182 972.558 883.125 970.223 884.913 966.669C886.703 963.099 888.494 959.98 890.285 957.31L891.287 957.975C889.46 960.867 887.786 963.756 886.265 966.643C884.745 969.513 883.928 971.602 883.814 972.909C883.748 973.658 883.994 974.057 884.552 974.106C884.998 974.145 885.474 973.849 885.979 973.219ZM894.303 966.045C893.411 965.967 892.996 965.569 893.058 964.852C893.093 964.453 893.234 964.128 893.481 963.877C893.728 963.625 894.026 963.515 894.377 963.546C894.728 963.576 895.006 963.705 895.211 963.932C895.416 964.158 895.504 964.439 895.474 964.774C895.445 965.109 895.322 965.411 895.106 965.681C894.889 965.951 894.622 966.073 894.303 966.045ZM893.375 973.071L893.818 973.519C893.371 974.219 892.806 974.804 892.123 975.274C891.457 975.73 890.868 975.935 890.358 975.891C889.466 975.812 889.074 975.152 889.183 973.909C889.318 972.362 890.132 970.402 891.624 968.027C891.959 967.51 892.154 967.206 892.21 967.114L893.184 967.826C892.796 968.402 892.297 969.33 891.687 970.61C891.094 971.891 890.78 972.723 890.746 973.106C890.714 973.472 890.771 973.742 890.917 973.916C891.062 974.089 891.246 974.185 891.469 974.205C891.9 974.243 892.535 973.864 893.375 973.071ZM901.713 973.487L902.245 974.015C901.786 974.858 901.111 975.506 900.22 975.958C899.329 976.41 898.485 976.601 897.688 976.532C896.907 976.463 896.275 976.159 895.793 975.619C895.326 975.08 895.13 974.38 895.205 973.52C895.28 972.659 895.737 971.759 896.574 970.821C897.41 969.882 898.447 969.138 899.684 968.587C900.937 968.038 902.137 967.814 903.284 967.914C903.444 967.928 903.681 967.965 903.997 968.025L903.844 968.951C902.084 968.877 900.579 969.284 899.329 970.17C898.095 971.058 897.429 972.06 897.331 973.176C897.291 973.638 897.402 974.025 897.663 974.337C897.925 974.649 898.287 974.825 898.749 974.866C899.483 974.93 900.47 974.47 901.713 973.487ZM913.541 975.485L914.093 976.063C913.036 977.496 911.99 978.168 910.954 978.077C910.316 978.021 909.704 977.494 909.117 976.495C908.529 975.496 908.262 974.694 908.315 974.088C908.349 973.705 908.956 973.373 910.137 973.091C910.58 972.985 910.989 972.804 911.365 972.548C911.758 972.277 911.969 971.982 911.996 971.664C912.024 971.345 911.958 971.098 911.796 970.923C911.636 970.733 911.421 970.625 911.15 970.602C909.382 970.608 907.343 972.806 905.032 977.198L903.617 976.568C903.677 975.883 904.844 973.19 907.118 968.49C909.408 963.792 910.988 960.967 911.859 960.015L912.993 960.548C910.513 964.106 908.332 968.299 906.448 973.13C907.854 971.374 909.031 970.224 909.977 969.68C910.924 969.137 911.804 968.9 912.617 968.971C913.111 969.015 913.489 969.2 913.749 969.528C914.025 969.857 914.143 970.261 914.101 970.739C914.06 971.202 913.904 971.614 913.631 971.975C913.375 972.338 913.019 972.644 912.563 972.894C911.906 973.254 911.105 973.593 910.162 973.912C910.239 974.674 910.437 975.261 910.754 975.675C911.071 976.088 911.453 976.314 911.899 976.353C912.139 976.374 912.686 976.084 913.541 975.485ZM936.458 977.513L936.972 977.967C936.707 978.426 936.253 978.844 935.61 979.221C934.983 979.6 934.422 979.768 933.928 979.725C932.987 979.643 932.56 979.107 932.647 978.119C932.687 977.657 932.855 977.117 933.15 976.501L932.186 977.332C931.248 978.133 930.447 978.658 929.783 978.905C929.135 979.153 928.508 979.251 927.903 979.198C927.297 979.145 926.849 978.937 926.56 978.575C926.288 978.197 926.178 977.706 926.231 977.1C926.329 975.985 926.855 974.922 927.811 973.914C928.768 972.889 929.945 972.093 931.344 971.525C932.743 970.956 934.113 970.723 935.453 970.824L935.432 971.617L934.409 971.744C932.93 971.936 931.592 972.462 930.392 973.32C929.209 974.181 928.575 975.089 928.492 976.045C928.409 976.986 928.751 977.489 929.516 977.556C930.233 977.619 931.162 977.194 932.301 976.282C933.441 975.37 934.421 974.267 935.241 972.973L936.193 973.659C935.03 975.565 934.425 976.789 934.378 977.331C934.358 977.554 934.413 977.752 934.543 977.924C934.69 978.081 934.835 978.166 934.978 978.178C935.138 978.192 935.242 978.193 935.291 978.182C935.341 978.17 935.39 978.158 935.439 978.146C935.49 978.119 935.549 978.084 935.617 978.042C935.701 978.001 935.769 977.958 935.821 977.915C935.889 977.873 935.99 977.809 936.126 977.725C936.262 977.64 936.373 977.57 936.458 977.513ZM947.468 977.994L947.937 978.42C947.525 979.091 946.987 979.638 946.323 980.062C945.676 980.487 945.105 980.678 944.611 980.635C944.117 980.592 943.739 980.414 943.477 980.102C943.215 979.79 943.103 979.419 943.141 978.989C943.179 978.558 943.515 977.833 944.15 976.812C944.803 975.777 945.152 975.005 945.196 974.495C945.216 974.271 945.138 974.064 944.962 973.872C944.803 973.665 944.596 973.551 944.341 973.528C943.528 973.457 942.653 974.007 941.715 975.178C940.779 976.333 939.699 978.029 938.476 980.267L937.085 979.64C937.55 977.817 938.138 976.054 938.849 974.349C939.577 972.63 940.214 971.409 940.759 970.686L941.712 971.082C941.167 972.175 940.43 974.078 939.502 976.791C942.031 973.222 944.22 971.518 946.069 971.68C946.467 971.715 946.782 971.879 947.013 972.172C947.261 972.467 947.368 972.797 947.336 973.164C947.304 973.531 947.227 973.861 947.105 974.156C946.984 974.434 946.622 975.093 946.017 976.132C945.429 977.157 945.124 977.805 945.1 978.076C945.076 978.347 945.137 978.569 945.283 978.742C945.429 978.9 945.574 978.985 945.718 978.997C945.861 979.01 945.983 978.996 946.083 978.957C946.183 978.917 946.293 978.855 946.412 978.769C946.548 978.684 946.668 978.606 946.77 978.535C946.873 978.464 946.993 978.37 947.132 978.254C947.288 978.123 947.4 978.036 947.468 977.994ZM751.646 983.684C750.753 983.606 750.338 983.208 750.401 982.491C750.436 982.092 750.577 981.767 750.824 981.516C751.07 981.265 751.369 981.154 751.72 981.185C752.071 981.215 752.348 981.344 752.553 981.571C752.758 981.798 752.846 982.078 752.817 982.413C752.788 982.748 752.665 983.05 752.449 983.32C752.232 983.591 751.965 983.712 751.646 983.684ZM750.718 990.71L751.161 991.158C750.714 991.858 750.149 992.443 749.466 992.913C748.799 993.369 748.211 993.574 747.701 993.53C746.809 993.452 746.417 992.791 746.525 991.548C746.661 990.002 747.474 988.041 748.967 985.666C749.301 985.149 749.497 984.845 749.553 984.754L750.526 985.465C750.139 986.042 749.64 986.97 749.03 988.249C748.436 989.53 748.123 990.362 748.089 990.745C748.057 991.111 748.114 991.381 748.259 991.555C748.405 991.728 748.589 991.825 748.812 991.844C749.243 991.882 749.878 991.504 750.718 990.71ZM762.55 991.937L763.019 992.364C762.607 993.034 762.069 993.582 761.406 994.005C760.758 994.431 760.187 994.622 759.693 994.578C759.199 994.535 758.821 994.358 758.559 994.046C758.298 993.734 758.185 993.362 758.223 992.932C758.261 992.502 758.597 991.776 759.233 990.756C759.885 989.721 760.234 988.948 760.278 988.438C760.298 988.215 760.22 988.007 760.044 987.815C759.885 987.609 759.678 987.494 759.423 987.472C758.61 987.401 757.735 987.951 756.798 989.121C755.862 990.276 754.782 991.973 753.558 994.21L752.167 993.583C752.632 991.76 753.22 989.997 753.931 988.292C754.66 986.573 755.296 985.352 755.841 984.629L756.794 985.025C756.249 986.118 755.513 988.021 754.585 990.735C757.113 987.165 759.302 985.462 761.151 985.623C761.549 985.658 761.864 985.822 762.096 986.115C762.343 986.41 762.451 986.741 762.419 987.107C762.386 987.474 762.309 987.804 762.187 988.099C762.067 988.378 761.704 989.036 761.099 990.076C760.511 991.1 760.206 991.748 760.182 992.019C760.158 992.29 760.219 992.512 760.365 992.686C760.512 992.843 760.657 992.928 760.8 992.941C760.944 992.953 761.065 992.94 761.165 992.9C761.265 992.861 761.375 992.798 761.495 992.712C761.631 992.628 761.75 992.55 761.852 992.478C761.955 992.407 762.076 992.313 762.214 992.197C762.37 992.066 762.482 991.979 762.55 991.937ZM773.75 994.964L773.724 995.54C773.556 995.622 772.806 995.845 771.473 996.211C770.696 999.211 769.755 1001.34 768.648 1002.61C767.541 1003.88 766.271 1004.45 764.836 1004.33C764.167 1004.27 763.652 1004.01 763.291 1003.54C762.93 1003.08 762.78 1002.5 762.84 1001.82C762.959 1000.45 763.701 999.217 765.065 998.132C766.427 997.062 768.19 996.277 770.354 995.776C770.687 994.729 771.249 993.26 772.041 991.37C770.83 992.902 769.762 993.917 768.835 994.414C767.924 994.913 767.118 995.131 766.417 995.07C765.716 995.009 765.198 994.771 764.865 994.356C764.548 993.943 764.417 993.417 764.473 992.78C764.565 991.728 765.097 990.698 766.068 989.691C767.041 988.668 768.219 987.872 769.602 987.302C771.002 986.718 772.324 986.48 773.567 986.589L773.685 987.442C771.899 987.479 770.322 987.967 768.955 988.908C767.604 989.85 766.886 990.807 766.801 991.779C766.765 992.193 766.862 992.547 767.094 992.84C767.325 993.134 767.624 993.296 767.991 993.328C768.532 993.376 769.404 992.874 770.604 991.822C771.804 990.771 772.663 989.858 773.18 989.084L774.021 989.664C772.939 991.93 772.161 993.854 771.685 995.434L773.75 994.964ZM770.148 996.48C768.706 996.997 767.491 997.661 766.505 998.475C765.518 999.288 764.993 1000.06 764.929 1000.79C764.895 1001.18 764.979 1001.5 765.182 1001.76C765.384 1002.01 765.652 1002.16 765.987 1002.19C766.657 1002.25 767.359 1001.83 768.095 1000.95C768.831 1000.07 769.515 998.577 770.148 996.48ZM781.545 987.985C781.943 988.02 782.258 988.184 782.49 988.477C782.721 988.77 782.818 989.132 782.78 989.563C782.705 990.423 782.131 991.289 781.059 992.159L780.525 991.654C780.792 991.179 780.935 990.831 780.954 990.607C780.992 990.177 780.771 989.941 780.293 989.899C779.815 989.857 779.334 990.12 778.851 990.689C778.368 991.257 777.775 992.152 777.074 993.376C776.39 994.585 775.874 995.439 775.525 995.939L774.214 995.222C775.265 993.306 775.87 992.178 776.028 991.839C776.567 990.633 776.92 989.074 777.088 987.161L778.458 986.92C778.319 987.952 778.177 988.75 778.032 989.316C777.887 989.865 777.576 990.762 777.098 992.005C778.963 989.229 780.445 987.889 781.545 987.985ZM789.55 994.371L790.062 994.849C789.508 995.491 788.781 996.006 787.88 996.393C786.98 996.764 786.124 996.914 785.311 996.843C784.498 996.772 783.865 996.475 783.413 995.954C782.961 995.433 782.769 994.781 782.837 994C782.965 992.534 783.864 991.159 785.535 989.876C787.221 988.594 788.861 988.022 790.455 988.162C791.507 988.254 791.996 988.714 791.924 989.543C791.849 990.404 791.215 991.224 790.022 992.003C788.846 992.783 787.222 993.444 785.151 993.986C785.262 994.365 785.46 994.671 785.745 994.905C786.03 995.139 786.332 995.27 786.65 995.298C787.336 995.357 788.302 995.048 789.55 994.371ZM785.094 993.258C786.424 992.925 787.581 992.464 788.564 991.875C789.547 991.287 790.063 990.713 790.112 990.155C790.13 989.948 790.066 989.758 789.921 989.585C789.775 989.411 789.599 989.316 789.392 989.298C788.642 989.232 787.788 989.631 786.83 990.495C785.888 991.344 785.31 992.265 785.094 993.258ZM806.745 980.913L807.926 981.45L807.537 982.043C805.498 985.157 803.731 988.191 802.236 991.144C801.248 993.081 800.71 994.551 800.622 995.556C800.599 995.811 800.645 996.023 800.759 996.194C800.874 996.349 801.067 996.438 801.338 996.461C801.624 996.487 801.967 996.332 802.366 995.997L802.761 996.441C802.513 996.885 802.117 997.284 801.572 997.638C801.028 997.976 800.518 998.124 800.039 998.083C799.115 998.002 798.7 997.419 798.795 996.335C798.851 995.698 799.112 994.733 799.578 993.441C797.41 996.56 795.425 998.04 793.624 997.883C793.003 997.829 792.525 997.594 792.192 997.179C791.859 996.765 791.721 996.231 791.778 995.577C791.869 994.541 792.377 993.502 793.304 992.458C794.23 991.415 795.33 990.596 796.602 990C797.876 989.389 799.04 989.129 800.092 989.221L800.09 990.064C798.704 990.12 797.369 990.605 796.084 991.521C794.817 992.422 794.137 993.399 794.045 994.45C794.006 994.897 794.094 995.266 794.31 995.558C794.526 995.834 794.826 995.988 795.209 996.022C795.99 996.09 797.083 995.343 798.488 993.779C799.004 993.214 799.607 992.375 800.298 991.263C801.006 990.153 801.566 989.262 801.978 988.591C802.407 987.906 802.818 987.243 803.211 986.603C803.622 985.949 804.154 985.096 804.808 984.045C805.464 982.978 806.109 981.934 806.745 980.913ZM810.834 988.86C809.941 988.782 809.527 988.384 809.589 987.667C809.624 987.268 809.765 986.943 810.012 986.692C810.259 986.441 810.557 986.33 810.908 986.361C811.259 986.391 811.537 986.52 811.742 986.747C811.947 986.974 812.035 987.254 812.005 987.589C811.976 987.924 811.853 988.226 811.637 988.496C811.42 988.767 811.153 988.888 810.834 988.86ZM809.906 995.886L810.349 996.334C809.902 997.034 809.337 997.619 808.654 998.089C807.988 998.545 807.399 998.75 806.889 998.706C805.997 998.628 805.605 997.967 805.714 996.724C805.849 995.178 806.663 993.217 808.155 990.842C808.49 990.325 808.685 990.021 808.741 989.93L809.715 990.641C809.327 991.218 808.828 992.146 808.218 993.425C807.625 994.706 807.311 995.538 807.277 995.921C807.245 996.287 807.302 996.557 807.448 996.731C807.593 996.904 807.777 997.001 808 997.02C808.431 997.058 809.066 996.68 809.906 995.886ZM818.409 996.894L818.921 997.373C818.367 998.015 817.639 998.529 816.738 998.916C815.839 999.287 814.982 999.437 814.169 999.366C813.356 999.295 812.724 998.999 812.272 998.478C811.819 997.956 811.627 997.305 811.696 996.524C811.824 995.058 812.723 993.683 814.393 992.399C816.079 991.117 817.719 990.546 819.313 990.685C820.365 990.777 820.855 991.238 820.782 992.067C820.707 992.927 820.073 993.747 818.881 994.526C817.704 995.307 816.081 995.968 814.01 996.51C814.121 996.889 814.319 997.195 814.604 997.429C814.889 997.663 815.19 997.793 815.509 997.821C816.194 997.881 817.161 997.572 818.409 996.894ZM813.953 995.782C815.283 995.448 816.439 994.987 817.422 994.399C818.405 993.81 818.921 993.237 818.97 992.679C818.988 992.472 818.925 992.282 818.779 992.108C818.634 991.935 818.457 991.839 818.25 991.821C817.501 991.756 816.647 992.155 815.688 993.019C814.747 993.868 814.168 994.789 813.953 995.782ZM830.844 997.91L831.313 998.336C830.901 999.007 830.363 999.554 829.7 999.978C829.052 1000.4 828.481 1000.59 827.987 1000.55C827.493 1000.51 827.115 1000.33 826.853 1000.02C826.592 999.706 826.48 999.335 826.517 998.904C826.555 998.474 826.891 997.749 827.527 996.728C828.179 995.693 828.528 994.92 828.572 994.41C828.592 994.187 828.514 993.98 828.338 993.787C828.179 993.581 827.972 993.466 827.717 993.444C826.905 993.373 826.029 993.923 825.092 995.094C824.156 996.248 823.076 997.945 821.852 1000.18L820.461 999.555C820.926 997.733 821.514 995.969 822.225 994.265C822.954 992.546 823.59 991.325 824.135 990.601L825.089 990.998C824.543 992.09 823.807 993.994 822.879 996.707C825.407 993.138 827.596 991.434 829.445 991.596C829.844 991.63 830.158 991.795 830.39 992.088C830.637 992.382 830.745 992.713 830.713 993.08C830.68 993.446 830.603 993.777 830.481 994.071C830.361 994.35 829.998 995.009 829.393 996.048C828.805 997.073 828.5 997.721 828.476 997.992C828.452 998.262 828.513 998.485 828.659 998.658C828.806 998.815 828.951 998.9 829.094 998.913C829.238 998.925 829.359 998.912 829.459 998.873C829.559 998.833 829.669 998.77 829.789 998.685C829.925 998.6 830.044 998.522 830.146 998.451C830.249 998.379 830.37 998.286 830.508 998.169C830.664 998.038 830.776 997.952 830.844 997.91ZM837.493 998.708L837.967 999.351C837.514 999.938 836.985 1000.38 836.381 1000.68C835.792 1000.98 835.211 1001.11 834.637 1001.06C834.063 1001.01 833.623 1000.81 833.316 1000.46C833.011 1000.1 832.883 999.63 832.933 999.056C833.05 997.717 833.714 995.912 834.924 993.641C834.1 993.697 833.271 993.817 832.436 994.001L832.35 993.054L832.328 993.028C833.154 992.763 834.222 992.584 835.531 992.489C835.68 992.261 836.017 991.705 836.544 990.819C837.597 989.064 838.339 987.932 838.769 987.424L839.761 987.92C839.571 988.257 839.241 988.822 838.77 989.616C838.3 990.394 837.773 991.28 837.188 992.273C837.91 992.288 838.478 992.313 838.892 992.349C839.306 992.386 839.62 992.477 839.832 992.624L839.742 993.652C839.523 993.585 839.198 993.533 838.768 993.495C838.353 993.459 837.598 993.465 836.502 993.514C835.377 995.535 834.773 997.024 834.69 997.981C834.657 998.347 834.743 998.66 834.945 998.919C835.163 999.179 835.463 999.325 835.846 999.359C836.244 999.394 836.793 999.177 837.493 998.708ZM861.511 1001.07L862.026 1001.53C861.761 1001.99 861.306 1002.4 860.663 1002.78C860.036 1003.16 859.475 1003.33 858.981 1003.29C858.04 1003.2 857.613 1002.67 857.7 1001.68C857.74 1001.22 857.908 1000.68 858.203 1000.06L857.239 1000.89C856.301 1001.69 855.501 1002.22 854.837 1002.46C854.188 1002.71 853.562 1002.81 852.956 1002.76C852.35 1002.71 851.903 1002.5 851.613 1002.13C851.341 1001.76 851.231 1001.27 851.284 1000.66C851.382 999.545 851.908 998.483 852.864 997.474C853.821 996.45 854.999 995.653 856.397 995.085C857.796 994.517 859.166 994.283 860.506 994.384L860.485 995.177L859.462 995.305C857.984 995.497 856.645 996.022 855.445 996.881C854.262 997.741 853.628 998.649 853.545 999.606C853.463 1000.55 853.804 1001.05 854.569 1001.12C855.286 1001.18 856.215 1000.75 857.355 999.842C858.494 998.93 859.474 997.827 860.294 996.534L861.246 997.219C860.083 999.125 859.479 1000.35 859.431 1000.89C859.412 1001.11 859.467 1001.31 859.596 1001.48C859.743 1001.64 859.888 1001.73 860.032 1001.74C860.191 1001.75 860.295 1001.75 860.345 1001.74C860.394 1001.73 860.443 1001.72 860.492 1001.71C860.543 1001.68 860.602 1001.64 860.67 1001.6C860.754 1001.56 860.822 1001.52 860.874 1001.48C860.942 1001.43 861.044 1001.37 861.179 1001.29C861.315 1001.2 861.426 1001.13 861.511 1001.07ZM872.521 1001.55L872.99 1001.98C872.578 1002.65 872.04 1003.2 871.377 1003.62C870.729 1004.05 870.158 1004.24 869.664 1004.2C869.17 1004.15 868.792 1003.97 868.53 1003.66C868.269 1003.35 868.156 1002.98 868.194 1002.55C868.232 1002.12 868.568 1001.39 869.203 1000.37C869.856 999.338 870.205 998.565 870.249 998.055C870.269 997.832 870.191 997.624 870.015 997.432C869.856 997.226 869.649 997.111 869.394 997.089C868.581 997.018 867.706 997.568 866.769 998.738C865.832 999.893 864.753 1001.59 863.529 1003.83L862.138 1003.2C862.603 1001.38 863.191 999.614 863.902 997.909C864.63 996.19 865.267 994.969 865.812 994.246L866.765 994.642C866.22 995.735 865.484 997.638 864.556 1000.35C867.084 996.782 869.273 995.079 871.122 995.24C871.52 995.275 871.835 995.439 872.067 995.732C872.314 996.027 872.421 996.358 872.389 996.724C872.357 997.091 872.28 997.421 872.158 997.716C872.037 997.994 871.675 998.653 871.07 999.693C870.482 1000.72 870.177 1001.37 870.153 1001.64C870.129 1001.91 870.19 1002.13 870.336 1002.3C870.483 1002.46 870.628 1002.54 870.771 1002.56C870.915 1002.57 871.036 1002.56 871.136 1002.52C871.236 1002.48 871.346 1002.42 871.466 1002.33C871.602 1002.24 871.721 1002.17 871.823 1002.1C871.926 1002.02 872.047 1001.93 872.185 1001.81C872.341 1001.68 872.453 1001.6 872.521 1001.55ZM888.371 988.052L889.552 988.589L889.163 989.181C887.124 992.295 885.357 995.329 883.862 998.282C882.874 1000.22 882.335 1001.69 882.248 1002.69C882.225 1002.95 882.271 1003.16 882.385 1003.33C882.5 1003.49 882.693 1003.58 882.963 1003.6C883.25 1003.62 883.593 1003.47 883.992 1003.14L884.387 1003.58C884.139 1004.02 883.743 1004.42 883.198 1004.78C882.654 1005.11 882.143 1005.26 881.665 1005.22C880.741 1005.14 880.326 1004.56 880.421 1003.47C880.477 1002.84 880.738 1001.87 881.204 1000.58C879.036 1003.7 877.051 1005.18 875.25 1005.02C874.629 1004.97 874.151 1004.73 873.818 1004.32C873.485 1003.9 873.347 1003.37 873.404 1002.72C873.495 1001.68 874.003 1000.64 874.93 999.597C875.856 998.553 876.956 997.734 878.228 997.139C879.502 996.527 880.665 996.268 881.717 996.36L881.716 997.203C880.33 997.258 878.995 997.744 877.71 998.659C876.443 999.56 875.763 1000.54 875.671 1001.59C875.632 1002.03 875.72 1002.4 875.935 1002.7C876.152 1002.97 876.452 1003.13 876.834 1003.16C877.615 1003.23 878.709 1002.48 880.114 1000.92C880.63 1000.35 881.233 999.513 881.924 998.401C882.632 997.291 883.192 996.4 883.604 995.729C884.033 995.044 884.444 994.382 884.837 993.741C885.248 993.087 885.78 992.234 886.434 991.183C887.09 990.116 887.735 989.072 888.371 988.052ZM904.96 1003.88L905.492 1004.41C905.033 1005.26 904.358 1005.9 903.467 1006.36C902.576 1006.81 901.732 1007 900.935 1006.93C900.154 1006.86 899.522 1006.56 899.039 1006.02C898.573 1005.48 898.377 1004.78 898.452 1003.92C898.527 1003.06 898.984 1002.16 899.82 1001.22C900.657 1000.28 901.694 999.536 902.931 998.986C904.183 998.437 905.384 998.212 906.531 998.313C906.691 998.327 906.928 998.363 907.244 998.423L907.091 999.349C905.331 999.276 903.826 999.682 902.576 1000.57C901.342 1001.46 900.676 1002.46 900.578 1003.57C900.538 1004.04 900.648 1004.42 900.91 1004.74C901.172 1005.05 901.534 1005.22 901.996 1005.26C902.73 1005.33 903.717 1004.87 904.96 1003.88ZM916.297 1006.54L916.807 1007.04C916.04 1008.1 915.123 1008.58 914.055 1008.49C913.131 1008.41 912.708 1007.91 912.788 1007C912.834 1006.48 913.13 1005.66 913.677 1004.55C914.24 1003.43 914.539 1002.68 914.571 1002.32C914.611 1001.85 914.336 1001.6 913.747 1001.55C913.157 1001.49 912.296 1002.06 911.165 1003.25C910.05 1004.42 909.077 1005.81 908.246 1007.42L906.879 1006.8C908.071 1002.71 910.726 997.33 914.843 990.656L915.982 991.141C913.903 994.525 912.39 997.227 911.442 999.248C910.455 1001.35 909.701 1003.09 909.178 1004.47C910.583 1002.55 911.757 1001.24 912.702 1000.54C913.663 999.836 914.47 999.513 915.124 999.57C916.303 999.673 916.856 1000.15 916.782 1000.99C916.736 1001.52 916.359 1002.43 915.651 1003.74C914.943 1005.04 914.569 1005.91 914.53 1006.36C914.491 1006.81 914.687 1007.05 915.117 1007.09C915.34 1007.11 915.734 1006.92 916.297 1006.54ZM927.727 1006.86L928.242 1007.32C927.977 1007.78 927.522 1008.2 926.879 1008.57C926.252 1008.95 925.691 1009.12 925.197 1009.08C924.257 1008.99 923.83 1008.46 923.916 1007.47C923.956 1007.01 924.124 1006.47 924.419 1005.85L923.455 1006.68C922.517 1007.48 921.717 1008.01 921.053 1008.26C920.405 1008.5 919.778 1008.6 919.172 1008.55C918.566 1008.5 918.119 1008.29 917.829 1007.93C917.557 1007.55 917.447 1007.06 917.5 1006.45C917.598 1005.34 918.124 1004.27 919.08 1003.26C920.037 1002.24 921.215 1001.44 922.613 1000.88C924.012 1000.31 925.382 1000.07 926.722 1000.17L926.701 1000.97L925.678 1001.1C924.2 1001.29 922.861 1001.81 921.661 1002.67C920.478 1003.53 919.844 1004.44 919.761 1005.4C919.679 1006.34 920.02 1006.84 920.785 1006.91C921.502 1006.97 922.431 1006.55 923.571 1005.63C924.71 1004.72 925.69 1003.62 926.51 1002.32L927.462 1003.01C926.3 1004.92 925.695 1006.14 925.647 1006.68C925.628 1006.91 925.683 1007.1 925.812 1007.27C925.959 1007.43 926.104 1007.52 926.248 1007.53C926.407 1007.54 926.511 1007.54 926.561 1007.53C926.61 1007.52 926.659 1007.51 926.708 1007.5C926.759 1007.47 926.818 1007.43 926.886 1007.39C926.97 1007.35 927.038 1007.31 927.09 1007.27C927.158 1007.22 927.26 1007.16 927.396 1007.08C927.531 1006.99 927.642 1006.92 927.727 1006.86ZM938.737 1007.34L939.206 1007.77C938.794 1008.44 938.256 1008.99 937.593 1009.41C936.945 1009.84 936.374 1010.03 935.88 1009.99C935.386 1009.94 935.008 1009.77 934.746 1009.45C934.485 1009.14 934.372 1008.77 934.41 1008.34C934.448 1007.91 934.784 1007.18 935.42 1006.16C936.072 1005.13 936.421 1004.36 936.465 1003.85C936.485 1003.62 936.407 1003.41 936.231 1003.22C936.072 1003.02 935.865 1002.9 935.61 1002.88C934.797 1002.81 933.922 1003.36 932.985 1004.53C932.048 1005.68 930.969 1007.38 929.745 1009.62L928.354 1008.99C928.819 1007.17 929.407 1005.4 930.118 1003.7C930.846 1001.98 931.483 1000.76 932.028 1000.04L932.981 1000.43C932.436 1001.53 931.7 1003.43 930.772 1006.14C933.3 1002.57 935.489 1000.87 937.338 1001.03C937.736 1001.07 938.051 1001.23 938.283 1001.52C938.53 1001.82 938.638 1002.15 938.605 1002.51C938.573 1002.88 938.496 1003.21 938.374 1003.51C938.253 1003.79 937.891 1004.44 937.286 1005.48C936.698 1006.51 936.393 1007.16 936.369 1007.43C936.345 1007.7 936.406 1007.92 936.552 1008.09C936.699 1008.25 936.844 1008.34 936.987 1008.35C937.131 1008.36 937.252 1008.35 937.352 1008.31C937.452 1008.27 937.562 1008.21 937.682 1008.12C937.818 1008.04 937.937 1007.96 938.039 1007.89C938.142 1007.81 938.263 1007.72 938.401 1007.6C938.557 1007.47 938.669 1007.39 938.737 1007.34ZM949.937 1010.37L949.911 1010.95C949.743 1011.03 948.993 1011.25 947.66 1011.62C946.883 1014.62 945.942 1016.75 944.835 1018.02C943.728 1019.29 942.458 1019.86 941.023 1019.74C940.354 1019.68 939.839 1019.41 939.478 1018.95C939.117 1018.48 938.967 1017.91 939.027 1017.22C939.146 1015.85 939.888 1014.62 941.252 1013.54C942.614 1012.47 944.377 1011.68 946.541 1011.18C946.874 1010.14 947.436 1008.67 948.228 1006.78C947.017 1008.31 945.949 1009.32 945.022 1009.82C944.111 1010.32 943.305 1010.54 942.604 1010.48C941.902 1010.42 941.385 1010.18 941.052 1009.76C940.735 1009.35 940.604 1008.83 940.66 1008.19C940.752 1007.14 941.284 1006.11 942.255 1005.1C943.228 1004.08 944.406 1003.28 945.789 1002.71C947.189 1002.13 948.511 1001.89 949.754 1002L949.872 1002.85C948.086 1002.89 946.509 1003.37 945.142 1004.32C943.791 1005.26 943.073 1006.21 942.988 1007.19C942.952 1007.6 943.049 1007.95 943.281 1008.25C943.512 1008.54 943.811 1008.7 944.178 1008.74C944.719 1008.78 945.59 1008.28 946.791 1007.23C947.991 1006.18 948.85 1005.27 949.367 1004.49L950.208 1005.07C949.126 1007.34 948.348 1009.26 947.872 1010.84L949.937 1010.37ZM946.335 1011.89C944.893 1012.4 943.678 1013.07 942.692 1013.88C941.705 1014.7 941.18 1015.47 941.115 1016.2C941.082 1016.58 941.166 1016.9 941.369 1017.16C941.571 1017.42 941.839 1017.57 942.174 1017.6C942.844 1017.65 943.546 1017.24 944.282 1016.36C945.018 1015.47 945.702 1013.98 946.335 1011.89ZM957.238 1009.03L957.751 1009.51C957.197 1010.16 956.469 1010.67 955.568 1011.06C954.668 1011.43 953.812 1011.58 952.999 1011.51C952.186 1011.44 951.553 1011.14 951.101 1010.62C950.649 1010.1 950.457 1009.45 950.525 1008.66C950.653 1007.2 951.553 1005.82 953.223 1004.54C954.909 1003.26 956.549 1002.69 958.143 1002.83C959.195 1002.92 959.684 1003.38 959.612 1004.21C959.537 1005.07 958.903 1005.89 957.71 1006.67C956.534 1007.45 954.91 1008.11 952.839 1008.65C952.951 1009.03 953.149 1009.34 953.433 1009.57C953.718 1009.8 954.02 1009.93 954.339 1009.96C955.024 1010.02 955.991 1009.71 957.238 1009.03ZM952.782 1007.92C954.112 1007.59 955.269 1007.13 956.252 1006.54C957.235 1005.95 957.751 1005.38 957.8 1004.82C957.818 1004.61 957.754 1004.42 957.609 1004.25C957.463 1004.08 957.287 1003.98 957.08 1003.96C956.331 1003.9 955.477 1004.3 954.518 1005.16C953.576 1006.01 952.998 1006.93 952.782 1007.92ZM749.097 1021.09L749.571 1021.74C749.118 1022.32 748.59 1022.77 747.985 1023.07C747.397 1023.37 746.815 1023.49 746.242 1023.44C745.668 1023.39 745.227 1023.19 744.921 1022.85C744.615 1022.48 744.487 1022.01 744.538 1021.44C744.655 1020.1 745.319 1018.3 746.529 1016.03C745.705 1016.08 744.875 1016.2 744.04 1016.39L743.954 1015.44L743.932 1015.41C744.759 1015.15 745.826 1014.97 747.136 1014.87C747.284 1014.65 747.622 1014.09 748.149 1013.2C749.202 1011.45 749.943 1010.32 750.373 1009.81L751.366 1010.3C751.176 1010.64 750.845 1011.21 750.374 1012C749.905 1012.78 749.377 1013.66 748.793 1014.66C749.514 1014.67 750.082 1014.7 750.497 1014.73C750.911 1014.77 751.224 1014.86 751.436 1015.01L751.346 1016.04C751.127 1015.97 750.803 1015.92 750.372 1015.88C749.958 1015.84 749.202 1015.85 748.106 1015.9C746.982 1017.92 746.378 1019.41 746.294 1020.37C746.262 1020.73 746.347 1021.04 746.549 1021.3C746.767 1021.56 747.068 1021.71 747.45 1021.74C747.849 1021.78 748.398 1021.56 749.097 1021.09ZM760.542 1023.03L761.052 1023.53C760.285 1024.59 759.367 1025.07 758.299 1024.98C757.375 1024.9 756.952 1024.4 757.032 1023.5C757.078 1022.97 757.374 1022.15 757.921 1021.04C758.485 1019.92 758.783 1019.18 758.815 1018.81C758.855 1018.35 758.581 1018.09 757.991 1018.04C757.401 1017.99 756.541 1018.55 755.409 1019.74C754.295 1020.91 753.322 1022.3 752.49 1023.92L751.123 1023.29C752.316 1019.21 754.971 1013.82 759.088 1007.15L760.226 1007.63C758.147 1011.02 756.634 1013.72 755.686 1015.74C754.7 1017.84 753.945 1019.58 753.423 1020.96C754.827 1019.05 756.002 1017.74 756.947 1017.03C757.908 1016.33 758.715 1016.01 759.368 1016.06C760.548 1016.17 761.101 1016.64 761.027 1017.49C760.981 1018.01 760.604 1018.93 759.895 1020.23C759.187 1021.53 758.814 1022.41 758.775 1022.85C758.735 1023.3 758.931 1023.54 759.361 1023.58C759.585 1023.6 759.978 1023.42 760.542 1023.03ZM768.445 1022.64L768.957 1023.12C768.403 1023.76 767.675 1024.27 766.774 1024.66C765.874 1025.03 765.018 1025.18 764.205 1025.11C763.392 1025.04 762.76 1024.74 762.307 1024.22C761.855 1023.7 761.663 1023.05 761.731 1022.27C761.86 1020.8 762.759 1019.43 764.429 1018.14C766.115 1016.86 767.755 1016.29 769.349 1016.43C770.401 1016.52 770.891 1016.98 770.818 1017.81C770.743 1018.67 770.109 1019.49 768.917 1020.27C767.74 1021.05 766.117 1021.71 764.046 1022.25C764.157 1022.63 764.355 1022.94 764.64 1023.17C764.924 1023.41 765.226 1023.54 765.545 1023.57C766.23 1023.63 767.197 1023.32 768.445 1022.64ZM763.989 1021.53C765.319 1021.19 766.475 1020.73 767.458 1020.14C768.441 1019.56 768.957 1018.98 769.006 1018.42C769.024 1018.22 768.961 1018.03 768.815 1017.85C768.67 1017.68 768.493 1017.58 768.286 1017.57C767.537 1017.5 766.683 1017.9 765.724 1018.76C764.782 1019.61 764.204 1020.53 763.989 1021.53ZM787.861 1016.97C786.968 1016.89 786.553 1016.49 786.616 1015.77C786.651 1015.37 786.792 1015.05 787.038 1014.8C787.285 1014.55 787.584 1014.44 787.935 1014.47C788.285 1014.5 788.563 1014.63 788.768 1014.85C788.973 1015.08 789.061 1015.36 789.032 1015.69C789.003 1016.03 788.88 1016.33 788.663 1016.6C788.447 1016.87 788.18 1016.99 787.861 1016.97ZM786.933 1023.99L787.376 1024.44C786.929 1025.14 786.364 1025.72 785.68 1026.19C785.014 1026.65 784.426 1026.86 783.916 1026.81C783.023 1026.73 782.631 1026.07 782.74 1024.83C782.875 1023.28 783.689 1021.32 785.182 1018.95C785.516 1018.43 785.711 1018.13 785.768 1018.04L786.741 1018.75C786.354 1019.32 785.855 1020.25 785.245 1021.53C784.651 1022.81 784.338 1023.64 784.304 1024.03C784.272 1024.39 784.329 1024.66 784.474 1024.84C784.62 1025.01 784.804 1025.11 785.027 1025.13C785.457 1025.16 786.093 1024.79 786.933 1023.99ZM798.765 1025.22L799.234 1025.65C798.822 1026.32 798.284 1026.86 797.621 1027.29C796.973 1027.71 796.402 1027.9 795.908 1027.86C795.414 1027.82 795.036 1027.64 794.774 1027.33C794.512 1027.02 794.4 1026.64 794.438 1026.21C794.476 1025.78 794.812 1025.06 795.447 1024.04C796.1 1023 796.449 1022.23 796.493 1021.72C796.513 1021.5 796.435 1021.29 796.259 1021.1C796.1 1020.89 795.893 1020.78 795.638 1020.75C794.825 1020.68 793.95 1021.23 793.013 1022.4C792.076 1023.56 790.996 1025.25 789.773 1027.49L788.382 1026.86C788.847 1025.04 789.435 1023.28 790.146 1021.57C790.874 1019.85 791.511 1018.63 792.056 1017.91L793.009 1018.31C792.464 1019.4 791.727 1021.3 790.8 1024.02C793.328 1020.45 795.517 1018.74 797.366 1018.9C797.764 1018.94 798.079 1019.1 798.311 1019.4C798.558 1019.69 798.665 1020.02 798.633 1020.39C798.601 1020.76 798.524 1021.09 798.402 1021.38C798.281 1021.66 797.919 1022.32 797.314 1023.36C796.726 1024.38 796.421 1025.03 796.397 1025.3C796.373 1025.57 796.434 1025.79 796.58 1025.97C796.726 1026.12 796.872 1026.21 797.015 1026.22C797.158 1026.23 797.28 1026.22 797.38 1026.18C797.48 1026.14 797.59 1026.08 797.71 1025.99C797.845 1025.91 797.965 1025.83 798.067 1025.76C798.17 1025.69 798.291 1025.59 798.429 1025.48C798.585 1025.35 798.697 1025.26 798.765 1025.22ZM808.22 1019.54L807.924 1020.45C807.656 1020.4 807.306 1020.35 806.876 1020.31C805.282 1020.18 804.439 1020.63 804.347 1021.68C804.328 1021.91 804.589 1022.59 805.132 1023.73C805.691 1024.87 805.954 1025.62 805.922 1025.99C805.847 1026.85 805.493 1027.5 804.86 1027.94C804.244 1028.37 803.45 1028.54 802.478 1028.46C801.139 1028.34 800.128 1027.51 799.445 1025.95L800.41 1025.39C800.617 1025.58 800.838 1025.82 801.07 1026.09C801.304 1026.36 801.481 1026.54 801.6 1026.65C801.879 1026.94 802.202 1027.11 802.569 1027.14C802.935 1027.17 803.265 1027.07 803.559 1026.84C803.853 1026.6 804.017 1026.28 804.051 1025.9C804.086 1025.5 803.799 1024.74 803.191 1023.61C802.599 1022.48 802.322 1021.7 802.36 1021.27C802.428 1020.49 802.807 1019.92 803.497 1019.56C804.202 1019.21 805.089 1019.07 806.157 1019.17C807.241 1019.26 807.929 1019.39 808.22 1019.54ZM813.329 1026.71L813.802 1027.35C813.35 1027.94 812.821 1028.38 812.216 1028.68C811.628 1028.99 811.047 1029.11 810.473 1029.06C809.899 1029.01 809.459 1028.81 809.152 1028.46C808.847 1028.1 808.719 1027.63 808.769 1027.06C808.886 1025.72 809.55 1023.91 810.76 1021.64C809.936 1021.7 809.107 1021.82 808.272 1022L808.186 1021.06L808.164 1021.03C808.99 1020.76 810.058 1020.58 811.367 1020.49C811.515 1020.26 811.853 1019.71 812.38 1018.82C813.433 1017.07 814.175 1015.93 814.605 1015.43L815.597 1015.92C815.407 1016.26 815.077 1016.82 814.606 1017.62C814.136 1018.4 813.609 1019.28 813.024 1020.27C813.746 1020.29 814.314 1020.31 814.728 1020.35C815.142 1020.39 815.456 1020.48 815.668 1020.63L815.578 1021.65C815.359 1021.59 815.034 1021.53 814.604 1021.5C814.189 1021.46 813.434 1021.47 812.337 1021.51C811.213 1023.54 810.609 1025.03 810.525 1025.98C810.493 1026.35 810.578 1026.66 810.781 1026.92C810.999 1027.18 811.299 1027.33 811.682 1027.36C812.08 1027.39 812.629 1027.18 813.329 1026.71ZM825.86 1028.07L826.374 1028.52C826.109 1028.98 825.655 1029.4 825.012 1029.78C824.384 1030.16 823.823 1030.33 823.329 1030.28C822.389 1030.2 821.962 1029.66 822.048 1028.68C822.089 1028.21 822.256 1027.67 822.551 1027.06L821.587 1027.89C820.65 1028.69 819.849 1029.21 819.185 1029.46C818.537 1029.71 817.91 1029.81 817.304 1029.76C816.699 1029.7 816.251 1029.49 815.962 1029.13C815.689 1028.75 815.58 1028.26 815.633 1027.66C815.73 1026.54 816.257 1025.48 817.212 1024.47C818.169 1023.45 819.347 1022.65 820.746 1022.08C822.145 1021.51 823.514 1021.28 824.855 1021.38L824.833 1022.17L823.81 1022.3C822.332 1022.49 820.993 1023.02 819.794 1023.88C818.61 1024.74 817.977 1025.65 817.893 1026.6C817.811 1027.54 818.152 1028.05 818.918 1028.11C819.635 1028.18 820.563 1027.75 821.703 1026.84C822.843 1025.93 823.823 1024.82 824.643 1023.53L825.594 1024.22C824.432 1026.12 823.827 1027.35 823.78 1027.89C823.76 1028.11 823.815 1028.31 823.945 1028.48C824.091 1028.64 824.237 1028.72 824.38 1028.74C824.539 1028.75 824.644 1028.75 824.693 1028.74C824.742 1028.73 824.791 1028.72 824.841 1028.7C824.891 1028.68 824.951 1028.64 825.018 1028.6C825.102 1028.56 825.17 1028.52 825.222 1028.47C825.29 1028.43 825.392 1028.37 825.528 1028.28C825.664 1028.2 825.774 1028.13 825.86 1028.07ZM836.87 1028.55L837.338 1028.98C836.926 1029.65 836.389 1030.2 835.725 1030.62C835.078 1031.04 834.507 1031.24 834.013 1031.19C833.519 1031.15 833.141 1030.97 832.879 1030.66C832.617 1030.35 832.505 1029.98 832.543 1029.55C832.58 1029.12 832.917 1028.39 833.552 1027.37C834.205 1026.33 834.553 1025.56 834.598 1025.05C834.617 1024.83 834.539 1024.62 834.363 1024.43C834.205 1024.22 833.998 1024.11 833.743 1024.09C832.93 1024.01 832.055 1024.56 831.117 1025.74C830.181 1026.89 829.101 1028.59 827.877 1030.82L826.487 1030.2C826.951 1028.37 827.539 1026.61 828.25 1024.91C828.979 1023.19 829.616 1021.97 830.161 1021.24L831.114 1021.64C830.569 1022.73 829.832 1024.63 828.904 1027.35C831.433 1023.78 833.621 1022.08 835.47 1022.24C835.869 1022.27 836.184 1022.44 836.415 1022.73C836.662 1023.02 836.77 1023.35 836.738 1023.72C836.706 1024.09 836.629 1024.42 836.507 1024.71C836.386 1024.99 836.023 1025.65 835.418 1026.69C834.831 1027.71 834.525 1028.36 834.502 1028.63C834.478 1028.9 834.539 1029.13 834.684 1029.3C834.831 1029.46 834.976 1029.54 835.12 1029.55C835.263 1029.57 835.385 1029.55 835.485 1029.51C835.584 1029.47 835.694 1029.41 835.814 1029.33C835.95 1029.24 836.069 1029.16 836.172 1029.09C836.274 1029.02 836.395 1028.93 836.534 1028.81C836.69 1028.68 836.802 1028.59 836.87 1028.55ZM844.466 1028.71L844.998 1029.24C844.538 1030.08 843.863 1030.73 842.973 1031.18C842.082 1031.63 841.238 1031.82 840.441 1031.75C839.66 1031.69 839.028 1031.38 838.545 1030.84C838.078 1030.3 837.883 1029.6 837.958 1028.74C838.033 1027.88 838.489 1026.98 839.326 1026.04C840.163 1025.1 841.2 1024.36 842.437 1023.81C843.689 1023.26 844.889 1023.04 846.037 1023.14C846.196 1023.15 846.434 1023.19 846.75 1023.25L846.597 1024.17C844.837 1024.1 843.331 1024.51 842.081 1025.39C840.847 1026.28 840.182 1027.28 840.084 1028.4C840.044 1028.86 840.154 1029.25 840.416 1029.56C840.678 1029.87 841.04 1030.05 841.502 1030.09C842.235 1030.15 843.223 1029.69 844.466 1028.71ZM853.363 1030.07L853.875 1030.54C853.321 1031.19 852.593 1031.7 851.692 1032.09C850.793 1032.46 849.936 1032.61 849.123 1032.54C848.31 1032.47 847.678 1032.17 847.226 1031.65C846.773 1031.13 846.581 1030.48 846.65 1029.7C846.778 1028.23 847.677 1026.85 849.347 1025.57C851.033 1024.29 852.673 1023.72 854.267 1023.86C855.319 1023.95 855.809 1024.41 855.736 1025.24C855.661 1026.1 855.027 1026.92 853.835 1027.7C852.658 1028.48 851.035 1029.14 848.964 1029.68C849.075 1030.06 849.273 1030.37 849.558 1030.6C849.843 1030.83 850.144 1030.96 850.463 1030.99C851.148 1031.05 852.115 1030.74 853.363 1030.07ZM848.907 1028.95C850.237 1028.62 851.393 1028.16 852.377 1027.57C853.36 1026.98 853.875 1026.41 853.924 1025.85C853.942 1025.64 853.879 1025.45 853.733 1025.28C853.588 1025.11 853.411 1025.01 853.204 1024.99C852.455 1024.93 851.601 1025.33 850.642 1026.19C849.701 1027.04 849.122 1027.96 848.907 1028.95ZM872.779 1024.39C871.886 1024.31 871.471 1023.92 871.534 1023.2C871.569 1022.8 871.71 1022.48 871.957 1022.22C872.203 1021.97 872.502 1021.86 872.853 1021.89C873.204 1021.92 873.481 1022.05 873.686 1022.28C873.891 1022.51 873.979 1022.79 873.95 1023.12C873.921 1023.46 873.798 1023.76 873.582 1024.03C873.365 1024.3 873.098 1024.42 872.779 1024.39ZM871.851 1031.42L872.294 1031.87C871.847 1032.57 871.282 1033.15 870.599 1033.62C869.932 1034.08 869.344 1034.28 868.834 1034.24C867.942 1034.16 867.55 1033.5 867.658 1032.26C867.794 1030.71 868.607 1028.75 870.1 1026.37C870.434 1025.86 870.63 1025.55 870.686 1025.46L871.659 1026.17C871.272 1026.75 870.773 1027.68 870.163 1028.96C869.569 1030.24 869.256 1031.07 869.222 1031.45C869.19 1031.82 869.247 1032.09 869.392 1032.26C869.538 1032.44 869.722 1032.53 869.945 1032.55C870.376 1032.59 871.011 1032.21 871.851 1031.42ZM879.351 1025.71L878.333 1028.54L881.472 1028.45L880.68 1029.52L877.971 1029.64C877.689 1030.48 877.225 1031.75 876.578 1033.44C875.182 1037.11 874.439 1039.45 874.351 1040.45L872.752 1041.11C872.872 1039.74 873.693 1037.14 875.216 1033.33C875.993 1031.42 876.477 1030.19 876.67 1029.65C876.099 1029.74 875.583 1029.77 875.121 1029.73C874.212 1029.65 873.789 1029.25 873.852 1028.53C873.887 1028.13 874.232 1027.68 874.886 1027.18C875.834 1026.44 876.941 1025.82 878.206 1025.3C879.427 1022.18 880.28 1020.23 880.765 1019.45C881.419 1018.4 881.991 1017.74 882.48 1017.48C883.203 1017.11 883.931 1016.96 884.664 1017.02C885.397 1017.09 885.897 1017.34 886.164 1017.78C886.43 1018.22 886.523 1018.72 886.442 1019.27C886.187 1021.28 883.823 1023.42 879.351 1025.71ZM883.793 1018.99C882.9 1018.92 882.201 1019.29 881.695 1020.11C881.302 1020.75 880.937 1021.53 880.6 1022.45C880.262 1023.37 880.023 1024 879.88 1024.34C880.804 1023.87 881.809 1023.22 882.894 1022.39C883.979 1021.55 884.567 1020.79 884.659 1020.11C884.751 1019.42 884.462 1019.05 883.793 1018.99ZM877.103 1028.55L877.813 1026.49C877.185 1026.7 876.684 1026.92 876.309 1027.16C875.951 1027.4 875.763 1027.62 875.746 1027.81C875.71 1028.22 876.162 1028.47 877.103 1028.55ZM903.007 1035.73L903.024 1036.36C902.956 1036.4 902.19 1036.62 900.725 1037.03C900.442 1038.06 900.104 1039.08 899.712 1040.07C899.335 1041.08 898.972 1041.84 898.623 1042.34C898.288 1042.85 897.899 1043.36 897.455 1043.85C896.566 1044.83 895.444 1045.26 894.089 1045.14C893.419 1045.08 892.904 1044.83 892.541 1044.38C892.179 1043.93 892.029 1043.35 892.092 1042.63C892.333 1039.87 894.838 1037.86 899.607 1036.59L901.295 1032.16C899.745 1034.1 898.399 1035.26 897.257 1035.64C896.693 1035.85 896.108 1035.92 895.502 1035.87C894.912 1035.82 894.451 1035.59 894.118 1035.17C893.8 1034.76 893.674 1034.19 893.738 1033.45C893.802 1032.72 894.138 1031.72 894.747 1030.46C895.373 1029.18 896.035 1028.12 896.735 1027.28L897.863 1027.89C897.811 1027.93 897.551 1028.33 897.082 1029.09C896.254 1030.48 895.809 1031.53 895.748 1032.23C895.687 1032.93 895.781 1033.41 896.031 1033.68C896.281 1033.94 896.669 1034.09 897.195 1034.14C897.721 1034.19 898.338 1033.93 899.046 1033.36C899.771 1032.78 900.909 1031.62 902.459 1029.88L903.275 1030.46C903.102 1030.97 902.731 1031.9 902.164 1033.25C901.614 1034.58 901.227 1035.61 901.003 1036.33L903.007 1035.73ZM899.401 1037.3C898.356 1037.67 897.425 1038.12 896.609 1038.64C895.08 1039.6 894.27 1040.59 894.181 1041.61C894.148 1041.99 894.232 1042.31 894.434 1042.57C894.636 1042.83 894.905 1042.97 895.24 1043C896.834 1043.14 898.221 1041.24 899.401 1037.3ZM911.27 1030.82C911.625 1031.54 911.766 1032.31 911.693 1033.14C911.58 1034.43 911.033 1035.55 910.051 1036.49C909.071 1037.42 907.975 1037.83 906.764 1037.72C905.839 1037.64 905.137 1037.32 904.657 1036.74C904.194 1036.16 904.004 1035.39 904.086 1034.45C904.219 1032.94 904.927 1031.64 906.211 1030.54C907.496 1029.44 908.872 1028.95 910.339 1029.07C910.61 1029.1 910.8 1029.12 910.91 1029.15L910.913 1029.94C909.638 1029.83 908.546 1030.11 907.637 1030.76C906.728 1031.42 906.224 1032.33 906.123 1033.47C906.063 1034.16 906.182 1034.73 906.479 1035.19C906.777 1035.64 907.245 1035.89 907.883 1035.94C908.537 1036 909.08 1035.76 909.512 1035.22C909.945 1034.68 910.195 1034.02 910.262 1033.26C910.33 1032.48 910.241 1031.76 909.994 1031.09L911.27 1030.82ZM921.568 1036.22L922.034 1036.67C921.705 1037.32 921.225 1037.85 920.595 1038.26C919.981 1038.67 919.434 1038.85 918.956 1038.81C918.494 1038.77 918.141 1038.58 917.898 1038.24C917.657 1037.88 917.559 1037.44 917.605 1036.91C917.651 1036.39 917.798 1035.72 918.045 1034.9C917.193 1036.02 916.307 1036.87 915.388 1037.47C914.469 1038.06 913.714 1038.33 913.125 1038.28C912.232 1038.2 911.842 1037.52 911.953 1036.25C912.048 1035.17 912.536 1033.81 913.417 1032.19C914.298 1030.56 914.917 1029.63 915.276 1029.38L916.379 1029.99C915.634 1030.98 915.049 1031.97 914.625 1032.97C914.201 1033.96 913.974 1034.63 913.943 1034.98C913.914 1035.31 913.994 1035.59 914.183 1035.82C914.388 1036.04 914.634 1036.17 914.921 1036.2C915.559 1036.25 916.398 1035.74 917.441 1034.66C918.5 1033.56 919.626 1031.89 920.817 1029.65L921.989 1030.31C921.946 1030.43 921.498 1031.33 920.646 1032.99C919.81 1034.65 919.377 1035.65 919.346 1036C919.317 1036.34 919.367 1036.6 919.495 1036.79C919.639 1036.98 919.783 1037.08 919.926 1037.09C920.085 1037.11 920.206 1037.11 920.287 1037.1C920.368 1037.09 920.45 1037.06 920.534 1037.02C920.618 1036.98 920.685 1036.95 920.736 1036.92C920.802 1036.89 920.879 1036.85 920.966 1036.77L921.172 1036.62C921.208 1036.58 921.27 1036.51 921.358 1036.42C921.463 1036.32 921.533 1036.25 921.568 1036.22ZM755.048 1045.05L755.664 1045.73L754.076 1047.35C752.204 1049.29 750.772 1051.26 749.779 1053.24C749.534 1053.65 749.3 1053.85 749.077 1053.83C748.87 1053.81 748.697 1053.77 748.557 1053.71C748.435 1053.64 748.302 1053.42 748.157 1053.05C748.029 1052.69 747.954 1052.25 747.934 1051.76C747.913 1051.26 747.894 1050.83 747.877 1050.47C747.86 1050.12 747.85 1049.86 747.848 1049.7C747.848 1049.52 747.839 1049.35 747.823 1049.17C747.823 1048.98 747.82 1048.83 747.812 1048.73C747.805 1048.64 747.797 1048.54 747.79 1048.44C747.782 1048.35 747.766 1048.26 747.741 1048.17C747.717 1048.07 747.7 1047.99 747.69 1047.93C747.681 1047.85 747.652 1047.72 747.604 1047.53C747.572 1047.35 747.545 1047.2 747.524 1047.07C746.617 1047.89 745.816 1048.88 745.12 1050.04C744.857 1050.48 744.338 1051.37 743.563 1052.7C743.393 1052.99 743.18 1053.12 742.925 1053.1C742.686 1053.08 742.489 1053.04 742.334 1052.98C742.196 1052.9 742.061 1052.7 741.93 1052.36C741.798 1052.03 741.721 1051.54 741.697 1050.9C741.594 1047.66 741.419 1045.44 741.17 1044.25C741.643 1044.16 742.111 1044.14 742.573 1044.18C742.64 1044.33 742.706 1044.78 742.769 1045.52C742.916 1046.96 743.113 1048.66 743.36 1050.61C744.272 1049.18 745.253 1047.88 746.304 1046.7C747.372 1045.51 748.057 1044.92 748.36 1044.95C748.711 1044.98 748.928 1045.25 749.012 1045.75C749.114 1046.25 749.163 1047.07 749.158 1048.22C749.17 1049.37 749.231 1050.33 749.339 1051.11C751.062 1048.67 752.965 1046.65 755.048 1045.05ZM765.389 1052.9L765.903 1053.35C765.638 1053.81 765.184 1054.23 764.541 1054.6C763.913 1054.98 763.353 1055.15 762.859 1055.11C761.918 1055.03 761.491 1054.49 761.578 1053.5C761.618 1053.04 761.786 1052.5 762.08 1051.88L761.116 1052.72C760.179 1053.52 759.378 1054.04 758.714 1054.29C758.066 1054.54 757.439 1054.63 756.834 1054.58C756.228 1054.53 755.78 1054.32 755.491 1053.96C755.219 1053.58 755.109 1053.09 755.162 1052.48C755.259 1051.37 755.786 1050.31 756.742 1049.3C757.698 1048.27 758.876 1047.48 760.275 1046.91C761.674 1046.34 763.043 1046.11 764.384 1046.21L764.363 1047L763.34 1047.13C761.861 1047.32 760.522 1047.85 759.323 1048.7C758.14 1049.56 757.506 1050.47 757.422 1051.43C757.34 1052.37 757.682 1052.87 758.447 1052.94C759.164 1053 760.092 1052.58 761.232 1051.67C762.372 1050.75 763.352 1049.65 764.172 1048.36L765.124 1049.04C763.961 1050.95 763.356 1052.17 763.309 1052.71C763.289 1052.94 763.344 1053.14 763.474 1053.31C763.621 1053.46 763.766 1053.55 763.909 1053.56C764.069 1053.58 764.173 1053.58 764.222 1053.57C764.271 1053.55 764.321 1053.54 764.37 1053.53C764.42 1053.5 764.48 1053.47 764.548 1053.42C764.631 1053.38 764.699 1053.34 764.751 1053.3C764.819 1053.26 764.921 1053.19 765.057 1053.11C765.193 1053.02 765.304 1052.95 765.389 1052.9ZM776.399 1053.38L776.867 1053.8C776.455 1054.47 775.918 1055.02 775.254 1055.45C774.607 1055.87 774.036 1056.06 773.542 1056.02C773.048 1055.98 772.67 1055.8 772.408 1055.49C772.146 1055.17 772.034 1054.8 772.072 1054.37C772.109 1053.94 772.446 1053.22 773.081 1052.2C773.734 1051.16 774.082 1050.39 774.127 1049.88C774.147 1049.65 774.068 1049.45 773.892 1049.26C773.734 1049.05 773.527 1048.93 773.272 1048.91C772.459 1048.84 771.584 1049.39 770.646 1050.56C769.71 1051.72 768.63 1053.41 767.407 1055.65L766.016 1055.02C766.481 1053.2 767.068 1051.44 767.78 1049.73C768.508 1048.01 769.145 1046.79 769.69 1046.07L770.643 1046.47C770.098 1047.56 769.361 1049.46 768.433 1052.17C770.962 1048.61 773.151 1046.9 775 1047.06C775.398 1047.1 775.713 1047.26 775.944 1047.56C776.192 1047.85 776.299 1048.18 776.267 1048.55C776.235 1048.91 776.158 1049.24 776.036 1049.54C775.915 1049.82 775.552 1050.48 774.947 1051.52C774.36 1052.54 774.054 1053.19 774.031 1053.46C774.007 1053.73 774.068 1053.95 774.213 1054.13C774.36 1054.28 774.505 1054.37 774.649 1054.38C774.792 1054.39 774.914 1054.38 775.014 1054.34C775.113 1054.3 775.223 1054.24 775.343 1054.15C775.479 1054.07 775.598 1053.99 775.701 1053.92C775.804 1053.85 775.924 1053.75 776.063 1053.64C776.219 1053.51 776.331 1053.42 776.399 1053.38ZM783.047 1054.18L783.521 1054.82C783.068 1055.41 782.54 1055.85 781.935 1056.15C781.347 1056.45 780.765 1056.58 780.192 1056.53C779.618 1056.48 779.177 1056.28 778.871 1055.93C778.565 1055.57 778.438 1055.1 778.488 1054.52C778.605 1053.18 779.269 1051.38 780.479 1049.11C779.655 1049.16 778.825 1049.29 777.99 1049.47L777.904 1048.52L777.883 1048.5C778.709 1048.23 779.776 1048.05 781.086 1047.96C781.234 1047.73 781.572 1047.17 782.099 1046.29C783.152 1044.53 783.893 1043.4 784.323 1042.89L785.316 1043.39C785.126 1043.72 784.795 1044.29 784.324 1045.08C783.855 1045.86 783.328 1046.75 782.743 1047.74C783.464 1047.76 784.032 1047.78 784.447 1047.82C784.861 1047.85 785.174 1047.95 785.386 1048.09L785.296 1049.12C785.077 1049.05 784.753 1049 784.322 1048.96C783.908 1048.93 783.153 1048.93 782.056 1048.98C780.932 1051 780.328 1052.49 780.244 1053.45C780.212 1053.82 780.297 1054.13 780.499 1054.39C780.717 1054.65 781.018 1054.79 781.4 1054.83C781.799 1054.86 782.348 1054.64 783.047 1054.18ZM802.427 1055.87L802.9 1056.51C802.447 1057.1 801.919 1057.54 801.314 1057.84C800.726 1058.15 800.145 1058.27 799.571 1058.22C798.997 1058.17 798.557 1057.97 798.25 1057.62C797.944 1057.26 797.817 1056.79 797.867 1056.22C797.984 1054.88 798.648 1053.07 799.858 1050.8C799.034 1050.86 798.205 1050.98 797.369 1051.16L797.284 1050.22L797.262 1050.19C798.088 1049.93 799.156 1049.75 800.465 1049.65C800.613 1049.42 800.951 1048.87 801.478 1047.98C802.531 1046.23 803.272 1045.09 803.702 1044.59L804.695 1045.08C804.505 1045.42 804.174 1045.98 803.703 1046.78C803.234 1047.56 802.707 1048.44 802.122 1049.44C802.843 1049.45 803.411 1049.48 803.826 1049.51C804.24 1049.55 804.553 1049.64 804.765 1049.79L804.675 1050.81C804.457 1050.75 804.132 1050.7 803.702 1050.66C803.287 1050.62 802.532 1050.63 801.435 1050.68C800.311 1052.7 799.707 1054.19 799.623 1055.14C799.591 1055.51 799.676 1055.82 799.878 1056.08C800.097 1056.34 800.397 1056.49 800.78 1056.52C801.178 1056.56 801.727 1056.34 802.427 1055.87ZM811.924 1052.24C812.279 1052.97 812.42 1053.74 812.347 1054.57C812.235 1055.86 811.687 1056.98 810.705 1057.92C809.725 1058.85 808.629 1059.26 807.418 1059.15C806.493 1059.07 805.791 1058.74 805.311 1058.17C804.848 1057.58 804.658 1056.82 804.74 1055.88C804.873 1054.37 805.581 1053.06 806.865 1051.97C808.15 1050.86 809.526 1050.37 810.993 1050.5C811.264 1050.52 811.454 1050.55 811.565 1050.57L811.567 1051.37C810.292 1051.26 809.2 1051.53 808.291 1052.19C807.382 1052.85 806.878 1053.75 806.777 1054.9C806.717 1055.59 806.836 1056.16 807.133 1056.62C807.432 1057.06 807.9 1057.31 808.537 1057.37C809.191 1057.43 809.734 1057.18 810.166 1056.64C810.599 1056.1 810.849 1055.45 810.916 1054.69C810.984 1053.9 810.895 1053.18 810.648 1052.52L811.924 1052.24ZM830.668 1057.62L831.2 1058.15C830.741 1058.99 830.066 1059.64 829.175 1060.09C828.284 1060.54 827.441 1060.73 826.644 1060.66C825.863 1060.59 825.231 1060.29 824.748 1059.75C824.281 1059.21 824.085 1058.51 824.161 1057.65C824.236 1056.79 824.692 1055.89 825.529 1054.95C826.366 1054.01 827.403 1053.27 828.639 1052.72C829.892 1052.17 831.092 1051.94 832.24 1052.04C832.399 1052.06 832.637 1052.1 832.953 1052.16L832.799 1053.08C831.039 1053.01 829.534 1053.41 828.284 1054.3C827.05 1055.19 826.384 1056.19 826.287 1057.31C826.246 1057.77 826.357 1058.16 826.619 1058.47C826.88 1058.78 827.243 1058.96 827.705 1059C828.438 1059.06 829.426 1058.6 830.668 1057.62ZM840.059 1054.7C840.414 1055.43 840.555 1056.2 840.482 1057.03C840.369 1058.32 839.822 1059.44 838.84 1060.38C837.86 1061.31 836.764 1061.72 835.553 1061.61C834.628 1061.53 833.926 1061.2 833.446 1060.63C832.983 1060.04 832.793 1059.28 832.875 1058.34C833.008 1056.83 833.716 1055.52 835 1054.43C836.285 1053.32 837.661 1052.83 839.128 1052.96C839.399 1052.98 839.589 1053.01 839.699 1053.03L839.702 1053.83C838.427 1053.72 837.335 1053.99 836.426 1054.65C835.517 1055.31 835.013 1056.21 834.912 1057.36C834.852 1058.05 834.971 1058.62 835.268 1059.08C835.566 1059.52 836.034 1059.77 836.672 1059.83C837.325 1059.89 837.869 1059.64 838.301 1059.1C838.734 1058.56 838.984 1057.91 839.051 1057.15C839.119 1056.36 839.03 1055.64 838.783 1054.98L840.059 1054.7ZM847.974 1055.4C848.329 1056.12 848.47 1056.89 848.397 1057.72C848.284 1059.01 847.737 1060.13 846.755 1061.07C845.775 1062 844.679 1062.41 843.468 1062.3C842.543 1062.22 841.841 1061.89 841.361 1061.32C840.898 1060.74 840.708 1059.97 840.79 1059.03C840.923 1057.52 841.631 1056.21 842.915 1055.12C844.2 1054.01 845.576 1053.52 847.043 1053.65C847.314 1053.68 847.504 1053.7 847.614 1053.73L847.617 1054.52C846.342 1054.41 845.25 1054.68 844.341 1055.34C843.432 1056 842.928 1056.91 842.827 1058.05C842.767 1058.74 842.886 1059.31 843.183 1059.77C843.481 1060.22 843.949 1060.47 844.587 1060.52C845.241 1060.58 845.784 1060.34 846.216 1059.8C846.649 1059.26 846.899 1058.6 846.966 1057.84C847.034 1057.06 846.945 1056.33 846.698 1055.67L847.974 1055.4ZM858.327 1061L858.879 1061.58C857.822 1063.01 856.775 1063.68 855.739 1063.59C855.102 1063.54 854.489 1063.01 853.902 1062.01C853.315 1061.01 853.048 1060.21 853.101 1059.6C853.134 1059.22 853.741 1058.89 854.922 1058.61C855.365 1058.5 855.775 1058.32 856.15 1058.06C856.544 1057.79 856.754 1057.5 856.782 1057.18C856.81 1056.86 856.743 1056.61 856.582 1056.44C856.422 1056.25 856.206 1056.14 855.935 1056.12C854.168 1056.12 852.129 1058.32 849.817 1062.71L848.403 1062.08C848.463 1061.4 849.63 1058.71 851.904 1054.01C854.194 1049.31 855.774 1046.48 856.644 1045.53L857.778 1046.06C855.299 1049.62 853.117 1053.81 851.233 1058.64C852.639 1056.89 853.816 1055.74 854.763 1055.2C855.71 1054.65 856.59 1054.42 857.403 1054.49C857.897 1054.53 858.274 1054.72 858.535 1055.04C858.811 1055.37 858.928 1055.78 858.886 1056.25C858.846 1056.72 858.69 1057.13 858.417 1057.49C858.16 1057.85 857.804 1058.16 857.349 1058.41C856.691 1058.77 855.89 1059.11 854.947 1059.43C855.025 1060.19 855.223 1060.78 855.54 1061.19C855.857 1061.6 856.239 1061.83 856.685 1061.87C856.924 1061.89 857.471 1061.6 858.327 1061ZM885.169 1056.43L885.784 1057.11L884.197 1058.73C882.325 1060.67 880.892 1062.64 879.9 1064.62C879.655 1065.03 879.421 1065.23 879.198 1065.21C878.99 1065.19 878.817 1065.15 878.678 1065.09C878.556 1065.02 878.423 1064.8 878.278 1064.43C878.149 1064.07 878.075 1063.63 878.054 1063.13C878.034 1062.63 878.015 1062.21 877.998 1061.85C877.98 1061.5 877.971 1061.24 877.969 1061.08C877.968 1060.9 877.96 1060.72 877.943 1060.55C877.944 1060.35 877.941 1060.21 877.933 1060.11C877.925 1060.02 877.918 1059.92 877.91 1059.82C877.903 1059.72 877.886 1059.63 877.862 1059.55C877.838 1059.45 877.821 1059.37 877.811 1059.31C877.802 1059.23 877.773 1059.09 877.725 1058.91C877.692 1058.73 877.666 1058.58 877.645 1058.45C876.738 1059.27 875.937 1060.26 875.241 1061.42C874.977 1061.86 874.458 1062.75 873.683 1064.08C873.513 1064.37 873.301 1064.5 873.046 1064.48C872.807 1064.46 872.61 1064.42 872.455 1064.36C872.317 1064.28 872.182 1064.07 872.05 1063.74C871.919 1063.41 871.841 1062.92 871.817 1062.28C871.715 1059.04 871.539 1056.82 871.29 1055.63C871.764 1055.54 872.232 1055.52 872.694 1055.56C872.761 1055.71 872.826 1056.16 872.89 1056.9C873.037 1058.34 873.234 1060.04 873.481 1061.99C874.393 1060.56 875.374 1059.25 876.425 1058.08C877.492 1056.89 878.178 1056.3 878.481 1056.33C878.831 1056.36 879.049 1056.63 879.133 1057.13C879.235 1057.62 879.283 1058.45 879.278 1059.6C879.291 1060.74 879.352 1061.71 879.46 1062.49C881.183 1060.05 883.086 1058.03 885.169 1056.43ZM890.805 1056.08C889.913 1056 889.498 1055.61 889.561 1054.89C889.595 1054.49 889.736 1054.17 889.983 1053.91C890.23 1053.66 890.529 1053.55 890.879 1053.58C891.23 1053.61 891.508 1053.74 891.713 1053.97C891.918 1054.2 892.006 1054.48 891.976 1054.81C891.947 1055.15 891.824 1055.45 891.608 1055.72C891.392 1055.99 891.124 1056.11 890.805 1056.08ZM889.878 1063.11L890.32 1063.56C889.874 1064.26 889.309 1064.84 888.625 1065.31C887.959 1065.77 887.371 1065.97 886.861 1065.93C885.968 1065.85 885.576 1065.19 885.685 1063.95C885.82 1062.4 886.634 1060.44 888.126 1058.06C888.461 1057.55 888.656 1057.24 888.712 1057.15L889.686 1057.86C889.298 1058.44 888.799 1059.37 888.19 1060.65C887.596 1061.93 887.282 1062.76 887.249 1063.14C887.217 1063.51 887.273 1063.78 887.419 1063.95C887.564 1064.13 887.748 1064.22 887.972 1064.24C888.402 1064.28 889.037 1063.9 889.878 1063.11ZM897.268 1064.16L897.741 1064.81C897.289 1065.39 896.76 1065.84 896.155 1066.14C895.567 1066.44 894.986 1066.57 894.412 1066.52C893.838 1066.47 893.398 1066.27 893.091 1065.92C892.785 1065.55 892.658 1065.09 892.708 1064.51C892.825 1063.17 893.489 1061.37 894.699 1059.1C893.875 1059.15 893.046 1059.27 892.21 1059.46L892.125 1058.51L892.103 1058.48C892.929 1058.22 893.997 1058.04 895.306 1057.95C895.454 1057.72 895.792 1057.16 896.319 1056.28C897.372 1054.52 898.114 1053.39 898.544 1052.88L899.536 1053.38C899.346 1053.71 899.016 1054.28 898.545 1055.07C898.075 1055.85 897.548 1056.74 896.963 1057.73C897.685 1057.74 898.253 1057.77 898.667 1057.81C899.081 1057.84 899.395 1057.93 899.607 1058.08L899.517 1059.11C899.298 1059.04 898.973 1058.99 898.543 1058.95C898.128 1058.92 897.373 1058.92 896.276 1058.97C895.152 1060.99 894.548 1062.48 894.464 1063.44C894.432 1063.8 894.517 1064.12 894.72 1064.37C894.938 1064.63 895.238 1064.78 895.621 1064.82C896.019 1064.85 896.568 1064.63 897.268 1064.16ZM908.712 1066.1L909.222 1066.61C908.455 1067.66 907.538 1068.15 906.47 1068.05C905.545 1067.97 905.123 1067.48 905.202 1066.57C905.248 1066.04 905.545 1065.23 906.091 1064.12C906.655 1062.99 906.953 1062.25 906.985 1061.88C907.026 1061.42 906.751 1061.16 906.161 1061.11C905.572 1061.06 904.711 1061.63 903.579 1062.81C902.465 1063.98 901.492 1065.38 900.66 1066.99L899.294 1066.36C900.486 1062.28 903.141 1056.9 907.258 1050.22L908.396 1050.71C906.318 1054.09 904.804 1056.79 903.857 1058.81C902.87 1060.91 902.116 1062.65 901.593 1064.04C902.997 1062.12 904.172 1060.81 905.117 1060.1C906.078 1059.4 906.885 1059.08 907.539 1059.14C908.718 1059.24 909.271 1059.71 909.197 1060.56C909.151 1061.08 908.774 1062 908.066 1063.3C907.358 1064.6 906.984 1065.48 906.945 1065.93C906.906 1066.37 907.102 1066.61 907.532 1066.65C907.755 1066.67 908.148 1066.49 908.712 1066.1ZM926.925 1059.24C926.033 1059.16 925.618 1058.77 925.68 1058.05C925.715 1057.65 925.856 1057.32 926.103 1057.07C926.35 1056.82 926.649 1056.71 926.999 1056.74C927.35 1056.77 927.628 1056.9 927.833 1057.13C928.038 1057.35 928.126 1057.64 928.096 1057.97C928.067 1058.3 927.944 1058.61 927.728 1058.88C927.512 1059.15 927.244 1059.27 926.925 1059.24ZM925.998 1066.27L926.44 1066.72C925.994 1067.41 925.429 1068 924.745 1068.47C924.079 1068.93 923.491 1069.13 922.981 1069.09C922.088 1069.01 921.696 1068.35 921.805 1067.1C921.94 1065.56 922.754 1063.6 924.246 1061.22C924.581 1060.71 924.776 1060.4 924.832 1060.31L925.806 1061.02C925.418 1061.6 924.919 1062.53 924.31 1063.81C923.716 1065.09 923.402 1065.92 923.369 1066.3C923.337 1066.67 923.393 1066.94 923.539 1067.11C923.684 1067.29 923.868 1067.38 924.092 1067.4C924.522 1067.44 925.157 1067.06 925.998 1066.27ZM933.388 1067.32L933.861 1067.97C933.409 1068.55 932.88 1069 932.275 1069.3C931.687 1069.6 931.106 1069.73 930.532 1069.67C929.958 1069.62 929.518 1069.43 929.211 1069.08C928.905 1068.71 928.778 1068.24 928.828 1067.67C928.945 1066.33 929.609 1064.53 930.819 1062.26C929.995 1062.31 929.166 1062.43 928.33 1062.62L928.245 1061.67L928.223 1061.64C929.049 1061.38 930.117 1061.2 931.426 1061.1C931.574 1060.88 931.912 1060.32 932.439 1059.43C933.492 1057.68 934.234 1056.55 934.664 1056.04L935.656 1056.54C935.466 1056.87 935.135 1057.44 934.665 1058.23C934.195 1059.01 933.668 1059.89 933.083 1060.89C933.805 1060.9 934.372 1060.93 934.787 1060.96C935.201 1061 935.515 1061.09 935.727 1061.24L935.637 1062.27C935.418 1062.2 935.093 1062.15 934.663 1062.11C934.248 1062.07 933.493 1062.08 932.396 1062.13C931.272 1064.15 930.668 1065.64 930.584 1066.6C930.552 1066.96 930.637 1067.27 930.84 1067.53C931.058 1067.79 931.358 1067.94 931.741 1067.97C932.139 1068.01 932.688 1067.79 933.388 1067.32ZM935.487 1070.06C935.313 1069.85 935.237 1069.61 935.261 1069.34C935.284 1069.07 935.4 1068.85 935.608 1068.67C935.816 1068.5 936.056 1068.42 936.327 1068.45C936.598 1068.47 936.82 1068.59 936.995 1068.79C937.17 1069 937.245 1069.24 937.221 1069.51C937.198 1069.78 937.082 1070.01 936.874 1070.18C936.666 1070.36 936.426 1070.43 936.155 1070.41C935.884 1070.38 935.662 1070.27 935.487 1070.06Z" fill="black"/>
</svg>
