<svg width="1819" height="1159" viewBox="0 0 1819 1159" fill="none" xmlns="http://www.w3.org/2000/svg">
<g opacity="0.9">
<mask id="path-1-outside-1_63_2970" maskUnits="userSpaceOnUse" x="0" y="0" width="1819" height="1189" fill="black">
<rect fill="white" width="1819" height="1189"/>
<path d="M30 61.385C30 44.0515 46.3416 30 66.5 30H1752.5C1772.66 30 1789 44.0515 1789 61.385C1789 78.7185 1772.66 92.77 1752.5 92.77H66.5C46.3416 92.77 30 78.7185 30 61.385Z"/>
<path d="M103 351.589H1721V1159H103V351.589Z"/>
<path d="M432 793.128C432 566.369 645.784 382.544 909.5 382.544C1173.22 382.544 1387 566.369 1387 793.128V1159H432V793.128Z"/>
<path d="M103 381.684C103 365.063 118.67 351.589 138 351.589H397C416.33 351.589 432 365.063 432 381.684V1125.47C432 1142.09 416.33 1155.56 397 1155.56H138C118.67 1155.56 103 1142.09 103 1125.47V381.684Z"/>
<path d="M1387 381.684C1387 365.063 1402.67 351.589 1422 351.589H1686C1705.33 351.589 1721 365.063 1721 381.684V1125.47C1721 1142.09 1705.33 1155.56 1686 1155.56H1422C1402.67 1155.56 1387 1142.09 1387 1125.47V381.684Z"/>
<path d="M30 351.159C30 333.825 46.3416 319.774 66.5 319.774H1752.5C1772.66 319.774 1789 333.825 1789 351.159C1789 368.492 1772.66 382.544 1752.5 382.544H66.5C46.3416 382.544 30 368.492 30 351.159Z"/>
<path d="M102 91.0503H1721V319.774H102V91.0503Z"/>
<path d="M183.61 192.034C165.644 179.519 145.638 116.08 183.61 91.0503H320.39C358.362 116.08 338.356 179.519 320.39 192.034C338.764 202.391 336.314 220.948 320.39 228.716C304.467 236.484 320.39 299.491 338.764 319.774H165.236C183.61 299.491 199.533 236.484 183.61 228.716C167.686 220.948 165.236 202.391 183.61 192.034Z"/>
<path d="M403.61 192.034C385.644 179.519 365.638 116.08 403.61 91.0503H540.39C578.362 116.08 558.356 179.519 540.39 192.034C558.764 202.391 556.314 220.948 540.39 228.716C524.467 236.484 540.39 299.491 558.764 319.774H385.236C403.61 299.491 419.533 236.484 403.61 228.716C387.686 220.948 385.236 202.391 403.61 192.034Z"/>
<path d="M623.61 192.034C605.644 179.519 585.638 116.08 623.61 91.0503H760.39C798.362 116.08 778.356 179.519 760.39 192.034C778.764 202.391 776.314 220.948 760.39 228.716C744.467 236.484 760.39 299.491 778.764 319.774H605.236C623.61 299.491 639.533 236.484 623.61 228.716C607.686 220.948 605.236 202.391 623.61 192.034Z"/>
<path d="M843.61 192.034C825.644 179.519 805.638 116.08 843.61 91.0503H980.39C1018.36 116.08 998.356 179.519 980.39 192.034C998.764 202.391 996.314 220.948 980.39 228.716C964.467 236.484 980.39 299.491 998.764 319.774H825.236C843.61 299.491 859.533 236.484 843.61 228.716C827.686 220.948 825.236 202.391 843.61 192.034Z"/>
<path d="M1063.61 192.034C1045.64 179.519 1025.64 116.08 1063.61 91.0503H1200.39C1238.36 116.08 1218.36 179.519 1200.39 192.034C1218.76 202.391 1216.31 220.948 1200.39 228.716C1184.47 236.484 1200.39 299.491 1218.76 319.774H1045.24C1063.61 299.491 1079.53 236.484 1063.61 228.716C1047.69 220.948 1045.24 202.391 1063.61 192.034Z"/>
<path d="M1283.61 192.034C1265.64 179.519 1245.64 116.08 1283.61 91.0503H1420.39C1458.36 116.08 1438.36 179.519 1420.39 192.034C1438.76 202.391 1436.31 220.948 1420.39 228.716C1404.47 236.484 1420.39 299.491 1438.76 319.774H1265.24C1283.61 299.491 1299.53 236.484 1283.61 228.716C1267.69 220.948 1265.24 202.391 1283.61 192.034Z"/>
<path d="M1503.61 192.034C1485.64 179.519 1465.64 116.08 1503.61 91.0503H1640.39C1678.36 116.08 1658.36 179.519 1640.39 192.034C1658.76 202.391 1656.31 220.948 1640.39 228.716C1624.47 236.484 1640.39 299.491 1658.76 319.774H1485.24C1503.61 299.491 1519.53 236.484 1503.61 228.716C1487.69 220.948 1485.24 202.391 1503.61 192.034Z"/>
</mask>
<path d="M192 448.753C192 440.469 185.284 433.753 177 433.753C168.716 433.753 162 440.469 162 448.753H192ZM162 1093.65C162 1101.93 168.716 1108.65 177 1108.65C185.284 1108.65 192 1101.93 192 1093.65H162ZM1479 448.753C1479 440.469 1472.28 433.753 1464 433.753C1455.72 433.753 1449 440.469 1449 448.753H1479ZM1449 1093.65C1449 1101.93 1455.72 1108.65 1464 1108.65C1472.28 1108.65 1479 1101.93 1479 1093.65H1449ZM372 448.753C372 440.469 365.284 433.753 357 433.753C348.716 433.753 342 440.469 342 448.753H372ZM342 1093.65C342 1101.93 348.716 1108.65 357 1108.65C365.284 1108.65 372 1101.93 372 1093.65H342ZM1659 448.753C1659 440.469 1652.28 433.753 1644 433.753C1635.72 433.753 1629 440.469 1629 448.753H1659ZM1629 1093.65C1629 1101.93 1635.72 1108.65 1644 1108.65C1652.28 1108.65 1659 1101.93 1659 1093.65H1629ZM298.076 106.933C295.213 99.1593 286.59 95.1782 278.816 98.0411C271.042 100.904 267.061 109.527 269.924 117.301L298.076 106.933ZM275 193.804L260.22 191.247C259.39 196.044 260.94 200.946 264.377 204.394L275 193.804ZM275.374 306.699C278.839 314.225 287.747 317.517 295.272 314.052C302.798 310.588 306.09 301.68 302.626 294.154L275.374 306.699ZM275 228.198L264.377 217.609C260.94 221.057 259.39 225.958 260.22 230.755L275 228.198ZM518.076 106.933C515.213 99.1593 506.59 95.1782 498.816 98.0411C491.042 100.904 487.061 109.527 489.924 117.301L518.076 106.933ZM495 193.804L480.22 191.247C479.39 196.044 480.94 200.946 484.377 204.394L495 193.804ZM495.374 306.699C498.839 314.225 507.747 317.517 515.272 314.052C522.798 310.588 526.09 301.68 522.626 294.154L495.374 306.699ZM495 228.198L484.377 217.609C480.94 221.057 479.39 225.958 480.22 230.755L495 228.198ZM738.076 106.933C735.213 99.1593 726.59 95.1782 718.816 98.0411C711.042 100.904 707.061 109.527 709.924 117.301L738.076 106.933ZM715 193.804L700.22 191.247C699.39 196.044 700.94 200.946 704.377 204.394L715 193.804ZM715.374 306.699C718.839 314.225 727.747 317.517 735.272 314.052C742.798 310.588 746.09 301.68 742.626 294.154L715.374 306.699ZM715 228.198L704.377 217.609C700.94 221.057 699.39 225.958 700.22 230.755L715 228.198ZM955.076 106.933C952.213 99.1593 943.59 95.1782 935.816 98.0411C928.042 100.904 924.061 109.527 926.924 117.301L955.076 106.933ZM932 193.804L917.22 191.247C916.39 196.044 917.94 200.946 921.377 204.394L932 193.804ZM932.374 306.699C935.839 314.225 944.747 317.517 952.272 314.052C959.798 310.588 963.09 301.68 959.626 294.154L932.374 306.699ZM932 228.198L921.377 217.609C917.94 221.057 916.39 225.958 917.22 230.755L932 228.198ZM1178.08 106.933C1175.21 99.1593 1166.59 95.1782 1158.82 98.0411C1151.04 100.904 1147.06 109.527 1149.92 117.301L1178.08 106.933ZM1155 193.804L1140.22 191.247C1139.39 196.044 1140.94 200.946 1144.38 204.394L1155 193.804ZM1155.37 306.699C1158.84 314.225 1167.75 317.517 1175.27 314.052C1182.8 310.588 1186.09 301.68 1182.63 294.154L1155.37 306.699ZM1155 228.198L1144.38 217.609C1140.94 221.057 1139.39 225.958 1140.22 230.755L1155 228.198ZM1398.08 106.933C1395.21 99.1593 1386.59 95.1782 1378.82 98.0411C1371.04 100.904 1367.06 109.527 1369.92 117.301L1398.08 106.933ZM1375 193.804L1360.22 191.247C1359.39 196.044 1360.94 200.946 1364.38 204.394L1375 193.804ZM1375.37 306.699C1378.84 314.225 1387.75 317.517 1395.27 314.052C1402.8 310.588 1406.09 301.68 1402.63 294.154L1375.37 306.699ZM1375 228.198L1364.38 217.609C1360.94 221.057 1359.39 225.958 1360.22 230.755L1375 228.198ZM1618.08 106.933C1615.21 99.1593 1606.59 95.1782 1598.82 98.0411C1591.04 100.904 1587.06 109.527 1589.92 117.301L1618.08 106.933ZM1595 193.804L1580.22 191.247C1579.39 196.044 1580.94 200.946 1584.38 204.394L1595 193.804ZM1595.37 306.699C1598.84 314.225 1607.75 317.517 1615.27 314.052C1622.8 310.588 1626.09 301.68 1622.63 294.154L1595.37 306.699ZM1595 228.198L1584.38 217.609C1580.94 221.057 1579.39 225.958 1580.22 230.755L1595 228.198ZM234.076 117.301C236.939 109.527 232.958 100.904 225.184 98.0411C217.41 95.1782 208.787 99.1593 205.924 106.933L234.076 117.301ZM229 193.804L239.623 204.394C243.06 200.946 244.61 196.044 243.78 191.247L229 193.804ZM201.374 294.154C197.91 301.68 201.202 310.588 208.728 314.052C216.253 317.517 225.161 314.225 228.626 306.699L201.374 294.154ZM229 228.198L243.78 230.755C244.61 225.958 243.06 221.057 239.623 217.609L229 228.198ZM454.076 117.301C456.939 109.527 452.958 100.904 445.184 98.0411C437.41 95.1782 428.787 99.1593 425.924 106.933L454.076 117.301ZM449 193.804L459.623 204.394C463.06 200.946 464.61 196.044 463.78 191.247L449 193.804ZM421.374 294.154C417.91 301.68 421.202 310.588 428.728 314.052C436.253 317.517 445.161 314.225 448.626 306.699L421.374 294.154ZM449 228.198L463.78 230.755C464.61 225.958 463.06 221.057 459.623 217.609L449 228.198ZM674.076 117.301C676.939 109.527 672.958 100.904 665.184 98.0411C657.41 95.1782 648.787 99.1593 645.924 106.933L674.076 117.301ZM669 193.804L679.623 204.394C683.06 200.946 684.61 196.044 683.78 191.247L669 193.804ZM641.374 294.154C637.91 301.68 641.202 310.588 648.728 314.052C656.253 317.517 665.161 314.225 668.626 306.699L641.374 294.154ZM669 228.198L683.78 230.755C684.61 225.958 683.06 221.057 679.623 217.609L669 228.198ZM891.076 117.301C893.939 109.527 889.958 100.904 882.184 98.0411C874.41 95.1782 865.787 99.1593 862.924 106.933L891.076 117.301ZM886 193.804L896.623 204.394C900.06 200.946 901.61 196.044 900.78 191.247L886 193.804ZM858.374 294.154C854.91 301.68 858.202 310.588 865.728 314.052C873.253 317.517 882.161 314.225 885.626 306.699L858.374 294.154ZM886 228.198L900.78 230.755C901.61 225.958 900.06 221.057 896.623 217.609L886 228.198ZM1114.08 117.301C1116.94 109.527 1112.96 100.904 1105.18 98.0411C1097.41 95.1782 1088.79 99.1593 1085.92 106.933L1114.08 117.301ZM1109 193.804L1119.62 204.394C1123.06 200.946 1124.61 196.044 1123.78 191.247L1109 193.804ZM1081.37 294.154C1077.91 301.68 1081.2 310.588 1088.73 314.052C1096.25 317.517 1105.16 314.225 1108.63 306.699L1081.37 294.154ZM1109 228.198L1123.78 230.755C1124.61 225.958 1123.06 221.057 1119.62 217.609L1109 228.198ZM1334.08 117.301C1336.94 109.527 1332.96 100.904 1325.18 98.0411C1317.41 95.1782 1308.79 99.1593 1305.92 106.933L1334.08 117.301ZM1329 193.804L1339.62 204.394C1343.06 200.946 1344.61 196.044 1343.78 191.247L1329 193.804ZM1301.37 294.154C1297.91 301.68 1301.2 310.588 1308.73 314.052C1316.25 317.517 1325.16 314.225 1328.63 306.699L1301.37 294.154ZM1329 228.198L1343.78 230.755C1344.61 225.958 1343.06 221.057 1339.62 217.609L1329 228.198ZM1554.08 117.301C1556.94 109.527 1552.96 100.904 1545.18 98.0411C1537.41 95.1782 1528.79 99.1593 1525.92 106.933L1554.08 117.301ZM1549 193.804L1559.62 204.394C1563.06 200.946 1564.61 196.044 1563.78 191.247L1549 193.804ZM1521.37 294.154C1517.91 301.68 1521.2 310.588 1528.73 314.052C1536.25 317.517 1545.16 314.225 1548.63 306.699L1521.37 294.154ZM1549 228.198L1563.78 230.755C1564.61 225.958 1563.06 221.057 1559.62 217.609L1549 228.198ZM162 448.753V1093.65H192V448.753H162ZM1449 448.753V1093.65H1479V448.753H1449ZM342 448.753V1093.65H372V448.753H342ZM1629 448.753V1093.65H1659V448.753H1629ZM269.924 117.301C273.13 126.007 272.47 138.507 269.49 153.136C268.06 160.153 266.249 167 264.517 173.477C262.874 179.622 261.114 186.079 260.22 191.247L289.78 196.361C290.386 192.858 291.689 187.994 293.499 181.228C295.219 174.794 297.253 167.139 298.885 159.126C302.03 143.696 304.37 124.023 298.076 106.933L269.924 117.301ZM264.377 204.394C265.12 205.139 266.596 206.866 267.783 208.832C268.355 209.779 268.716 210.548 268.911 211.086C269.12 211.661 269 211.594 269 211.001H299C299 203.644 295.831 197.246 293.467 193.329C290.904 189.083 287.88 185.478 285.623 183.214L264.377 204.394ZM302.626 294.154C298.846 285.944 296.322 274.078 294.406 260.916C293.471 254.494 292.73 248.155 292.012 242.124C291.312 236.247 290.611 230.441 289.78 225.641L260.22 230.755C260.889 234.626 261.5 239.605 262.222 245.671C262.926 251.584 263.716 258.349 264.719 265.237C266.678 278.695 269.654 294.273 275.374 306.699L302.626 294.154ZM285.623 238.788C287.88 236.524 290.904 232.92 293.467 228.673C295.831 224.757 299 218.358 299 211.001H269C269 210.408 269.12 210.341 268.911 210.916C268.716 211.455 268.355 212.223 267.783 213.17C266.596 215.136 265.12 216.863 264.377 217.609L285.623 238.788ZM489.924 117.301C493.13 126.007 492.47 138.507 489.49 153.136C488.06 160.153 486.249 167 484.517 173.477C482.874 179.622 481.114 186.079 480.22 191.247L509.78 196.361C510.386 192.858 511.689 187.994 513.499 181.228C515.219 174.794 517.253 167.139 518.885 159.126C522.03 143.696 524.37 124.023 518.076 106.933L489.924 117.301ZM484.377 204.394C485.12 205.139 486.596 206.866 487.783 208.832C488.355 209.779 488.716 210.548 488.911 211.086C489.12 211.661 489 211.594 489 211.001H519C519 203.644 515.831 197.246 513.467 193.329C510.904 189.083 507.88 185.478 505.623 183.214L484.377 204.394ZM522.626 294.154C518.846 285.944 516.322 274.078 514.406 260.916C513.471 254.494 512.73 248.155 512.012 242.124C511.312 236.247 510.611 230.441 509.78 225.641L480.22 230.755C480.889 234.626 481.5 239.605 482.222 245.671C482.926 251.584 483.716 258.349 484.719 265.237C486.678 278.695 489.654 294.273 495.374 306.699L522.626 294.154ZM505.623 238.788C507.88 236.524 510.904 232.92 513.467 228.673C515.831 224.757 519 218.358 519 211.001H489C489 210.408 489.12 210.341 488.911 210.916C488.716 211.455 488.355 212.223 487.783 213.17C486.596 215.136 485.12 216.863 484.377 217.609L505.623 238.788ZM709.924 117.301C713.13 126.007 712.47 138.507 709.49 153.136C708.06 160.153 706.249 167 704.517 173.477C702.874 179.622 701.114 186.079 700.22 191.247L729.78 196.361C730.386 192.858 731.689 187.994 733.499 181.228C735.219 174.794 737.253 167.139 738.885 159.126C742.03 143.696 744.37 124.023 738.076 106.933L709.924 117.301ZM704.377 204.394C705.12 205.139 706.596 206.866 707.783 208.832C708.355 209.779 708.716 210.548 708.911 211.086C709.12 211.661 709 211.594 709 211.001H739C739 203.644 735.831 197.246 733.467 193.329C730.904 189.083 727.88 185.478 725.623 183.214L704.377 204.394ZM742.626 294.154C738.846 285.944 736.322 274.078 734.406 260.916C733.471 254.494 732.73 248.155 732.012 242.124C731.312 236.247 730.611 230.441 729.78 225.641L700.22 230.755C700.889 234.626 701.5 239.605 702.222 245.671C702.926 251.584 703.716 258.349 704.719 265.237C706.678 278.695 709.654 294.273 715.374 306.699L742.626 294.154ZM725.623 238.788C727.88 236.524 730.904 232.92 733.467 228.673C735.831 224.757 739 218.358 739 211.001H709C709 210.408 709.12 210.341 708.911 210.916C708.716 211.455 708.355 212.223 707.783 213.17C706.596 215.136 705.12 216.863 704.377 217.609L725.623 238.788ZM926.924 117.301C930.13 126.007 929.47 138.507 926.49 153.136C925.06 160.153 923.249 167 921.517 173.477C919.874 179.622 918.114 186.079 917.22 191.247L946.78 196.361C947.386 192.858 948.689 187.994 950.499 181.228C952.219 174.794 954.253 167.139 955.885 159.126C959.03 143.696 961.37 124.023 955.076 106.933L926.924 117.301ZM921.377 204.394C922.12 205.139 923.596 206.866 924.783 208.832C925.355 209.779 925.716 210.548 925.911 211.086C926.12 211.661 926 211.594 926 211.001H956C956 203.644 952.831 197.246 950.467 193.329C947.904 189.083 944.88 185.478 942.623 183.214L921.377 204.394ZM959.626 294.154C955.846 285.944 953.322 274.078 951.406 260.916C950.471 254.494 949.73 248.155 949.012 242.124C948.312 236.247 947.611 230.441 946.78 225.641L917.22 230.755C917.889 234.626 918.5 239.605 919.222 245.671C919.926 251.584 920.716 258.349 921.719 265.237C923.678 278.695 926.654 294.273 932.374 306.699L959.626 294.154ZM942.623 238.788C944.88 236.524 947.904 232.92 950.467 228.673C952.831 224.757 956 218.358 956 211.001H926C926 210.408 926.12 210.341 925.911 210.916C925.716 211.455 925.355 212.223 924.783 213.17C923.596 215.136 922.12 216.863 921.377 217.609L942.623 238.788ZM1149.92 117.301C1153.13 126.007 1152.47 138.507 1149.49 153.136C1148.06 160.153 1146.25 167 1144.52 173.477C1142.87 179.622 1141.11 186.079 1140.22 191.247L1169.78 196.361C1170.39 192.858 1171.69 187.994 1173.5 181.228C1175.22 174.794 1177.25 167.139 1178.89 159.126C1182.03 143.696 1184.37 124.023 1178.08 106.933L1149.92 117.301ZM1144.38 204.394C1145.12 205.139 1146.6 206.866 1147.78 208.832C1148.35 209.779 1148.72 210.548 1148.91 211.086C1149.12 211.661 1149 211.594 1149 211.001H1179C1179 203.644 1175.83 197.246 1173.47 193.329C1170.9 189.083 1167.88 185.478 1165.62 183.214L1144.38 204.394ZM1182.63 294.154C1178.85 285.944 1176.32 274.078 1174.41 260.916C1173.47 254.494 1172.73 248.155 1172.01 242.124C1171.31 236.247 1170.61 230.441 1169.78 225.641L1140.22 230.755C1140.89 234.626 1141.5 239.605 1142.22 245.671C1142.93 251.584 1143.72 258.349 1144.72 265.237C1146.68 278.695 1149.65 294.273 1155.37 306.699L1182.63 294.154ZM1165.62 238.788C1167.88 236.524 1170.9 232.92 1173.47 228.673C1175.83 224.757 1179 218.358 1179 211.001H1149C1149 210.408 1149.12 210.341 1148.91 210.916C1148.72 211.455 1148.35 212.223 1147.78 213.17C1146.6 215.136 1145.12 216.863 1144.38 217.609L1165.62 238.788ZM1369.92 117.301C1373.13 126.007 1372.47 138.507 1369.49 153.136C1368.06 160.153 1366.25 167 1364.52 173.477C1362.87 179.622 1361.11 186.079 1360.22 191.247L1389.78 196.361C1390.39 192.858 1391.69 187.994 1393.5 181.228C1395.22 174.794 1397.25 167.139 1398.89 159.126C1402.03 143.696 1404.37 124.023 1398.08 106.933L1369.92 117.301ZM1364.38 204.394C1365.12 205.139 1366.6 206.866 1367.78 208.832C1368.35 209.779 1368.72 210.548 1368.91 211.086C1369.12 211.661 1369 211.594 1369 211.001H1399C1399 203.644 1395.83 197.246 1393.47 193.329C1390.9 189.083 1387.88 185.478 1385.62 183.214L1364.38 204.394ZM1402.63 294.154C1398.85 285.944 1396.32 274.078 1394.41 260.916C1393.47 254.494 1392.73 248.155 1392.01 242.124C1391.31 236.247 1390.61 230.441 1389.78 225.641L1360.22 230.755C1360.89 234.626 1361.5 239.605 1362.22 245.671C1362.93 251.584 1363.72 258.349 1364.72 265.237C1366.68 278.695 1369.65 294.273 1375.37 306.699L1402.63 294.154ZM1385.62 238.788C1387.88 236.524 1390.9 232.92 1393.47 228.673C1395.83 224.757 1399 218.358 1399 211.001H1369C1369 210.408 1369.12 210.341 1368.91 210.916C1368.72 211.455 1368.35 212.223 1367.78 213.17C1366.6 215.136 1365.12 216.863 1364.38 217.609L1385.62 238.788ZM1589.92 117.301C1593.13 126.007 1592.47 138.507 1589.49 153.136C1588.06 160.153 1586.25 167 1584.52 173.477C1582.87 179.622 1581.11 186.079 1580.22 191.247L1609.78 196.361C1610.39 192.858 1611.69 187.994 1613.5 181.228C1615.22 174.794 1617.25 167.139 1618.89 159.126C1622.03 143.696 1624.37 124.023 1618.08 106.933L1589.92 117.301ZM1584.38 204.394C1585.12 205.139 1586.6 206.866 1587.78 208.832C1588.35 209.779 1588.72 210.548 1588.91 211.086C1589.12 211.661 1589 211.594 1589 211.001H1619C1619 203.644 1615.83 197.246 1613.47 193.329C1610.9 189.083 1607.88 185.478 1605.62 183.214L1584.38 204.394ZM1622.63 294.154C1618.85 285.944 1616.32 274.078 1614.41 260.916C1613.47 254.494 1612.73 248.155 1612.01 242.124C1611.31 236.247 1610.61 230.441 1609.78 225.641L1580.22 230.755C1580.89 234.626 1581.5 239.605 1582.22 245.671C1582.93 251.584 1583.72 258.349 1584.72 265.237C1586.68 278.695 1589.65 294.273 1595.37 306.699L1622.63 294.154ZM1605.62 238.788C1607.88 236.524 1610.9 232.92 1613.47 228.673C1615.83 224.757 1619 218.358 1619 211.001H1589C1589 210.408 1589.12 210.341 1588.91 210.916C1588.72 211.455 1588.35 212.223 1587.78 213.17C1586.6 215.136 1585.12 216.863 1584.38 217.609L1605.62 238.788ZM205.924 106.933C199.63 124.023 201.97 143.696 205.115 159.126C206.747 167.139 208.781 174.794 210.501 181.228C212.311 187.994 213.614 192.858 214.22 196.361L243.78 191.247C242.886 186.079 241.126 179.622 239.483 173.477C237.751 167 235.94 160.153 234.51 153.136C231.53 138.507 230.87 126.007 234.076 117.301L205.924 106.933ZM218.377 183.214C216.12 185.478 213.096 189.083 210.533 193.329C208.169 197.246 205 203.644 205 211.001H235C235 211.594 234.88 211.661 235.089 211.086C235.284 210.548 235.645 209.779 236.217 208.832C237.404 206.866 238.88 205.139 239.623 204.394L218.377 183.214ZM228.626 306.699C234.346 294.273 237.322 278.695 239.281 265.237C240.284 258.349 241.074 251.584 241.778 245.671C242.5 239.605 243.111 234.626 243.78 230.755L214.22 225.641C213.389 230.441 212.688 236.247 211.988 242.124C211.27 248.155 210.529 254.494 209.594 260.916C207.678 274.078 205.154 285.944 201.374 294.154L228.626 306.699ZM239.623 217.609C238.88 216.863 237.404 215.136 236.217 213.17C235.645 212.223 235.284 211.455 235.089 210.916C234.88 210.341 235 210.408 235 211.001H205C205 218.358 208.169 224.757 210.533 228.673C213.096 232.92 216.12 236.524 218.377 238.788L239.623 217.609ZM425.924 106.933C419.63 124.023 421.97 143.696 425.115 159.126C426.747 167.139 428.781 174.794 430.501 181.228C432.311 187.994 433.614 192.858 434.22 196.361L463.78 191.247C462.886 186.079 461.126 179.622 459.483 173.477C457.751 167 455.94 160.153 454.51 153.136C451.53 138.507 450.87 126.007 454.076 117.301L425.924 106.933ZM438.377 183.214C436.12 185.478 433.096 189.083 430.533 193.329C428.169 197.246 425 203.644 425 211.001H455C455 211.594 454.88 211.661 455.089 211.086C455.284 210.548 455.645 209.779 456.217 208.832C457.404 206.866 458.88 205.139 459.623 204.394L438.377 183.214ZM448.626 306.699C454.346 294.273 457.322 278.695 459.281 265.237C460.284 258.349 461.074 251.584 461.778 245.671C462.5 239.605 463.111 234.626 463.78 230.755L434.22 225.641C433.389 230.441 432.688 236.247 431.988 242.124C431.27 248.155 430.529 254.494 429.594 260.916C427.678 274.078 425.154 285.944 421.374 294.154L448.626 306.699ZM459.623 217.609C458.88 216.863 457.404 215.136 456.217 213.17C455.645 212.223 455.284 211.455 455.089 210.916C454.88 210.341 455 210.408 455 211.001H425C425 218.358 428.169 224.757 430.533 228.673C433.096 232.92 436.12 236.524 438.377 238.788L459.623 217.609ZM645.924 106.933C639.63 124.023 641.97 143.696 645.115 159.126C646.747 167.139 648.781 174.794 650.501 181.228C652.311 187.994 653.614 192.858 654.22 196.361L683.78 191.247C682.886 186.079 681.126 179.622 679.483 173.477C677.751 167 675.94 160.153 674.51 153.136C671.53 138.507 670.87 126.007 674.076 117.301L645.924 106.933ZM658.377 183.214C656.12 185.478 653.096 189.083 650.533 193.329C648.169 197.246 645 203.644 645 211.001H675C675 211.594 674.88 211.661 675.089 211.086C675.284 210.548 675.645 209.779 676.217 208.832C677.404 206.866 678.88 205.139 679.623 204.394L658.377 183.214ZM668.626 306.699C674.346 294.273 677.322 278.695 679.281 265.237C680.284 258.349 681.074 251.584 681.778 245.671C682.5 239.605 683.111 234.626 683.78 230.755L654.22 225.641C653.389 230.441 652.688 236.247 651.988 242.124C651.27 248.155 650.529 254.494 649.594 260.916C647.678 274.078 645.154 285.944 641.374 294.154L668.626 306.699ZM679.623 217.609C678.88 216.863 677.404 215.136 676.217 213.17C675.645 212.223 675.284 211.455 675.089 210.916C674.88 210.341 675 210.408 675 211.001H645C645 218.358 648.169 224.757 650.533 228.673C653.096 232.92 656.12 236.524 658.377 238.788L679.623 217.609ZM862.924 106.933C856.63 124.023 858.97 143.696 862.115 159.126C863.747 167.139 865.781 174.794 867.501 181.228C869.311 187.994 870.614 192.858 871.22 196.361L900.78 191.247C899.886 186.079 898.126 179.622 896.483 173.477C894.751 167 892.94 160.153 891.51 153.136C888.53 138.507 887.87 126.007 891.076 117.301L862.924 106.933ZM875.377 183.214C873.12 185.478 870.096 189.083 867.533 193.329C865.169 197.246 862 203.644 862 211.001H892C892 211.594 891.88 211.661 892.089 211.086C892.284 210.548 892.645 209.779 893.217 208.832C894.404 206.866 895.88 205.139 896.623 204.394L875.377 183.214ZM885.626 306.699C891.346 294.273 894.322 278.695 896.281 265.237C897.284 258.349 898.074 251.584 898.778 245.671C899.5 239.605 900.111 234.626 900.78 230.755L871.22 225.641C870.389 230.441 869.688 236.247 868.988 242.124C868.27 248.155 867.529 254.494 866.594 260.916C864.678 274.078 862.154 285.944 858.374 294.154L885.626 306.699ZM896.623 217.609C895.88 216.863 894.404 215.136 893.217 213.17C892.645 212.223 892.284 211.455 892.089 210.916C891.88 210.341 892 210.408 892 211.001H862C862 218.358 865.169 224.757 867.533 228.673C870.096 232.92 873.12 236.524 875.377 238.788L896.623 217.609ZM1085.92 106.933C1079.63 124.023 1081.97 143.696 1085.11 159.126C1086.75 167.139 1088.78 174.794 1090.5 181.228C1092.31 187.994 1093.61 192.858 1094.22 196.361L1123.78 191.247C1122.89 186.079 1121.13 179.622 1119.48 173.477C1117.75 167 1115.94 160.153 1114.51 153.136C1111.53 138.507 1110.87 126.007 1114.08 117.301L1085.92 106.933ZM1098.38 183.214C1096.12 185.478 1093.1 189.083 1090.53 193.329C1088.17 197.246 1085 203.644 1085 211.001H1115C1115 211.594 1114.88 211.661 1115.09 211.086C1115.28 210.548 1115.65 209.779 1116.22 208.832C1117.4 206.866 1118.88 205.139 1119.62 204.394L1098.38 183.214ZM1108.63 306.699C1114.35 294.273 1117.32 278.695 1119.28 265.237C1120.28 258.349 1121.07 251.584 1121.78 245.671C1122.5 239.605 1123.11 234.626 1123.78 230.755L1094.22 225.641C1093.39 230.441 1092.69 236.247 1091.99 242.124C1091.27 248.155 1090.53 254.494 1089.59 260.916C1087.68 274.078 1085.15 285.944 1081.37 294.154L1108.63 306.699ZM1119.62 217.609C1118.88 216.863 1117.4 215.136 1116.22 213.17C1115.65 212.223 1115.28 211.455 1115.09 210.916C1114.88 210.341 1115 210.408 1115 211.001H1085C1085 218.358 1088.17 224.757 1090.53 228.673C1093.1 232.92 1096.12 236.524 1098.38 238.788L1119.62 217.609ZM1305.92 106.933C1299.63 124.023 1301.97 143.696 1305.11 159.126C1306.75 167.139 1308.78 174.794 1310.5 181.228C1312.31 187.994 1313.61 192.858 1314.22 196.361L1343.78 191.247C1342.89 186.079 1341.13 179.622 1339.48 173.477C1337.75 167 1335.94 160.153 1334.51 153.136C1331.53 138.507 1330.87 126.007 1334.08 117.301L1305.92 106.933ZM1318.38 183.214C1316.12 185.478 1313.1 189.083 1310.53 193.329C1308.17 197.246 1305 203.644 1305 211.001H1335C1335 211.594 1334.88 211.661 1335.09 211.086C1335.28 210.548 1335.65 209.779 1336.22 208.832C1337.4 206.866 1338.88 205.139 1339.62 204.394L1318.38 183.214ZM1328.63 306.699C1334.35 294.273 1337.32 278.695 1339.28 265.237C1340.28 258.349 1341.07 251.584 1341.78 245.671C1342.5 239.605 1343.11 234.626 1343.78 230.755L1314.22 225.641C1313.39 230.441 1312.69 236.247 1311.99 242.124C1311.27 248.155 1310.53 254.494 1309.59 260.916C1307.68 274.078 1305.15 285.944 1301.37 294.154L1328.63 306.699ZM1339.62 217.609C1338.88 216.863 1337.4 215.136 1336.22 213.17C1335.65 212.223 1335.28 211.455 1335.09 210.916C1334.88 210.341 1335 210.408 1335 211.001H1305C1305 218.358 1308.17 224.757 1310.53 228.673C1313.1 232.92 1316.12 236.524 1318.38 238.788L1339.62 217.609ZM1525.92 106.933C1519.63 124.023 1521.97 143.696 1525.11 159.126C1526.75 167.139 1528.78 174.794 1530.5 181.228C1532.31 187.994 1533.61 192.858 1534.22 196.361L1563.78 191.247C1562.89 186.079 1561.13 179.622 1559.48 173.477C1557.75 167 1555.94 160.153 1554.51 153.136C1551.53 138.507 1550.87 126.007 1554.08 117.301L1525.92 106.933ZM1538.38 183.214C1536.12 185.478 1533.1 189.083 1530.53 193.329C1528.17 197.246 1525 203.644 1525 211.001H1555C1555 211.594 1554.88 211.661 1555.09 211.086C1555.28 210.548 1555.65 209.779 1556.22 208.832C1557.4 206.866 1558.88 205.139 1559.62 204.394L1538.38 183.214ZM1548.63 306.699C1554.35 294.273 1557.32 278.695 1559.28 265.237C1560.28 258.349 1561.07 251.584 1561.78 245.671C1562.5 239.605 1563.11 234.626 1563.78 230.755L1534.22 225.641C1533.39 230.441 1532.69 236.247 1531.99 242.124C1531.27 248.155 1530.53 254.494 1529.59 260.916C1527.68 274.078 1525.15 285.944 1521.37 294.154L1548.63 306.699ZM1559.62 217.609C1558.88 216.863 1557.4 215.136 1556.22 213.17C1555.65 212.223 1555.28 211.455 1555.09 210.916C1554.88 210.341 1555 210.408 1555 211.001H1525C1525 218.358 1528.17 224.757 1530.53 228.673C1533.1 232.92 1536.12 236.524 1538.38 238.788L1559.62 217.609ZM103 351.589V321.589C86.4315 321.589 73 335.02 73 351.589H103ZM1721 351.589H1751C1751 335.02 1737.57 321.589 1721 321.589V351.589ZM1721 1159V1189C1737.57 1189 1751 1175.57 1751 1159H1721ZM103 1159H73C73 1175.57 86.4315 1189 103 1189V1159ZM1387 1159V1189C1403.57 1189 1417 1175.57 1417 1159H1387ZM432 1159H402C402 1175.57 415.431 1189 432 1189V1159ZM102 91.0503V61.0503C85.4315 61.0503 72 74.4817 72 91.0503H102ZM1721 91.0503H1751C1751 74.4817 1737.57 61.0503 1721 61.0503V91.0503ZM1721 319.774V349.774C1737.57 349.774 1751 336.342 1751 319.774H1721ZM102 319.774H72C72 336.342 85.4315 349.774 102 349.774V319.774ZM183.61 91.0503V61.0503H174.611L167.099 66.0025L183.61 91.0503ZM183.61 192.034L198.341 218.168L239.944 194.716L200.758 167.418L183.61 192.034ZM183.61 228.716L196.763 201.753L183.61 228.716ZM165.236 319.774L143.002 299.633L97.5817 349.774H165.236V319.774ZM320.39 91.0503L336.901 66.0025L329.389 61.0503H320.39V91.0503ZM320.39 192.034L303.242 167.418L264.056 194.716L305.659 218.168L320.39 192.034ZM338.764 319.774V349.774H406.418L360.998 299.633L338.764 319.774ZM403.61 91.0503V61.0503H394.611L387.099 66.0025L403.61 91.0503ZM403.61 192.034L418.341 218.168L459.944 194.716L420.758 167.418L403.61 192.034ZM403.61 228.716L416.763 201.753L403.61 228.716ZM385.236 319.774L363.002 299.633L317.582 349.774H385.236V319.774ZM540.39 91.0503L556.901 66.0025L549.388 61.0503H540.39V91.0503ZM540.39 192.034L523.242 167.418L484.056 194.716L525.659 218.168L540.39 192.034ZM540.39 228.716L527.237 201.753L527.237 201.753L540.39 228.716ZM558.764 319.774V349.774H626.418L580.998 299.633L558.764 319.774ZM623.61 91.0503V61.0503H614.612L607.099 66.0025L623.61 91.0503ZM623.61 192.034L638.341 218.168L679.944 194.716L640.758 167.418L623.61 192.034ZM623.61 228.716L636.763 201.753L623.61 228.716ZM605.236 319.774L583.002 299.633L537.582 349.774H605.236V319.774ZM760.39 91.0503L776.901 66.0025L769.388 61.0503H760.39V91.0503ZM760.39 192.034L743.242 167.418L704.056 194.716L745.659 218.168L760.39 192.034ZM760.39 228.716L747.237 201.753V201.753L760.39 228.716ZM778.764 319.774V349.774H846.418L800.998 299.633L778.764 319.774ZM843.61 91.0503V61.0503H834.612L827.099 66.0025L843.61 91.0503ZM843.61 192.034L858.341 218.168L899.944 194.716L860.758 167.418L843.61 192.034ZM843.61 228.716L856.763 201.753L843.61 228.716ZM825.236 319.774L803.002 299.633L757.582 349.774H825.236V319.774ZM980.39 91.0503L996.901 66.0025L989.388 61.0503H980.39V91.0503ZM980.39 192.034L963.242 167.418L924.056 194.716L965.659 218.168L980.39 192.034ZM980.39 228.716L967.237 201.753V201.753L980.39 228.716ZM998.764 319.774V349.774H1066.42L1021 299.633L998.764 319.774ZM1063.61 91.0503V61.0503H1054.61L1047.1 66.0025L1063.61 91.0503ZM1063.61 192.034L1078.34 218.168L1119.94 194.716L1080.76 167.418L1063.61 192.034ZM1063.61 228.716L1076.76 201.753L1063.61 228.716ZM1045.24 319.774L1023 299.633L977.582 349.774H1045.24V319.774ZM1200.39 91.0503L1216.9 66.0025L1209.39 61.0503H1200.39V91.0503ZM1200.39 192.034L1183.24 167.418L1144.06 194.716L1185.66 218.168L1200.39 192.034ZM1200.39 228.716L1187.24 201.753V201.753L1200.39 228.716ZM1218.76 319.774V349.774H1286.42L1241 299.633L1218.76 319.774ZM1283.61 91.0503V61.0503H1274.61L1267.1 66.0025L1283.61 91.0503ZM1283.61 192.034L1298.34 218.168L1339.94 194.716L1300.76 167.418L1283.61 192.034ZM1283.61 228.716L1296.76 201.753L1283.61 228.716ZM1265.24 319.774L1243 299.633L1197.58 349.774H1265.24V319.774ZM1420.39 91.0503L1436.9 66.0025L1429.39 61.0503H1420.39V91.0503ZM1420.39 192.034L1403.24 167.418L1364.06 194.716L1405.66 218.168L1420.39 192.034ZM1420.39 228.716L1407.24 201.753V201.753L1420.39 228.716ZM1438.76 319.774V349.774H1506.42L1461 299.633L1438.76 319.774ZM1503.61 91.0503V61.0503H1494.61L1487.1 66.0025L1503.61 91.0503ZM1503.61 192.034L1518.34 218.168L1559.94 194.716L1520.76 167.418L1503.61 192.034ZM1503.61 228.716L1516.76 201.753L1503.61 228.716ZM1485.24 319.774L1463 299.633L1417.58 349.774H1485.24V319.774ZM1640.39 91.0503L1656.9 66.0025L1649.39 61.0503H1640.39V91.0503ZM1640.39 192.034L1623.24 167.418L1584.06 194.716L1625.66 218.168L1640.39 192.034ZM1640.39 228.716L1627.24 201.753V201.753L1640.39 228.716ZM1658.76 319.774V349.774H1726.42L1681 299.633L1658.76 319.774ZM66.5 60H1752.5V0H66.5V60ZM1752.5 62.77H66.5V122.77H1752.5V62.77ZM66.5 62.77C63.3282 62.77 61.2116 61.6573 60.25 60.8305C59.3509 60.0574 60 60.1637 60 61.385H0C0 99.3773 34.1832 122.77 66.5 122.77V62.77ZM1759 61.385C1759 60.1637 1759.65 60.0574 1758.75 60.8304C1757.79 61.6573 1755.67 62.77 1752.5 62.77V122.77C1784.82 122.77 1819 99.3774 1819 61.385H1759ZM1752.5 60C1755.67 60 1757.79 61.1127 1758.75 61.9396C1759.65 62.7126 1759 62.6063 1759 61.385H1819C1819 23.3926 1784.82 0 1752.5 0V60ZM66.5 0C34.1832 0 0 23.3926 0 61.385H60C60 62.6063 59.3509 62.7126 60.25 61.9396C61.2116 61.1127 63.3283 60 66.5 60V0ZM103 381.589H1721V321.589H103V381.589ZM1691 351.589V1159H1751V351.589H1691ZM1721 1129H103V1189H1721V1129ZM133 1159V351.589H73V1159H133ZM1357 793.128V1159H1417V793.128H1357ZM1387 1129H432V1189H1387V1129ZM462 1159V793.128H402V1159H462ZM909.5 412.544C1161.06 412.544 1357 587.028 1357 793.128H1417C1417 545.71 1185.37 352.544 909.5 352.544V412.544ZM909.5 352.544C633.626 352.544 402 545.71 402 793.128H462C462 587.028 657.942 412.544 909.5 412.544V352.544ZM138 381.589H397V321.589H138V381.589ZM402 381.684V1125.47H462V381.684H402ZM397 1125.56H138V1185.56H397V1125.56ZM133 1125.47V381.684H73V1125.47H133ZM138 1125.56C135.242 1125.56 133.501 1124.59 132.811 1124C132.49 1123.72 132.529 1123.65 132.67 1123.94C132.833 1124.27 133 1124.82 133 1125.47H73C73 1162.75 106.512 1185.56 138 1185.56V1125.56ZM402 1125.47C402 1124.82 402.167 1124.27 402.33 1123.94C402.471 1123.65 402.51 1123.72 402.189 1124C401.499 1124.59 399.758 1125.56 397 1125.56V1185.56C428.488 1185.56 462 1162.75 462 1125.47H402ZM397 381.589C399.758 381.589 401.499 382.557 402.189 383.151C402.51 383.426 402.471 383.498 402.33 383.211C402.167 382.88 402 382.326 402 381.684H462C462 344.404 428.488 321.589 397 321.589V381.589ZM138 321.589C106.512 321.589 73 344.404 73 381.684H133C133 382.326 132.833 382.88 132.67 383.211C132.529 383.498 132.49 383.426 132.811 383.151C133.501 382.557 135.242 381.589 138 381.589V321.589ZM1422 381.589H1686V321.589H1422V381.589ZM1691 381.684V1125.47H1751V381.684H1691ZM1686 1125.56H1422V1185.56H1686V1125.56ZM1417 1125.47V381.684H1357V1125.47H1417ZM1422 1125.56C1419.24 1125.56 1417.5 1124.59 1416.81 1124C1416.49 1123.72 1416.53 1123.65 1416.67 1123.94C1416.83 1124.27 1417 1124.82 1417 1125.47H1357C1357 1162.75 1390.51 1185.56 1422 1185.56V1125.56ZM1691 1125.47C1691 1124.82 1691.17 1124.27 1691.33 1123.94C1691.47 1123.65 1691.51 1123.72 1691.19 1124C1690.5 1124.59 1688.76 1125.56 1686 1125.56V1185.56C1717.49 1185.56 1751 1162.75 1751 1125.47H1691ZM1686 381.589C1688.76 381.589 1690.5 382.557 1691.19 383.151C1691.51 383.426 1691.47 383.498 1691.33 383.211C1691.17 382.88 1691 382.326 1691 381.684H1751C1751 344.404 1717.49 321.589 1686 321.589V381.589ZM1422 321.589C1390.51 321.589 1357 344.404 1357 381.684H1417C1417 382.326 1416.83 382.88 1416.67 383.211C1416.53 383.498 1416.49 383.426 1416.81 383.151C1417.5 382.557 1419.24 381.589 1422 381.589V321.589ZM66.5 349.774H1752.5V289.774H66.5V349.774ZM1752.5 352.544H66.5V412.544H1752.5V352.544ZM66.5 352.544C63.3282 352.544 61.2116 351.431 60.25 350.604C59.3509 349.831 60 349.938 60 351.159H0C0 389.151 34.1832 412.544 66.5 412.544V352.544ZM1759 351.159C1759 349.937 1759.65 349.831 1758.75 350.604C1757.79 351.431 1755.67 352.544 1752.5 352.544V412.544C1784.82 412.544 1819 389.151 1819 351.159H1759ZM1752.5 349.774C1755.67 349.774 1757.79 350.886 1758.75 351.713C1759.65 352.486 1759 352.38 1759 351.159H1819C1819 313.166 1784.82 289.774 1752.5 289.774V349.774ZM66.5 289.774C34.1832 289.774 0 313.166 0 351.159H60C60 352.38 59.3509 352.486 60.25 351.713C61.2116 350.886 63.3283 349.774 66.5 349.774V289.774ZM102 121.05H1721V61.0503H102V121.05ZM1691 91.0503V319.774H1751V91.0503H1691ZM1721 289.774H102V349.774H1721V289.774ZM132 319.774V91.0503H72V319.774H132ZM167.099 66.0025C134.513 87.4823 129.691 123.874 132.853 149.859C134.497 163.374 138.407 176.341 143.543 187.263C148.263 197.299 155.669 209.131 166.461 216.65L200.758 167.418C202.568 168.679 200.735 167.888 197.838 161.728C195.357 156.453 193.27 149.649 192.413 142.612C190.574 127.491 194.734 119.648 200.12 116.098L167.099 66.0025ZM168.878 165.9C152.365 175.209 139.854 191.848 140.778 212.675C141.668 232.749 154.756 248.02 170.456 255.679L196.763 201.753C196.54 201.644 200.441 203.752 200.719 210.017C200.85 212.984 199.983 215.487 198.949 217.117C197.98 218.645 197.307 218.751 198.341 218.168L168.878 165.9ZM170.456 255.679C163.908 252.484 161.246 247.454 160.487 245.646C159.777 243.956 159.989 243.497 160.099 245.248C160.315 248.683 159.817 254.875 158.001 263.033C156.251 270.895 153.604 279.117 150.548 286.207C147.305 293.731 144.422 298.065 143.002 299.633L187.47 339.915C195.237 331.341 201.235 320.193 205.647 309.956C210.247 299.285 214.031 287.466 216.568 276.071C219.039 264.97 220.684 252.686 219.981 241.489C219.632 235.924 218.619 229.11 215.804 222.408C212.939 215.588 207.292 206.89 196.763 201.753L170.456 255.679ZM303.88 116.098C309.266 119.648 313.426 127.491 311.587 142.612C310.73 149.649 308.643 156.453 306.162 161.728C303.265 167.888 301.432 168.679 303.242 167.418L337.539 216.65C348.331 209.131 355.737 197.299 360.457 187.263C365.593 176.341 369.503 163.374 371.147 149.859C374.309 123.874 369.487 87.4823 336.901 66.0025L303.88 116.098ZM305.659 218.168C306.693 218.751 306.02 218.645 305.051 217.117C304.017 215.487 303.15 212.984 303.281 210.017C303.559 203.752 307.46 201.644 307.237 201.753L333.543 255.679C349.244 248.02 362.332 232.749 363.222 212.675C364.146 191.848 351.635 175.209 335.122 165.9L305.659 218.168ZM307.237 201.753C296.708 206.89 291.061 215.588 288.196 222.408C285.381 229.11 284.368 235.924 284.019 241.489C283.316 252.686 284.961 264.97 287.432 276.071C289.969 287.466 293.753 299.285 298.353 309.956C302.765 320.193 308.763 331.341 316.53 339.915L360.998 299.633C359.578 298.065 356.695 293.731 353.452 286.207C350.396 279.117 347.749 270.895 345.999 263.033C344.183 254.875 343.685 248.683 343.901 245.248C344.011 243.497 344.223 243.956 343.513 245.646C342.754 247.454 340.092 252.484 333.543 255.679L307.237 201.753ZM320.39 61.0503H183.61V121.05H320.39V61.0503ZM165.236 349.774H338.764V289.774H165.236V349.774ZM387.099 66.0025C354.513 87.4823 349.691 123.874 352.853 149.859C354.497 163.374 358.407 176.341 363.543 187.263C368.263 197.299 375.669 209.131 386.461 216.65L420.758 167.418C422.568 168.679 420.735 167.888 417.838 161.728C415.357 156.453 413.27 149.649 412.413 142.612C410.574 127.491 414.734 119.648 420.12 116.098L387.099 66.0025ZM388.878 165.9C372.365 175.209 359.854 191.848 360.778 212.675C361.668 232.749 374.756 248.02 390.457 255.679L416.763 201.753C416.54 201.644 420.441 203.752 420.719 210.017C420.85 212.984 419.983 215.487 418.949 217.117C417.98 218.645 417.307 218.751 418.341 218.168L388.878 165.9ZM390.457 255.679C383.908 252.484 381.246 247.454 380.487 245.646C379.777 243.956 379.989 243.497 380.099 245.248C380.315 248.683 379.817 254.875 378.001 263.033C376.251 270.895 373.604 279.117 370.548 286.207C367.305 293.731 364.422 298.065 363.002 299.633L407.47 339.915C415.237 331.341 421.235 320.193 425.647 309.956C430.247 299.285 434.031 287.466 436.568 276.071C439.039 264.97 440.684 252.686 439.981 241.489C439.632 235.924 438.619 229.11 435.804 222.408C432.939 215.588 427.292 206.89 416.763 201.753L390.457 255.679ZM523.88 116.098C529.266 119.648 533.426 127.491 531.587 142.612C530.73 149.649 528.643 156.453 526.162 161.728C523.265 167.888 521.432 168.679 523.242 167.418L557.539 216.65C568.331 209.131 575.737 197.299 580.457 187.263C585.593 176.341 589.503 163.374 591.147 149.859C594.309 123.874 589.487 87.4823 556.901 66.0025L523.88 116.098ZM525.659 218.168C526.693 218.751 526.02 218.645 525.051 217.117C524.017 215.487 523.15 212.984 523.281 210.017C523.559 203.752 527.46 201.644 527.237 201.753L553.544 255.679C569.244 248.02 582.332 232.749 583.222 212.675C584.146 191.848 571.635 175.209 555.122 165.9L525.659 218.168ZM527.237 201.753C516.708 206.89 511.061 215.588 508.196 222.408C505.381 229.11 504.368 235.924 504.019 241.489C503.316 252.686 504.961 264.97 507.432 276.071C509.969 287.466 513.753 299.285 518.353 309.956C522.765 320.193 528.763 331.341 536.53 339.915L580.998 299.633C579.578 298.065 576.695 293.731 573.452 286.207C570.396 279.117 567.749 270.895 565.999 263.033C564.183 254.875 563.685 248.683 563.901 245.248C564.011 243.497 564.223 243.956 563.513 245.646C562.754 247.454 560.092 252.484 553.544 255.679L527.237 201.753ZM540.39 61.0503H403.61V121.05H540.39V61.0503ZM385.236 349.774H558.764V289.774H385.236V349.774ZM607.099 66.0025C574.513 87.4823 569.691 123.874 572.853 149.859C574.497 163.374 578.407 176.341 583.543 187.263C588.263 197.299 595.669 209.131 606.462 216.65L640.758 167.418C642.568 168.679 640.735 167.888 637.838 161.728C635.357 156.453 633.27 149.649 632.414 142.612C630.574 127.491 634.734 119.648 640.12 116.098L607.099 66.0025ZM608.878 165.9C592.365 175.209 579.854 191.848 580.778 212.675C581.668 232.749 594.756 248.02 610.457 255.679L636.763 201.753C636.54 201.644 640.441 203.752 640.719 210.017C640.85 212.984 639.983 215.487 638.949 217.117C637.98 218.645 637.307 218.751 638.341 218.168L608.878 165.9ZM610.457 255.679C603.908 252.484 601.246 247.454 600.487 245.646C599.777 243.956 599.989 243.497 600.099 245.248C600.315 248.683 599.817 254.875 598.001 263.033C596.251 270.895 593.604 279.117 590.548 286.207C587.305 293.731 584.422 298.065 583.002 299.633L627.47 339.915C635.237 331.341 641.235 320.193 645.647 309.956C650.247 299.285 654.031 287.466 656.568 276.071C659.039 264.97 660.684 252.686 659.981 241.489C659.632 235.924 658.619 229.11 655.804 222.408C652.94 215.588 647.292 206.89 636.763 201.753L610.457 255.679ZM743.88 116.098C749.266 119.648 753.426 127.491 751.586 142.612C750.73 149.649 748.643 156.453 746.162 161.728C743.265 167.888 741.432 168.679 743.242 167.418L777.538 216.65C788.331 209.131 795.737 197.299 800.457 187.263C805.593 176.341 809.503 163.374 811.147 149.859C814.309 123.874 809.487 87.4823 776.901 66.0025L743.88 116.098ZM745.659 218.168C746.693 218.751 746.02 218.645 745.051 217.117C744.017 215.487 743.15 212.984 743.281 210.017C743.559 203.752 747.46 201.644 747.237 201.753L773.543 255.679C789.244 248.02 802.332 232.749 803.222 212.675C804.146 191.848 791.635 175.209 775.122 165.9L745.659 218.168ZM747.237 201.753C736.708 206.89 731.06 215.588 728.196 222.408C725.381 229.11 724.368 235.924 724.019 241.489C723.316 252.686 724.961 264.97 727.432 276.071C729.969 287.466 733.753 299.285 738.353 309.956C742.765 320.193 748.763 331.341 756.53 339.915L800.998 299.633C799.578 298.065 796.695 293.731 793.452 286.207C790.396 279.117 787.749 270.895 785.999 263.033C784.183 254.875 783.685 248.683 783.901 245.248C784.011 243.497 784.223 243.956 783.513 245.646C782.754 247.454 780.092 252.484 773.543 255.679L747.237 201.753ZM760.39 61.0503H623.61V121.05H760.39V61.0503ZM605.236 349.774H778.764V289.774H605.236V349.774ZM827.099 66.0025C794.513 87.4823 789.691 123.874 792.853 149.859C794.497 163.374 798.407 176.341 803.543 187.263C808.263 197.299 815.669 209.131 826.462 216.65L860.758 167.418C862.568 168.679 860.735 167.888 857.838 161.728C855.357 156.453 853.27 149.649 852.414 142.612C850.574 127.491 854.734 119.648 860.12 116.098L827.099 66.0025ZM828.878 165.9C812.365 175.209 799.854 191.848 800.778 212.675C801.668 232.749 814.756 248.02 830.457 255.679L856.763 201.753C856.54 201.644 860.441 203.752 860.719 210.017C860.85 212.984 859.983 215.487 858.949 217.117C857.98 218.645 857.307 218.751 858.341 218.168L828.878 165.9ZM830.457 255.679C823.908 252.484 821.246 247.454 820.487 245.646C819.777 243.956 819.989 243.497 820.099 245.248C820.315 248.683 819.817 254.875 818.001 263.033C816.251 270.895 813.604 279.117 810.548 286.207C807.305 293.731 804.422 298.065 803.002 299.633L847.47 339.915C855.237 331.341 861.235 320.193 865.647 309.956C870.247 299.285 874.031 287.466 876.568 276.071C879.039 264.97 880.684 252.686 879.981 241.489C879.632 235.924 878.619 229.11 875.804 222.408C872.94 215.588 867.292 206.89 856.763 201.753L830.457 255.679ZM963.88 116.098C969.266 119.648 973.426 127.491 971.586 142.612C970.73 149.649 968.643 156.453 966.162 161.728C963.265 167.888 961.432 168.679 963.242 167.418L997.538 216.65C1008.33 209.131 1015.74 197.299 1020.46 187.263C1025.59 176.341 1029.5 163.374 1031.15 149.859C1034.31 123.874 1029.49 87.4823 996.901 66.0025L963.88 116.098ZM965.659 218.168C966.693 218.751 966.02 218.645 965.051 217.117C964.017 215.487 963.15 212.984 963.281 210.017C963.559 203.752 967.46 201.644 967.237 201.753L993.543 255.679C1009.24 248.02 1022.33 232.749 1023.22 212.675C1024.15 191.848 1011.64 175.209 995.122 165.9L965.659 218.168ZM967.237 201.753C956.708 206.89 951.06 215.588 948.196 222.408C945.381 229.11 944.368 235.924 944.019 241.489C943.316 252.686 944.961 264.97 947.432 276.071C949.969 287.466 953.753 299.285 958.353 309.956C962.765 320.193 968.763 331.341 976.53 339.915L1021 299.633C1019.58 298.065 1016.7 293.731 1013.45 286.207C1010.4 279.117 1007.75 270.895 1006 263.033C1004.18 254.875 1003.68 248.683 1003.9 245.248C1004.01 243.497 1004.22 243.956 1003.51 245.646C1002.75 247.454 1000.09 252.484 993.543 255.679L967.237 201.753ZM980.39 61.0503H843.61V121.05H980.39V61.0503ZM825.236 349.774H998.764V289.774H825.236V349.774ZM1047.1 66.0025C1014.51 87.4823 1009.69 123.874 1012.85 149.859C1014.5 163.374 1018.41 176.341 1023.54 187.263C1028.26 197.299 1035.67 209.131 1046.46 216.65L1080.76 167.418C1082.57 168.679 1080.74 167.888 1077.84 161.728C1075.36 156.453 1073.27 149.649 1072.41 142.612C1070.57 127.491 1074.73 119.648 1080.12 116.098L1047.1 66.0025ZM1048.88 165.9C1032.36 175.209 1019.85 191.848 1020.78 212.675C1021.67 232.749 1034.76 248.02 1050.46 255.679L1076.76 201.753C1076.54 201.644 1080.44 203.752 1080.72 210.017C1080.85 212.984 1079.98 215.487 1078.95 217.117C1077.98 218.645 1077.31 218.751 1078.34 218.168L1048.88 165.9ZM1050.46 255.679C1043.91 252.484 1041.25 247.454 1040.49 245.646C1039.78 243.956 1039.99 243.497 1040.1 245.248C1040.32 248.683 1039.82 254.875 1038 263.033C1036.25 270.895 1033.6 279.117 1030.55 286.207C1027.3 293.731 1024.42 298.065 1023 299.633L1067.47 339.915C1075.24 331.341 1081.23 320.193 1085.65 309.956C1090.25 299.285 1094.03 287.466 1096.57 276.071C1099.04 264.97 1100.68 252.686 1099.98 241.489C1099.63 235.924 1098.62 229.11 1095.8 222.408C1092.94 215.588 1087.29 206.89 1076.76 201.753L1050.46 255.679ZM1183.88 116.098C1189.27 119.648 1193.43 127.491 1191.59 142.612C1190.73 149.649 1188.64 156.453 1186.16 161.728C1183.26 167.888 1181.43 168.679 1183.24 167.418L1217.54 216.65C1228.33 209.131 1235.74 197.299 1240.46 187.263C1245.59 176.341 1249.5 163.374 1251.15 149.859C1254.31 123.874 1249.49 87.4823 1216.9 66.0025L1183.88 116.098ZM1185.66 218.168C1186.69 218.751 1186.02 218.645 1185.05 217.117C1184.02 215.487 1183.15 212.984 1183.28 210.017C1183.56 203.752 1187.46 201.644 1187.24 201.753L1213.54 255.679C1229.24 248.02 1242.33 232.749 1243.22 212.675C1244.15 191.848 1231.64 175.209 1215.12 165.9L1185.66 218.168ZM1187.24 201.753C1176.71 206.89 1171.06 215.588 1168.2 222.408C1165.38 229.11 1164.37 235.924 1164.02 241.489C1163.32 252.686 1164.96 264.97 1167.43 276.071C1169.97 287.466 1173.75 299.285 1178.35 309.956C1182.77 320.193 1188.76 331.341 1196.53 339.915L1241 299.633C1239.58 298.065 1236.7 293.731 1233.45 286.207C1230.4 279.117 1227.75 270.895 1226 263.033C1224.18 254.875 1223.69 248.683 1223.9 245.248C1224.01 243.497 1224.22 243.956 1223.51 245.646C1222.75 247.454 1220.09 252.484 1213.54 255.679L1187.24 201.753ZM1200.39 61.0503H1063.61V121.05H1200.39V61.0503ZM1045.24 349.774H1218.76V289.774H1045.24V349.774ZM1267.1 66.0025C1234.51 87.4823 1229.69 123.874 1232.85 149.859C1234.5 163.374 1238.41 176.341 1243.54 187.263C1248.26 197.299 1255.67 209.131 1266.46 216.65L1300.76 167.418C1302.57 168.679 1300.74 167.888 1297.84 161.728C1295.36 156.453 1293.27 149.649 1292.41 142.612C1290.57 127.491 1294.73 119.648 1300.12 116.098L1267.1 66.0025ZM1268.88 165.9C1252.36 175.209 1239.85 191.848 1240.78 212.675C1241.67 232.749 1254.76 248.02 1270.46 255.679L1296.76 201.753C1296.54 201.644 1300.44 203.752 1300.72 210.017C1300.85 212.984 1299.98 215.487 1298.95 217.117C1297.98 218.645 1297.31 218.751 1298.34 218.168L1268.88 165.9ZM1270.46 255.679C1263.91 252.484 1261.25 247.454 1260.49 245.646C1259.78 243.956 1259.99 243.497 1260.1 245.248C1260.31 248.683 1259.82 254.875 1258 263.033C1256.25 270.895 1253.6 279.117 1250.55 286.207C1247.3 293.731 1244.42 298.065 1243 299.633L1287.47 339.915C1295.24 331.341 1301.23 320.193 1305.65 309.956C1310.25 299.285 1314.03 287.466 1316.57 276.071C1319.04 264.97 1320.68 252.686 1319.98 241.489C1319.63 235.924 1318.62 229.11 1315.8 222.408C1312.94 215.588 1307.29 206.89 1296.76 201.753L1270.46 255.679ZM1403.88 116.098C1409.27 119.648 1413.43 127.491 1411.59 142.612C1410.73 149.649 1408.64 156.453 1406.16 161.728C1403.26 167.888 1401.43 168.679 1403.24 167.418L1437.54 216.65C1448.33 209.131 1455.74 197.299 1460.46 187.263C1465.59 176.341 1469.5 163.374 1471.15 149.859C1474.31 123.874 1469.49 87.4823 1436.9 66.0025L1403.88 116.098ZM1405.66 218.168C1406.69 218.751 1406.02 218.645 1405.05 217.117C1404.02 215.487 1403.15 212.984 1403.28 210.017C1403.56 203.752 1407.46 201.644 1407.24 201.753L1433.54 255.679C1449.24 248.02 1462.33 232.749 1463.22 212.675C1464.15 191.848 1451.64 175.209 1435.12 165.9L1405.66 218.168ZM1407.24 201.753C1396.71 206.89 1391.06 215.588 1388.2 222.408C1385.38 229.11 1384.37 235.924 1384.02 241.489C1383.32 252.686 1384.96 264.97 1387.43 276.071C1389.97 287.466 1393.75 299.285 1398.35 309.956C1402.77 320.193 1408.76 331.341 1416.53 339.915L1461 299.633C1459.58 298.065 1456.7 293.731 1453.45 286.207C1450.4 279.117 1447.75 270.895 1446 263.033C1444.18 254.875 1443.69 248.683 1443.9 245.248C1444.01 243.497 1444.22 243.956 1443.51 245.646C1442.75 247.454 1440.09 252.484 1433.54 255.679L1407.24 201.753ZM1420.39 61.0503H1283.61V121.05H1420.39V61.0503ZM1265.24 349.774H1438.76V289.774H1265.24V349.774ZM1487.1 66.0025C1454.51 87.4823 1449.69 123.874 1452.85 149.859C1454.5 163.374 1458.41 176.341 1463.54 187.263C1468.26 197.299 1475.67 209.131 1486.46 216.65L1520.76 167.418C1522.57 168.679 1520.74 167.888 1517.84 161.728C1515.36 156.453 1513.27 149.649 1512.41 142.612C1510.57 127.491 1514.73 119.648 1520.12 116.098L1487.1 66.0025ZM1488.88 165.9C1472.36 175.209 1459.85 191.848 1460.78 212.675C1461.67 232.749 1474.76 248.02 1490.46 255.679L1516.76 201.753C1516.54 201.644 1520.44 203.752 1520.72 210.017C1520.85 212.984 1519.98 215.487 1518.95 217.117C1517.98 218.645 1517.31 218.751 1518.34 218.168L1488.88 165.9ZM1490.46 255.679C1483.91 252.484 1481.25 247.454 1480.49 245.646C1479.78 243.956 1479.99 243.497 1480.1 245.248C1480.31 248.683 1479.82 254.875 1478 263.033C1476.25 270.895 1473.6 279.117 1470.55 286.207C1467.3 293.731 1464.42 298.065 1463 299.633L1507.47 339.915C1515.24 331.341 1521.23 320.193 1525.65 309.956C1530.25 299.285 1534.03 287.466 1536.57 276.071C1539.04 264.97 1540.68 252.686 1539.98 241.489C1539.63 235.924 1538.62 229.11 1535.8 222.408C1532.94 215.588 1527.29 206.89 1516.76 201.753L1490.46 255.679ZM1623.88 116.098C1629.27 119.648 1633.43 127.491 1631.59 142.612C1630.73 149.649 1628.64 156.453 1626.16 161.728C1623.26 167.888 1621.43 168.679 1623.24 167.418L1657.54 216.65C1668.33 209.131 1675.74 197.299 1680.46 187.263C1685.59 176.341 1689.5 163.374 1691.15 149.859C1694.31 123.874 1689.49 87.4823 1656.9 66.0025L1623.88 116.098ZM1625.66 218.168C1626.69 218.751 1626.02 218.645 1625.05 217.117C1624.02 215.487 1623.15 212.984 1623.28 210.017C1623.56 203.752 1627.46 201.644 1627.24 201.753L1653.54 255.679C1669.24 248.02 1682.33 232.749 1683.22 212.675C1684.15 191.848 1671.64 175.209 1655.12 165.9L1625.66 218.168ZM1627.24 201.753C1616.71 206.89 1611.06 215.588 1608.2 222.408C1605.38 229.11 1604.37 235.924 1604.02 241.489C1603.32 252.686 1604.96 264.97 1607.43 276.071C1609.97 287.466 1613.75 299.285 1618.35 309.956C1622.77 320.193 1628.76 331.341 1636.53 339.915L1681 299.633C1679.58 298.065 1676.7 293.731 1673.45 286.207C1670.4 279.117 1667.75 270.895 1666 263.033C1664.18 254.875 1663.69 248.683 1663.9 245.248C1664.01 243.497 1664.22 243.956 1663.51 245.646C1662.75 247.454 1660.09 252.484 1653.54 255.679L1627.24 201.753ZM1640.39 61.0503H1503.61V121.05H1640.39V61.0503ZM1485.24 349.774H1658.76V289.774H1485.24V349.774Z" fill="black" mask="url(#path-1-outside-1_63_2970)"/>
</g>
<rect x="30" y="30" width="1759" height="62.77" rx="31.385" fill="#FFE1B9"/>
<rect x="103" y="351.589" width="1618" height="807.411" fill="#CA6D18"/>
<path d="M432 860.043C432 596.327 645.784 382.544 909.5 382.544C1173.22 382.544 1387 596.328 1387 860.044V1159H432V860.043Z" fill="#482F0C"/>
<rect x="103" y="351.589" width="329" height="803.972" rx="35" fill="#FFB858"/>
<rect x="1387" y="351.589" width="334" height="803.972" rx="35" fill="#FFB858"/>
<rect x="30" y="319.774" width="1759" height="62.77" rx="31.385" fill="#FFE1B9"/>
<rect x="102" y="91.0503" width="1619" height="228.724" fill="#E58D25"/>
<path d="M183.61 192.034C165.644 179.519 145.638 116.08 183.61 91.0503H320.39C358.362 116.08 338.356 179.519 320.39 192.034C338.764 202.391 336.314 220.948 320.39 228.716C304.467 236.484 320.39 299.491 338.764 319.774H165.236C183.61 299.491 199.533 236.484 183.61 228.716C167.686 220.948 165.236 202.391 183.61 192.034Z" fill="#FFB858"/>
<path d="M403.61 192.034C385.644 179.519 365.638 116.08 403.61 91.0503H540.39C578.362 116.08 558.356 179.519 540.39 192.034C558.764 202.391 556.314 220.948 540.39 228.716C524.467 236.484 540.39 299.491 558.764 319.774H385.236C403.61 299.491 419.533 236.484 403.61 228.716C387.686 220.948 385.236 202.391 403.61 192.034Z" fill="#FFB858"/>
<path d="M623.61 192.034C605.644 179.519 585.638 116.08 623.61 91.0503H760.39C798.362 116.08 778.356 179.519 760.39 192.034C778.764 202.391 776.314 220.948 760.39 228.716C744.467 236.484 760.39 299.491 778.764 319.774H605.236C623.61 299.491 639.533 236.484 623.61 228.716C607.686 220.948 605.236 202.391 623.61 192.034Z" fill="#FFB858"/>
<path d="M843.61 192.034C825.644 179.519 805.638 116.08 843.61 91.0503H980.39C1018.36 116.08 998.356 179.519 980.39 192.034C998.764 202.391 996.314 220.948 980.39 228.716C964.467 236.484 980.39 299.491 998.764 319.774H825.236C843.61 299.491 859.533 236.484 843.61 228.716C827.686 220.948 825.236 202.391 843.61 192.034Z" fill="#FFB858"/>
<path d="M1063.61 192.034C1045.64 179.519 1025.64 116.08 1063.61 91.0503H1200.39C1238.36 116.08 1218.36 179.519 1200.39 192.034C1218.76 202.391 1216.31 220.948 1200.39 228.716C1184.47 236.484 1200.39 299.491 1218.76 319.774H1045.24C1063.61 299.491 1079.53 236.484 1063.61 228.716C1047.69 220.948 1045.24 202.391 1063.61 192.034Z" fill="#FFB858"/>
<path d="M1283.61 192.034C1265.64 179.519 1245.64 116.08 1283.61 91.0503H1420.39C1458.36 116.08 1438.36 179.519 1420.39 192.034C1438.76 202.391 1436.31 220.948 1420.39 228.716C1404.47 236.484 1420.39 299.491 1438.76 319.774H1265.24C1283.61 299.491 1299.53 236.484 1283.61 228.716C1267.69 220.948 1265.24 202.391 1283.61 192.034Z" fill="#FFB858"/>
<path d="M1503.61 192.034C1485.64 179.519 1465.64 116.08 1503.61 91.0503H1640.39C1678.36 116.08 1658.36 179.519 1640.39 192.034C1658.76 202.391 1656.31 220.948 1640.39 228.716C1624.47 236.484 1640.39 299.491 1658.76 319.774H1485.24C1503.61 299.491 1519.53 236.484 1503.61 228.716C1487.69 220.948 1485.24 202.391 1503.61 192.034Z" fill="#FFB858"/>
<path opacity="0.4" d="M177 448.753V1093.65" stroke="#CA6D18" stroke-width="30" stroke-linecap="round"/>
<path opacity="0.4" d="M1464 448.753V1093.65" stroke="#CA6D18" stroke-width="30" stroke-linecap="round"/>
<path opacity="0.4" d="M357 448.753V1093.65" stroke="#CA6D18" stroke-width="30" stroke-linecap="round"/>
<path opacity="0.4" d="M1644 448.753V1093.65" stroke="#CA6D18" stroke-width="30" stroke-linecap="round"/>
</svg>
