<svg width="281" height="443" viewBox="0 0 281 443" fill="none" xmlns="http://www.w3.org/2000/svg">
<path d="M0.339746 9L9 17.6603L17.6603 9L9 0.339746L0.339746 9ZM21 23.4444L22.4715 23.1532L21 23.4444ZM28.4444 112.778L26.9506 112.914L28.4444 112.778ZM146 316.222L147.016 315.119L146 316.222ZM237.556 382.222L238.423 380.999L237.556 382.222ZM277.43 442.442L280.442 430.57L268.57 427.558L265.558 439.43L277.43 442.442ZM9 10.5C11.0214 10.5 12.5291 10.8737 13.6883 11.4767C14.8406 12.076 15.7345 12.9464 16.4664 14.0755C17.9825 16.4142 18.7348 19.7252 19.5285 23.7357L22.4715 23.1532C21.7016 19.2633 20.8691 15.352 18.9838 12.4436C18.015 10.9491 16.754 9.68975 15.0727 8.81521C13.3984 7.94427 11.3939 7.5 9 7.5V10.5ZM19.5285 23.7357C22.4408 38.4502 23.6171 53.2125 24.4035 68.0774C25.1882 82.9093 25.5862 97.9049 26.9506 112.914L29.9383 112.642C28.5806 97.7071 28.1897 82.8573 27.3993 67.9189C26.6108 53.0137 25.4259 38.0811 22.4715 23.1532L19.5285 23.7357ZM26.9506 112.914C34.4309 195.197 85.9423 262.919 144.984 317.325L147.016 315.119C88.1718 260.894 37.3179 193.817 29.9383 112.642L26.9506 112.914ZM144.984 317.325C173.548 343.647 205.721 361.494 236.688 383.446L238.423 380.999C207.098 358.793 175.403 341.277 147.016 315.119L144.984 317.325ZM236.688 383.446C244.546 389.016 250.821 397.851 256.397 407.501C259.179 412.314 261.762 417.285 264.278 422.111C266.786 426.924 269.232 431.602 271.711 435.767L274.289 434.233C271.86 430.153 269.454 425.552 266.938 420.725C264.429 415.911 261.815 410.88 258.995 406C253.369 396.266 246.83 386.958 238.423 380.999L236.688 383.446Z" fill="#82D8E9"/>
</svg>
