<svg width="181" height="354" viewBox="0 0 181 354" fill="none" xmlns="http://www.w3.org/2000/svg">
<path d="M172.179 1.07216C171.666 0.421234 170.723 0.308962 170.072 0.821393L159.465 9.17195C158.814 9.68438 158.702 10.6275 159.214 11.2784C159.726 11.9293 160.669 12.0416 161.32 11.5292L170.749 4.10645L178.172 13.5353C178.684 14.1862 179.627 14.2985 180.278 13.7861C180.929 13.2736 181.042 12.3305 180.529 11.6796L172.179 1.07216ZM147.889 55.3333L146.559 54.6396L147.889 55.3333ZM83.4444 166.333L82.1611 165.557L83.4444 166.333ZM9.86888 352.985C10.413 353.61 11.3605 353.675 11.9852 353.131L22.1653 344.265C22.79 343.72 22.8553 342.773 22.3112 342.148C21.7671 341.524 20.8196 341.458 20.1949 342.002L11.146 349.884L3.26458 340.835C2.72049 340.21 1.77299 340.145 1.14829 340.689C0.523587 341.233 0.458242 342.18 1.00234 342.805L9.86888 352.985ZM169.511 1.82268C168.446 10.7635 164.839 19.9249 160.401 28.913C155.923 37.9819 150.803 46.5036 146.559 54.6396L149.219 56.0271C153.301 48.2021 158.642 39.2516 163.091 30.2412C167.579 21.1501 171.365 11.6254 172.489 2.17732L169.511 1.82268ZM146.559 54.6396C126.78 92.5563 104.33 128.922 82.1611 165.557L84.7278 167.11C106.874 130.512 129.386 94.049 149.219 56.0271L146.559 54.6396ZM82.1611 165.557C47.826 222.297 14.1711 284.217 9.50355 351.897L12.4964 352.103C17.109 285.221 50.3889 223.856 84.7278 167.11L82.1611 165.557Z" fill="#F9A3A3"/>
</svg>
