<svg width="316" height="473" viewBox="0 0 316 473" fill="none" xmlns="http://www.w3.org/2000/svg">
<path d="M213.061 13.0607C213.646 12.4749 213.646 11.5251 213.061 10.9393L203.515 1.3934C202.929 0.807611 201.979 0.807611 201.393 1.3934C200.808 1.97919 200.808 2.92893 201.393 3.51472L209.879 12L201.393 20.4853C200.808 21.0711 200.808 22.0208 201.393 22.6066C201.979 23.1924 202.929 23.1924 203.515 22.6066L213.061 13.0607ZM40.4444 50L41.2849 51.2424L40.4444 50ZM2.1111 162.667L3.61096 162.646L2.1111 162.667ZM53.5555 311.111L54.7088 310.152L53.5555 311.111ZM179.444 409.667L178.696 410.967L179.444 409.667ZM258.444 448.778L259.011 447.389L258.444 448.778ZM314.79 465.275C315.494 464.839 315.711 463.915 315.275 463.21L308.17 451.732C307.734 451.027 306.809 450.81 306.105 451.246C305.4 451.682 305.183 452.607 305.619 453.311L311.935 463.514L301.732 469.83C301.027 470.266 300.81 471.191 301.246 471.895C301.682 472.6 302.607 472.817 303.311 472.381L314.79 465.275ZM212 10.5C152.69 10.5 90.6449 14.2299 39.604 48.7576L41.2849 51.2424C91.4956 17.2764 152.689 13.5 212 13.5V10.5ZM39.604 48.7576C18.6772 62.9139 8.73244 79.9644 4.13858 99.2622C-0.428398 118.447 0.298696 139.871 0.611246 162.687L3.61096 162.646C3.29624 139.671 2.59701 118.692 7.05702 99.9569C11.4902 81.3344 21.0257 64.9472 41.2849 51.2424L39.604 48.7576ZM0.611246 162.687C1.38879 219.448 15.5262 267.729 52.4023 312.07L54.7088 310.152C18.3542 266.437 4.38103 218.861 3.61096 162.646L0.611246 162.687ZM52.4023 312.07C87.0291 353.707 132.305 384.264 178.696 410.967L180.193 408.367C133.894 381.717 88.9904 351.374 54.7088 310.152L52.4023 312.07ZM178.696 410.967C207.07 427.299 228.031 437.98 257.877 450.166L259.011 447.389C229.315 435.264 208.476 424.646 180.193 408.367L178.696 410.967ZM257.877 450.166C277.58 458.211 294.036 460.843 313.656 465.46L314.344 462.54C294.508 457.873 278.427 455.317 259.011 447.389L257.877 450.166Z" fill="#E98CE3"/>
</svg>
